<svg height="71" viewBox="0 0 71 71" width="71" xmlns="http://www.w3.org/2000/svg" xmlns:xlink="http://www.w3.org/1999/xlink"><clipPath id="a"><path d="m.02.02h71v71h-71z"/></clipPath><circle cx="20" cy="25" fill="#fed534" r="20"/><g clip-path="url(#a)" transform="translate(-.02 -.02)"><path d="m64.489 10.955a1.178 1.178 0 0 0 -1.667 0l-8.6 8.6v-16.019h-14.143v8.252h-1.179a1.179 1.179 0 0 0 -1.179 1.179v4.227l-2.358 2.358v-10.122a9.43 9.43 0 0 0 -18.861 0v10.122l-8.6-8.6a1.178 1.178 0 0 0 -1.667 0l-5.89 5.897a1.178 1.178 0 0 0 0 1.667l10.119 10.118-4.525 15.837a1.179 1.179 0 0 0 1.134 1.5h3.536v23.578a1.179 1.179 0 0 0 1.179 1.179h47.152a1.179 1.179 0 0 0 1.179-1.179v-23.576h3.536a1.179 1.179 0 0 0 1.134-1.5l-4.525-15.839 10.119-10.119a1.178 1.178 0 0 0 0-1.667zm-10.264 14.288 1.87 1.87h-1.87zm-11.788-19.349h9.43v2.358h-4.715v9.43h4.715v9.43h-2.357v-4.712a1.17 1.17 0 0 0 -.347-.834l-4.368-4.369v-4.23a1.179 1.179 0 0 0 -1.179-1.179h-1.179zm9.43 9.43h-2.357v-4.715h2.358zm-11.788-1.178h2.358v2.354h-2.358zm-.691 4.715h3.739l2.358 2.358h-8.454zm-4.024 4.715h11.788v3.536h-11.788zm-16.503-14.146a7.073 7.073 0 0 1 14.146 0v17.682h-14.146zm-16.015 8.252 4.227-4.227 8.942 8.945-4.227 4.227zm13.654 7.561v1.87h-1.87zm41.261 43.127h-44.794v-22.4h44.794zm4.331-24.755h-53.456l4.041-14.145h45.374zm-3.152-16.991-4.227-4.224 8.942-8.942 4.227 4.227z" fill="#215ba6" transform="translate(.207 .292)"/></g><g clip-path="url(#a)" fill="#215ba6" transform="translate(-.02 -.02)"><path d="m117.536 253.073h18.864a3.536 3.536 0 1 0 0-7.073h-18.864a3.536 3.536 0 1 0 0 7.073m0-4.715h18.864a1.179 1.179 0 1 1 0 2.358h-18.864a1.179 1.179 0 1 1 0-2.358" transform="translate(-91.396 -197.377)"/><path d="m0 0h7.458v2.358h-7.458z" transform="matrix(.94878783 -.315914 .315914 .94878783 22.237 9.797)"/><path d="m0 0h7.458v2.358h-7.458z" transform="matrix(.94878783 -.315914 .315914 .94878783 22.235 15.693)"/><path d="m0 0h7.458v2.358h-7.458z" transform="matrix(.949 -.316 .316 .949 22.232 21.589)"/><path d="m0 0h2v2h-2z" transform="translate(53.02 64.02)"/><path d="m0 0h2v2h-2z" transform="translate(49.02 64.02)"/></g></svg>