<svg width="48" height="48" viewBox="0 0 48 48" fill="none" xmlns="http://www.w3.org/2000/svg">
<g style="mix-blend-mode:luminosity" opacity="0.5" clip-path="url(#clip0_3_196)">
<path d="M44.129 47.2258V33.2903L24 25.5484L3.87097 33.2903V47.2258H44.129Z" fill="#ECECEC"/>
<path d="M44.129 33.6341L33.2903 29.4194H14.7097L3.87097 33.6341V37.505L14.7097 33.2903H33.2903L44.129 37.505V33.6341Z" fill="#B6C1CE"/>
<path d="M14.7097 30.9678L0.7742 36.3871V32.5162L14.7097 27.0968H33.2903L47.2258 32.5162V36.3871L33.2903 30.9678H14.7097Z" fill="#92E0C0"/>
<path d="M33.2903 47.2258V21.6774L24 16.2581L14.7097 21.6774V47.2258H33.2903Z" fill="#ECECEC"/>
<path d="M14.7097 21.8323V25.7033L24 20.1291L33.2903 25.7033V21.8323L25.2906 17.0323H22.7094L14.7097 21.8323Z" fill="#B6C1CE"/>
<path d="M44.129 44.9033H3.87097V47.2258H44.129V44.9033Z" fill="#B6C1CE"/>
<path d="M24 31.7419C21.4343 31.7419 19.3548 33.8214 19.3548 36.3871V47.2258H28.6452V36.3871C28.6452 33.8214 26.5657 31.7419 24 31.7419Z" fill="#EABD8C"/>
<path d="M28.6452 44.9032H19.3548V47.2258H28.6452V44.9032Z" fill="#D3A06C"/>
<path d="M41.0322 39.4839H36.3871V47.2258H41.0322V39.4839Z" fill="#EABD8C"/>
<path d="M11.6129 39.4839H6.96774V47.2258H11.6129V39.4839Z" fill="#EABD8C"/>
<path d="M41.0322 44.9032H36.3871V47.2258H41.0322V44.9032Z" fill="#D3A06C"/>
<path d="M11.6129 44.9032H6.96774V47.2258H11.6129V44.9032Z" fill="#D3A06C"/>
<path d="M28.6452 24H19.3548V27.0968H28.6452V24Z" fill="#39C3FC"/>
<path d="M25.2906 14.7097H22.7094L12.3871 20.9032V24.7742L24 17.8064L35.6129 24.7742V20.9032L25.2906 14.7097Z" fill="#92E0C0"/>
<path d="M25.5484 14.7097V6.96772H28.6452V3.87094H25.5484V0.77417H22.4516V3.87094H19.3548V6.96772H22.4516V14.7097H25.5484Z" fill="#ECECEC"/>
<path d="M25.5484 12.3871H22.4516V14.7097H25.5484V12.3871Z" fill="#B6C1CE"/>
<path d="M48 37.519V31.9866L34.0645 26.5672V24.7479L36.3871 26.1414V20.4643L26.3226 14.4255V7.74194H29.4194V3.09677H26.3226V0H21.6774V3.09677H18.5806V7.74194H21.6774V14.4263L11.6129 20.465V26.1422L13.9355 24.7486V26.568L0 31.9874V37.5197L3.09677 36.3151V46.4516H0V48H48V46.4516H44.9032V36.3143L48 37.519ZM46.4516 33.0457V35.2552L34.0645 30.4382V28.2286L46.4516 33.0457ZM20.129 6.19355V4.64516H23.2258V1.54839H24.7742V4.64516H27.871V6.19355H24.7742V13.9355H23.2258V6.19355H20.129ZM13.1613 21.3414L22.9239 15.4839H25.0761L34.8387 21.3414V23.4062L24 16.903L13.1613 23.4062V21.3414ZM24 18.7092L32.5161 23.8188V46.4516H29.4194V36.3871C29.4194 33.3987 26.9876 30.9677 24 30.9677C21.0124 30.9677 18.5806 33.3987 18.5806 36.3871V46.4516H15.4839V23.8188L24 18.7092ZM23.2258 46.4516H20.129V36.3871C20.129 34.5182 21.4614 32.9543 23.2258 32.5943V46.4516ZM24.7742 32.5943C26.5386 32.9543 27.871 34.5174 27.871 36.3871V46.4516H24.7742V32.5943ZM1.54839 33.0457L13.9355 28.2286V30.4382L1.54839 35.2552V33.0457ZM4.64516 35.7128L13.9355 32.0996V46.4516H12.3871V38.7097H6.19355V46.4516H4.64516V35.7128ZM10.8387 46.4516H7.74194V40.2581H10.8387V46.4516ZM40.2581 46.4516H37.1613V40.2581H40.2581V46.4516ZM43.3548 46.4516H41.8064V38.7097H35.6129V46.4516H34.0645V32.0996L43.3548 35.7128V46.4516Z" fill="black"/>
<path d="M29.4194 23.2258H18.5807V27.871H29.4194V23.2258ZM20.129 24.7742H23.2258V26.3226H20.129V24.7742ZM27.871 26.3226H24.7742V24.7742H27.871V26.3226Z" fill="black"/>
</g>
<defs>
<clipPath id="clip0_3_196">
<rect width="48" height="48" fill="white"/>
</clipPath>
</defs>
</svg>
