<?xml version="1.0" encoding="UTF-8" standalone="no"?>
<!DOCTYPE svg PUBLIC "-//W3C//DTD SVG 1.1//EN" "http://www.w3.org/Graphics/SVG/1.1/DTD/svg11.dtd">
<svg width="100%" height="100%" viewBox="0 0 48 48" version="1.1" xmlns="http://www.w3.org/2000/svg" xmlns:xlink="http://www.w3.org/1999/xlink" xml:space="preserve" xmlns:serif="http://www.serif.com/" style="fill-rule:evenodd;clip-rule:evenodd;stroke-linejoin:round;stroke-miterlimit:2;">
    <g transform="matrix(1,0,0,1,-448,0)">
        <g transform="matrix(1,0,0,1,448,0)">
            <rect id="Artboard1" x="0" y="0" width="48" height="48" style="fill-opacity:0;"/>
            <g id="Artboard11" serif:id="Artboard1">
                <g transform="matrix(-1,0,0,1,48,16.5)">
                    <rect x="7.5" y="0.75" width="33" height="30" style="fill:rgb(255,228,227);"/>
                </g>
                <g transform="matrix(1,0,0,1,7.5,37.023)">
                    <path d="M0,-19.773L21.75,-19.773L21.75,-10.896C21.75,-9.465 21.468,-8.048 20.921,-6.726C20.373,-5.404 19.571,-4.203 18.559,-3.191C17.547,-2.18 16.346,-1.377 15.024,-0.829C13.702,-0.282 12.286,0 10.855,0L0,0L0,-19.773Z" style="fill:rgb(255,246,246);fill-rule:nonzero;"/>
                </g>
                <g transform="matrix(-1,0,0,1,48,37.5)">
                    <rect x="21" y="0.75" width="6" height="9" style="fill:rgb(255,127,124);"/>
                </g>
                <g transform="matrix(1,0,0,1,21,43.5)">
                    <path d="M0,-5.25L6,-5.25C6,-3.858 5.447,-2.522 4.462,-1.538C3.478,-0.553 2.142,0 0.75,0L0,0L0,-5.25Z" style="fill:rgb(255,203,201);fill-rule:nonzero;"/>
                </g>
                <g transform="matrix(-1,0,0,1,28.5,-1.5)">
                    <rect x="11.25" y="21.75" width="6" height="6" style="fill:rgb(255,229,229);"/>
                </g>
                <g transform="matrix(1,0,0,1,11.25,24)">
                    <path d="M0,-3.75L6,-3.75C6,-3.258 5.903,-2.77 5.715,-2.315C5.526,-1.86 5.25,-1.447 4.902,-1.098C4.553,-0.75 4.14,-0.474 3.685,-0.286C3.23,-0.097 2.743,0 2.25,0L0,0L0,-3.75Z" style="fill:white;fill-rule:nonzero;"/>
                </g>
                <g transform="matrix(-1,0,0,1,48,-1.5)">
                    <rect x="21" y="21.75" width="6" height="6" style="fill:rgb(255,229,229);"/>
                </g>
                <g transform="matrix(1,0,0,1,21,24)">
                    <path d="M0,-3.75L6,-3.75C6,-2.755 5.605,-1.802 4.902,-1.098C4.198,-0.395 3.245,0 2.25,0L0,0L0,-3.75Z" style="fill:white;fill-rule:nonzero;"/>
                </g>
                <g transform="matrix(-1,0,0,1,67.5,-1.5)">
                    <rect x="30.75" y="21.75" width="6" height="6" style="fill:rgb(255,229,229);"/>
                </g>
                <g transform="matrix(1,0,0,1,30.75,24)">
                    <path d="M0,-3.75L6,-3.75C6,-2.755 5.605,-1.802 4.902,-1.098C4.198,-0.395 3.245,0 2.25,0L0,0L0,-3.75Z" style="fill:white;fill-rule:nonzero;"/>
                </g>
                <g transform="matrix(-1,0,0,1,28.5,16.5)">
                    <rect x="11.25" y="12.75" width="6" height="6" style="fill:rgb(255,229,229);"/>
                </g>
                <g transform="matrix(-1,0,0,1,28.5,34.5)">
                    <rect x="11.25" y="3.75" width="6" height="6" style="fill:rgb(255,229,229);"/>
                </g>
                <g transform="matrix(-1,0,0,1,67.5,34.5)">
                    <rect x="30.75" y="3.75" width="6" height="6" style="fill:rgb(255,229,229);"/>
                </g>
                <g transform="matrix(-1,0,0,1,48,16.5)">
                    <rect x="21" y="12.75" width="6" height="6" style="fill:rgb(255,229,229);"/>
                </g>
                <g transform="matrix(-1,0,0,1,67.5,16.5)">
                    <rect x="30.75" y="12.75" width="6" height="6" style="fill:rgb(255,229,229);"/>
                </g>
                <g transform="matrix(1,0,0,1,11.25,33)">
                    <path d="M0,-3.75L6,-3.75C6,-3.258 5.903,-2.77 5.715,-2.315C5.526,-1.86 5.25,-1.447 4.902,-1.098C4.553,-0.75 4.14,-0.474 3.685,-0.286C3.23,-0.097 2.743,0 2.25,0L0,0L0,-3.75Z" style="fill:white;fill-rule:nonzero;"/>
                </g>
                <g transform="matrix(1,0,0,1,21,33)">
                    <path d="M0,-3.75L6,-3.75C6,-2.755 5.605,-1.802 4.902,-1.098C4.198,-0.395 3.245,0 2.25,0L0,0L0,-3.75Z" style="fill:white;fill-rule:nonzero;"/>
                </g>
                <g transform="matrix(1,0,0,1,30.75,33)">
                    <path d="M0,-3.75L6,-3.75C6,-2.755 5.605,-1.802 4.902,-1.098C4.198,-0.395 3.245,0 2.25,0L0,0L0,-3.75Z" style="fill:white;fill-rule:nonzero;"/>
                </g>
                <g transform="matrix(1,0,0,1,11.25,42)">
                    <path d="M0,-3.75L6,-3.75C6,-3.258 5.903,-2.77 5.715,-2.315C5.526,-1.86 5.25,-1.447 4.902,-1.098C4.553,-0.75 4.14,-0.474 3.685,-0.286C3.23,-0.097 2.743,0 2.25,0L0,0L0,-3.75Z" style="fill:white;fill-rule:nonzero;"/>
                </g>
                <g transform="matrix(1,0,0,1,30.75,42)">
                    <path d="M0,-3.75L6,-3.75C6,-2.755 5.605,-1.802 4.902,-1.098C4.198,-0.395 3.245,0 2.25,0L0,0L0,-3.75Z" style="fill:white;fill-rule:nonzero;"/>
                </g>
                <g transform="matrix(-1,0,0,1,48,-30)">
                    <rect x="15.75" y="30.75" width="16.5" height="16.5" style="fill:rgb(255,188,186);"/>
                </g>
                <g transform="matrix(1,0,0,1,15.75,12.75)">
                    <path d="M0,-12L16.5,-12C16.5,-8.817 15.236,-5.765 12.985,-3.515C10.735,-1.264 7.683,0 4.5,0L0,0L0,-12Z" style="fill:rgb(255,228,227);fill-rule:nonzero;"/>
                </g>
                <g transform="matrix(1,0,0,1,0,-1.5)">
                    <path d="M12,27L16.5,27L16.5,22.5L12,22.5L12,27ZM17.25,28.5L11.25,28.5C11.051,28.5 10.86,28.421 10.72,28.28C10.579,28.14 10.5,27.949 10.5,27.75L10.5,21.75C10.5,21.551 10.579,21.36 10.72,21.22C10.86,21.079 11.051,21 11.25,21L17.25,21C17.449,21 17.64,21.079 17.78,21.22C17.921,21.36 18,21.551 18,21.75L18,27.75C18,27.949 17.921,28.14 17.78,28.28C17.64,28.421 17.449,28.5 17.25,28.5" style="fill:rgb(241,79,75);fill-rule:nonzero;"/>
                </g>
                <g transform="matrix(1,0,0,1,0,-1.5)">
                    <path d="M21.75,27L26.25,27L26.25,22.5L21.75,22.5L21.75,27ZM27,28.5L21,28.5C20.801,28.5 20.61,28.421 20.47,28.28C20.329,28.14 20.25,27.949 20.25,27.75L20.25,21.75C20.25,21.551 20.329,21.36 20.47,21.22C20.61,21.079 20.801,21 21,21L27,21C27.199,21 27.39,21.079 27.53,21.22C27.671,21.36 27.75,21.551 27.75,21.75L27.75,27.75C27.75,27.949 27.671,28.14 27.53,28.28C27.39,28.421 27.199,28.5 27,28.5" style="fill:rgb(241,79,75);fill-rule:nonzero;"/>
                </g>
                <g transform="matrix(1,0,0,1,0,-1.5)">
                    <path d="M31.5,27L36,27L36,22.5L31.5,22.5L31.5,27ZM36.75,28.5L30.75,28.5C30.551,28.5 30.36,28.421 30.22,28.28C30.079,28.14 30,27.949 30,27.75L30,21.75C30,21.551 30.079,21.36 30.22,21.22C30.36,21.079 30.551,21 30.75,21L36.75,21C36.949,21 37.14,21.079 37.28,21.22C37.421,21.36 37.5,21.551 37.5,21.75L37.5,27.75C37.5,27.949 37.421,28.14 37.28,28.28C37.14,28.421 36.949,28.5 36.75,28.5" style="fill:rgb(241,79,75);fill-rule:nonzero;"/>
                </g>
                <g transform="matrix(1,0,0,1,0,16.5)">
                    <path d="M12,18L16.5,18L16.5,13.5L12,13.5L12,18ZM17.25,19.5L11.25,19.5C11.051,19.5 10.86,19.421 10.72,19.28C10.579,19.14 10.5,18.949 10.5,18.75L10.5,12.75C10.5,12.551 10.579,12.36 10.72,12.22C10.86,12.079 11.051,12 11.25,12L17.25,12C17.449,12 17.64,12.079 17.78,12.22C17.921,12.36 18,12.551 18,12.75L18,18.75C18,18.949 17.921,19.14 17.78,19.28C17.64,19.421 17.449,19.5 17.25,19.5" style="fill:rgb(241,79,75);fill-rule:nonzero;"/>
                </g>
                <g transform="matrix(1,0,0,1,0,34.5)">
                    <path d="M12,9L16.5,9L16.5,4.5L12,4.5L12,9ZM17.25,10.5L11.25,10.5C11.051,10.5 10.86,10.421 10.72,10.28C10.579,10.14 10.5,9.949 10.5,9.75L10.5,3.75C10.5,3.551 10.579,3.36 10.72,3.22C10.86,3.079 11.051,3 11.25,3L17.25,3C17.449,3 17.64,3.079 17.78,3.22C17.921,3.36 18,3.551 18,3.75L18,9.75C18,9.949 17.921,10.14 17.78,10.28C17.64,10.421 17.449,10.5 17.25,10.5" style="fill:rgb(241,79,75);fill-rule:nonzero;"/>
                </g>
                <g transform="matrix(1,0,0,1,0,34.5)">
                    <path d="M31.5,9L36,9L36,4.5L31.5,4.5L31.5,9ZM36.75,10.5L30.75,10.5C30.551,10.5 30.36,10.421 30.22,10.28C30.079,10.14 30,9.949 30,9.75L30,3.75C30,3.551 30.079,3.36 30.22,3.22C30.36,3.079 30.551,3 30.75,3L36.75,3C36.949,3 37.14,3.079 37.28,3.22C37.421,3.36 37.5,3.551 37.5,3.75L37.5,9.75C37.5,9.949 37.421,10.14 37.28,10.28C37.14,10.421 36.949,10.5 36.75,10.5" style="fill:rgb(241,79,75);fill-rule:nonzero;"/>
                </g>
                <g transform="matrix(1,0,0,1,0,16.5)">
                    <path d="M21.75,18L26.25,18L26.25,13.5L21.75,13.5L21.75,18ZM27,19.5L21,19.5C20.801,19.5 20.61,19.421 20.47,19.28C20.329,19.14 20.25,18.949 20.25,18.75L20.25,12.75C20.25,12.551 20.329,12.36 20.47,12.22C20.61,12.079 20.801,12 21,12L27,12C27.199,12 27.39,12.079 27.53,12.22C27.671,12.36 27.75,12.551 27.75,12.75L27.75,18.75C27.75,18.949 27.671,19.14 27.53,19.28C27.39,19.421 27.199,19.5 27,19.5" style="fill:rgb(241,79,75);fill-rule:nonzero;"/>
                </g>
                <g transform="matrix(1,0,0,1,0,16.5)">
                    <path d="M31.5,18L36,18L36,13.5L31.5,13.5L31.5,18ZM36.75,19.5L30.75,19.5C30.551,19.5 30.36,19.421 30.22,19.28C30.079,19.14 30,18.949 30,18.75L30,12.75C30,12.551 30.079,12.36 30.22,12.22C30.36,12.079 30.551,12 30.75,12L36.75,12C36.949,12 37.14,12.079 37.28,12.22C37.421,12.36 37.5,12.551 37.5,12.75L37.5,18.75C37.5,18.949 37.421,19.14 37.28,19.28C37.14,19.421 36.949,19.5 36.75,19.5" style="fill:rgb(241,79,75);fill-rule:nonzero;"/>
                </g>
                <g transform="matrix(1,0,0,1,27.75,1.5)">
                    <path d="M0,45L0,36.75C0,36.551 -0.079,36.36 -0.22,36.22C-0.36,36.079 -0.551,36 -0.75,36L-6.75,36C-6.949,36 -7.14,36.079 -7.28,36.22C-7.421,36.36 -7.5,36.551 -7.5,36.75L-7.5,45L-19.5,45L-19.5,16.5L12,16.5L12,45L0,45ZM-6,37.5L-1.5,37.5L-1.5,45L-6,45L-6,37.5ZM-11.25,0L3.75,0L3.75,15L-11.25,15L-11.25,0ZM13.5,45L13.5,15.75C13.5,15.551 13.421,15.36 13.28,15.22C13.14,15.079 12.949,15 12.75,15L5.25,15L5.25,-0.75C5.25,-0.949 5.171,-1.14 5.03,-1.28C4.89,-1.421 4.699,-1.5 4.5,-1.5L-12,-1.5C-12.199,-1.5 -12.39,-1.421 -12.53,-1.28C-12.671,-1.14 -12.75,-0.949 -12.75,-0.75L-12.75,15L-20.25,15C-20.449,15 -20.64,15.079 -20.78,15.22C-20.921,15.36 -21,15.551 -21,15.75L-21,45L-27.75,45L-27.75,46.5L20.25,46.5L20.25,45L13.5,45Z" style="fill:rgb(241,79,75);fill-rule:nonzero;"/>
                </g>
                <g transform="matrix(1,0,0,1,29.25,10.5)">
                    <path d="M0,-3L-3.75,-3L-3.75,-6.75L-6.75,-6.75L-6.75,-3L-10.5,-3L-10.5,0L-6.75,0L-6.75,3.75L-3.75,3.75L-3.75,0L0,0L0,-3Z" style="fill:rgb(255,170,167);fill-rule:nonzero;"/>
                </g>
                <g transform="matrix(1,0,0,1,24,9)">
                    <path d="M0,-5.25L0,-1.103C0,-0.81 -0.116,-0.53 -0.323,-0.323C-0.53,-0.116 -0.81,0 -1.102,0L-5.25,0L-5.25,-1.5L-1.5,-1.5L-1.5,-5.25L0,-5.25Z" style="fill:rgb(255,228,227);fill-rule:nonzero;"/>
                </g>
                <g transform="matrix(1,0,0,1,23.25,4.5)">
                    <path d="M0,9L1.5,9L1.5,6C1.5,5.801 1.579,5.61 1.72,5.47C1.86,5.329 2.051,5.25 2.25,5.25L5.25,5.25L5.25,3.75L2.25,3.75C2.051,3.75 1.86,3.671 1.72,3.53C1.579,3.39 1.5,3.199 1.5,3L1.5,0L0,0L0,3C0,3.199 -0.079,3.39 -0.22,3.53C-0.36,3.671 -0.551,3.75 -0.75,3.75L-3.75,3.75L-3.75,5.25L-0.75,5.25C-0.551,5.25 -0.36,5.329 -0.22,5.47C-0.079,5.61 0,5.801 0,6L0,9ZM2.25,10.5L-0.75,10.5C-0.949,10.5 -1.14,10.421 -1.28,10.28C-1.421,10.14 -1.5,9.949 -1.5,9.75L-1.5,6.75L-4.5,6.75C-4.699,6.75 -4.89,6.671 -5.03,6.53C-5.171,6.39 -5.25,6.199 -5.25,6L-5.25,3C-5.25,2.801 -5.171,2.61 -5.03,2.47C-4.89,2.329 -4.699,2.25 -4.5,2.25L-1.5,2.25L-1.5,-0.75C-1.5,-0.949 -1.421,-1.14 -1.28,-1.28C-1.14,-1.421 -0.949,-1.5 -0.75,-1.5L2.25,-1.5C2.449,-1.5 2.64,-1.421 2.78,-1.28C2.921,-1.14 3,-0.949 3,-0.75L3,2.25L6,2.25C6.199,2.25 6.39,2.329 6.53,2.47C6.671,2.61 6.75,2.801 6.75,3L6.75,6C6.75,6.199 6.671,6.39 6.53,6.53C6.39,6.671 6.199,6.75 6,6.75L3,6.75L3,9.75C3,9.949 2.921,10.14 2.78,10.28C2.64,10.421 2.449,10.5 2.25,10.5" style="fill:rgb(241,79,75);fill-rule:nonzero;"/>
                </g>
            </g>
        </g>
    </g>
</svg>
