<?xml version="1.0" encoding="UTF-8" standalone="no"?>
<svg xmlns="http://www.w3.org/2000/svg"
     viewBox="0 0 64 64">
    <title>
        hospital-medical-healthcare-clinic-location-health
    </title>
    <g id="_18-hospital"
       opacity="0.5"
       data-name="18-hospital">
        <rect x="10"
              y="23"
              width="44"
              height="40"
              style="fill:#abcff0"/>
        <path d="M10,23H39a0,0,0,0,1,0,0V34.836A14.527,14.527,0,0,1,24.473,49.364H10a0,0,0,0,1,0,0V23A0,0,0,0,1,10,23Z"
              style="fill:#eef5fc"/>
        <rect x="28"
              y="51"
              width="8"
              height="12"
              style="fill:#2e5084"/>
        <path d="M28,51h8a0,0,0,0,1,0,0v0a7,7,0,0,1-7,7H28a0,0,0,0,1,0,0V51A0,0,0,0,1,28,51Z"
              style="fill:#abb9ce"/>
        <rect x="15"
              y="27"
              width="8"
              height="8"
              style="fill:#e0d9d9"/>
        <path d="M15,27h8a0,0,0,0,1,0,0v0a5,5,0,0,1-5,5H15a0,0,0,0,1,0,0V27a0,0,0,0,1,0,0Z"
              style="fill:#fff"/>
        <rect x="28"
              y="27"
              width="8"
              height="8"
              style="fill:#e0d9d9"/>
        <path d="M28,27h8a0,0,0,0,1,0,0v0a5,5,0,0,1-5,5H28a0,0,0,0,1,0,0V27A0,0,0,0,1,28,27Z"
              style="fill:#fff"/>
        <rect x="41"
              y="27"
              width="8"
              height="8"
              style="fill:#e0d9d9"/>
        <path d="M41,27h8a0,0,0,0,1,0,0v0a5,5,0,0,1-5,5H41a0,0,0,0,1,0,0V27A0,0,0,0,1,41,27Z"
              style="fill:#fff"/>
        <rect x="15"
              y="39"
              width="8"
              height="8"
              style="fill:#e0d9d9"/>
        <rect x="15"
              y="51"
              width="8"
              height="8"
              style="fill:#e0d9d9"/>
        <rect x="41"
              y="51"
              width="8"
              height="8"
              style="fill:#e0d9d9"/>
        <rect x="28"
              y="39"
              width="8"
              height="8"
              style="fill:#e0d9d9"/>
        <rect x="41"
              y="39"
              width="8"
              height="8"
              style="fill:#e0d9d9"/>
        <path d="M15,39h8a0,0,0,0,1,0,0v0a5,5,0,0,1-5,5H15a0,0,0,0,1,0,0V39a0,0,0,0,1,0,0Z"
              style="fill:#fff"/>
        <path d="M28,39h8a0,0,0,0,1,0,0v0a5,5,0,0,1-5,5H28a0,0,0,0,1,0,0V39A0,0,0,0,1,28,39Z"
              style="fill:#fff"/>
        <path d="M41,39h8a0,0,0,0,1,0,0v0a5,5,0,0,1-5,5H41a0,0,0,0,1,0,0V39A0,0,0,0,1,41,39Z"
              style="fill:#fff"/>
        <path d="M15,51h8a0,0,0,0,1,0,0v0a5,5,0,0,1-5,5H15a0,0,0,0,1,0,0V51a0,0,0,0,1,0,0Z"
              style="fill:#fff"/>
        <path d="M41,51h8a0,0,0,0,1,0,0v0a5,5,0,0,1-5,5H41a0,0,0,0,1,0,0V51A0,0,0,0,1,41,51Z"
              style="fill:#fff"/>
        <rect x="21"
              y="1"
              width="22"
              height="22"
              style="fill:#71a8fd"/>
        <path d="M21,1H43a0,0,0,0,1,0,0V1A16,16,0,0,1,27,17H21a0,0,0,0,1,0,0V1A0,0,0,0,1,21,1Z"
              style="fill:#c6dcfe"/>
        <path d="M23,36H15a1,1,0,0,1-1-1V27a1,1,0,0,1,1-1h8a1,1,0,0,1,1,1v8A1,1,0,0,1,23,36Zm-7-2h6V28H16Z"/>
        <path d="M36,36H28a1,1,0,0,1-1-1V27a1,1,0,0,1,1-1h8a1,1,0,0,1,1,1v8A1,1,0,0,1,36,36Zm-7-2h6V28H29Z"/>
        <path d="M49,36H41a1,1,0,0,1-1-1V27a1,1,0,0,1,1-1h8a1,1,0,0,1,1,1v8A1,1,0,0,1,49,36Zm-7-2h6V28H42Z"/>
        <path d="M23,48H15a1,1,0,0,1-1-1V39a1,1,0,0,1,1-1h8a1,1,0,0,1,1,1v8A1,1,0,0,1,23,48Zm-7-2h6V40H16Z"/>
        <path d="M23,60H15a1,1,0,0,1-1-1V51a1,1,0,0,1,1-1h8a1,1,0,0,1,1,1v8A1,1,0,0,1,23,60Zm-7-2h6V52H16Z"/>
        <path d="M49,60H41a1,1,0,0,1-1-1V51a1,1,0,0,1,1-1h8a1,1,0,0,1,1,1v8A1,1,0,0,1,49,60Zm-7-2h6V52H42Z"/>
        <path d="M36,48H28a1,1,0,0,1-1-1V39a1,1,0,0,1,1-1h8a1,1,0,0,1,1,1v8A1,1,0,0,1,36,48Zm-7-2h6V40H29Z"/>
        <path d="M49,48H41a1,1,0,0,1-1-1V39a1,1,0,0,1,1-1h8a1,1,0,0,1,1,1v8A1,1,0,0,1,49,48Zm-7-2h6V40H42Z"/>
        <path d="M55,62V23a1,1,0,0,0-1-1H44V1a1,1,0,0,0-1-1H21a1,1,0,0,0-1,1V22H10a1,1,0,0,0-1,1V62H0v2H64V62ZM22,2H42V22H22Zm7,60V52h6V62Zm8,0V51a1,1,0,0,0-1-1H28a1,1,0,0,0-1,1V62H11V24H53V62Z"/>
        <polygon
                points="39 10 34 10 34 5 30 5 30 10 25 10 25 14 30 14 30 19 34 19 34 14 39 14 39 10"
                style="fill:#5da078"/>
        <path d="M32,5v5.53A1.47,1.47,0,0,1,30.53,12H25V10h5V5Z"
              style="fill:#bed9c9"/>
        <path d="M34,20H30a1,1,0,0,1-1-1V15H25a1,1,0,0,1-1-1V10a1,1,0,0,1,1-1h4V5a1,1,0,0,1,1-1h4a1,1,0,0,1,1,1V9h4a1,1,0,0,1,1,1v4a1,1,0,0,1-1,1H35v4A1,1,0,0,1,34,20Zm-3-2h2V14a1,1,0,0,1,1-1h4V11H34a1,1,0,0,1-1-1V6H31v4a1,1,0,0,1-1,1H26v2h4a1,1,0,0,1,1,1Z"/>
    </g>
</svg>
