<?xml version="1.0" encoding="UTF-8" standalone="no"?>
<!DOCTYPE svg PUBLIC "-//W3C//DTD SVG 1.1//EN" "http://www.w3.org/Graphics/SVG/1.1/DTD/svg11.dtd">
<svg width="100%" height="100%" viewBox="0 0 48 48" version="1.1" xmlns="http://www.w3.org/2000/svg" xmlns:xlink="http://www.w3.org/1999/xlink" xml:space="preserve" xmlns:serif="http://www.serif.com/" style="fill-rule:evenodd;clip-rule:evenodd;stroke-linejoin:round;stroke-miterlimit:2;">
    <g transform="matrix(1,0,0,1,-512,0)">
        <g transform="matrix(1,0,0,1,512,0)">
            <rect id="Artboard1" x="0" y="0" width="48" height="48" style="fill-opacity:0;"/>
            <g id="Artboard11" serif:id="Artboard1">
                <g transform="matrix(1,0,0,1,33.0073,3.2493)">
                    <path d="M0,9L-1.318,9.439C-3.355,10.118 -5.579,9.96 -7.5,9C-9.421,8.04 -11.645,7.882 -13.682,8.561L-15,9L-15,-0L-13.682,-0.44C-11.645,-1.118 -9.421,-0.96 -7.5,-0C-5.579,0.96 -3.355,1.118 -1.318,0.439L0,-0L0,9Z" style="fill:rgb(255,127,124);fill-rule:nonzero;"/>
                </g>
                <g transform="matrix(1,0,0,1,16.8711,45.2493)">
                    <path d="M0,-18C0.739,-17.104 1.281,-16.062 1.59,-14.943C1.899,-13.823 1.967,-12.651 1.791,-11.503C1.615,-10.355 1.199,-9.257 0.569,-8.281C-0.061,-7.305 -0.89,-6.473 -1.864,-5.84L-1.864,0L28.886,0L28.886,-18L0,-18Z" style="fill:rgb(255,174,171);fill-rule:nonzero;"/>
                </g>
                <g transform="matrix(0,1,1,0,21.1608,42.0953)">
                    <path d="M-6.154,-3.154L3.154,-3.154L3.154,-6.154L-2.682,-6.154C-3.533,-4.847 -4.737,-3.806 -6.154,-3.154" style="fill:rgb(255,207,204);fill-rule:nonzero;"/>
                </g>
                <g transform="matrix(1,0,0,1,45.7573,30.2493)">
                    <path d="M0,-3L0,0L-27.315,0C-27.428,-0.408 -27.574,-0.807 -27.75,-1.193C-28.048,-1.841 -28.429,-2.449 -28.883,-3L0,-3Z" style="fill:rgb(255,207,204);fill-rule:nonzero;"/>
                </g>
                <g transform="matrix(1,0,0,1,27.7573,42.9993)">
                    <path d="M0,-12.75C0,-10.164 -1.027,-7.684 -2.856,-5.856C-4.684,-4.027 -7.164,-3 -9.75,-3L-9.75,0C-6.368,0 -3.126,-1.343 -0.734,-3.734C1.657,-6.126 3,-9.368 3,-12.75L0,-12.75Z" style="fill:rgb(255,207,204);fill-rule:nonzero;"/>
                </g>
                <g transform="matrix(1,0,0,1,19.325,11.5708)">
                    <path d="M0,-4.261L-1.318,-3.822L-1.318,0.679L0,0.239C2.038,-0.44 4.261,-0.282 6.182,0.679L6.182,-3.822C4.261,-4.782 2.038,-4.94 0,-4.261" style="fill:rgb(255,174,171);fill-rule:nonzero;"/>
                </g>
                <g transform="matrix(1,0,0,1,31.6896,8.4288)">
                    <path d="M0,-4.74C-2.038,-4.061 -4.261,-4.219 -6.182,-5.179L-6.182,-0.679C-4.261,0.281 -2.038,0.439 0,-0.24L1.318,-0.679L1.318,-5.179L0,-4.74Z" style="fill:rgb(255,174,171);fill-rule:nonzero;"/>
                </g>
                <g transform="matrix(1,0,0,1,18.0073,5.8063)">
                    <path d="M0,19.193L0,23.25C-0.298,22.602 -0.679,21.994 -1.133,21.443C-1.667,20.796 -2.296,20.235 -3,19.778L-3,-2.557C-2.999,-2.954 -2.84,-3.335 -2.559,-3.616C-2.278,-3.897 -1.897,-4.056 -1.5,-4.057L-1.5,17.693C-1.499,18.09 -1.34,18.471 -1.059,18.752C-0.778,19.033 -0.397,19.192 0,19.193" style="fill:rgb(255,207,204);fill-rule:nonzero;"/>
                </g>
                <g transform="matrix(1,0,0,1,18.4423,31.1093)">
                    <path d="M0,3.64C-0.377,4.972 -1.084,6.188 -2.055,7.176C-3.025,8.163 -4.229,8.891 -5.555,9.291C-6.881,9.69 -8.286,9.75 -9.641,9.464C-10.996,9.179 -12.257,8.556 -13.308,7.655C-14.359,6.753 -15.167,5.602 -15.656,4.306C-16.145,3.011 -16.3,1.613 -16.107,0.242C-15.914,-1.129 -15.379,-2.43 -14.551,-3.54C-13.723,-4.65 -12.629,-5.534 -11.37,-6.11C-11.582,-5.379 -11.688,-4.621 -11.685,-3.86C-11.685,-2.478 -11.337,-1.118 -10.674,0.095C-10.012,1.308 -9.055,2.335 -7.891,3.082C-6.728,3.829 -5.396,4.271 -4.017,4.369C-2.638,4.466 -1.257,4.216 0,3.64" style="fill:rgb(255,207,204);fill-rule:nonzero;"/>
                </g>
                <g transform="matrix(1,0,0,1,10.5073,35.0106)">
                    <path d="M0,-6.457L-3.394,-3.991L-2.098,0L2.098,0L3.395,-3.991L0,-6.457Z" style="fill:rgb(255,127,124);fill-rule:nonzero;"/>
                </g>
                <g transform="matrix(1,0,0,1,12.9538,25.9043)">
                    <path d="M0,-1.28L-2.447,0.497L-4.893,-1.28C-3.3,-1.777 -1.593,-1.777 0,-1.28" style="fill:rgb(255,127,124);fill-rule:nonzero;"/>
                </g>
                <g transform="matrix(1,0,0,1,5.0481,29.3746)">
                    <path d="M0,0.994L-2.787,3.019C-2.768,1.183 -2.131,-0.594 -0.979,-2.025L0,0.994Z" style="fill:rgb(255,127,124);fill-rule:nonzero;"/>
                </g>
                <g transform="matrix(1,0,0,1,18.7573,27.347)">
                    <path d="M0,5.045L-2.787,3.02L-1.807,0C-0.655,1.431 -0.018,3.208 0,5.045" style="fill:rgb(255,127,124);fill-rule:nonzero;"/>
                </g>
                <g transform="matrix(1,0,0,1,17.5573,40.4568)">
                    <path d="M0,-3.675C-1.094,-1.873 -2.838,-0.557 -4.871,0L-3.68,-3.675L0,-3.675Z" style="fill:rgb(255,127,124);fill-rule:nonzero;"/>
                </g>
                <g transform="matrix(1,0,0,1,8.3263,36.7823)">
                    <path d="M0,3.673C-2.033,3.115 -3.775,1.801 -4.869,0L-1.194,0L0,3.673Z" style="fill:rgb(255,127,124);fill-rule:nonzero;"/>
                </g>
                <g transform="matrix(1,0,0,1,26.969,15.9423)">
                    <path d="M0,15.057C-0.179,17.175 -1.102,19.161 -2.605,20.663C-4.108,22.166 -6.094,23.089 -8.212,23.269L-8.212,20.143C-7.505,18.546 -7.291,16.776 -7.598,15.057L0,15.057ZM3.015,15.057C2.829,17.973 1.586,20.722 -0.48,22.788C-2.547,24.855 -5.295,26.097 -8.212,26.284L-8.212,24.784C-5.693,24.599 -3.325,23.516 -1.54,21.73C0.245,19.944 1.329,17.575 1.512,15.057L3.015,15.057ZM-13.081,23.243L-12.544,21.592L-10.917,21.592C-11.532,22.269 -12.265,22.829 -13.081,23.243M-18.058,23.881L-19.003,20.972L-18.164,19.818L-14.759,19.818L-13.921,20.972L-14.865,23.881C-15.917,24.116 -17.007,24.116 -18.058,23.881M-22.006,21.59L-20.379,21.59L-19.843,23.239C-20.658,22.826 -21.391,22.266 -22.006,21.59M-19.029,9.519L-17.212,10.841L-17.212,12.23L-20.005,14.258L-21.326,13.829L-22.056,11.579C-21.232,10.653 -20.192,9.946 -19.029,9.519M-15.851,9.088L-16.462,9.532L-17.072,9.088C-16.87,9.071 -16.668,9.057 -16.462,9.057C-16.256,9.057 -16.053,9.071 -15.851,9.088M-11.212,-12.693C-11.212,-12.892 -11.133,-13.083 -10.992,-13.223C-10.851,-13.364 -10.661,-13.443 -10.462,-13.443C-10.263,-13.443 -10.072,-13.364 -9.931,-13.223C-9.791,-13.083 -9.712,-12.892 -9.712,-12.693L-9.712,10.624C-10.159,10.115 -10.662,9.658 -11.212,9.262L-11.212,-12.693ZM-7.407,-12.421C-5.708,-12.99 -3.858,-12.913 -2.212,-12.205L-2.212,-9.311C-4.046,-9.949 -6.04,-9.961 -7.881,-9.344L-8.212,-9.234L-8.212,-12.152L-7.407,-12.421ZM4.958,-11.54L5.288,-11.652L5.288,-8.734L4.483,-8.465C2.785,-7.893 0.935,-7.967 -0.712,-8.672L-0.712,-11.576C1.122,-10.938 3.116,-10.926 4.958,-11.542L4.958,-11.54ZM4.484,-3.965C2.784,-3.396 0.934,-3.473 -0.712,-4.181L-0.712,-7.073C0.209,-6.751 1.176,-6.586 2.151,-6.584C3.105,-6.585 4.053,-6.739 4.958,-7.042L5.288,-7.152L5.288,-4.234L4.484,-3.965ZM-7.881,-4.844L-8.212,-4.734L-8.212,-7.652L-7.406,-7.921C-5.708,-8.492 -3.859,-8.419 -2.212,-7.714L-2.212,-4.813C-3.132,-5.135 -4.1,-5.3 -5.075,-5.302C-6.029,-5.302 -6.976,-5.147 -7.881,-4.844M-10.12,14.14L-9.796,13.136C-9.519,13.673 -9.309,14.242 -9.17,14.83L-10.12,14.14ZM-12.707,20.09L-13.537,18.949L-12.479,15.693L-11.136,15.256L-8.976,16.824C-9.013,17.965 -9.312,19.082 -9.85,20.09L-12.707,20.09ZM-10.868,11.579L-11.597,13.829L-12.919,14.258L-15.712,12.23L-15.712,10.841L-13.895,9.519C-12.731,9.946 -11.691,10.653 -10.868,11.579M-18.015,18.318L-18.974,15.364L-16.462,13.538L-13.949,15.364L-14.909,18.318L-18.015,18.318ZM-22.803,14.14L-23.753,14.83C-23.614,14.242 -23.404,13.673 -23.128,13.136L-22.803,14.14ZM-23.948,16.824L-21.788,15.256L-20.445,15.693L-19.387,18.949L-20.216,20.09L-23.074,20.09C-23.612,19.082 -23.911,17.965 -23.948,16.824M18.788,12.057C18.987,12.057 19.178,11.978 19.319,11.837C19.459,11.697 19.538,11.506 19.538,11.307C19.538,11.108 19.459,10.917 19.319,10.777C19.178,10.636 18.987,10.557 18.788,10.557L-8.212,10.557L-8.212,6.057L18.788,6.057C18.987,6.057 19.178,5.978 19.319,5.837C19.459,5.697 19.538,5.506 19.538,5.307C19.538,5.108 19.459,4.917 19.319,4.777C19.178,4.636 18.987,4.557 18.788,4.557L-8.212,4.557L-8.212,-3.152L-7.407,-3.421C-6.492,-3.729 -5.525,-3.852 -4.562,-3.783C-3.599,-3.715 -2.659,-3.456 -1.797,-3.022C-0.572,-2.406 0.78,-2.085 2.151,-2.084C3.105,-2.085 4.053,-2.239 4.958,-2.542L6.275,-2.981C6.425,-3.031 6.555,-3.127 6.647,-3.254C6.739,-3.382 6.788,-3.535 6.788,-3.693L6.788,-12.693C6.788,-12.812 6.76,-12.929 6.706,-13.035C6.652,-13.141 6.573,-13.232 6.477,-13.302C6.381,-13.371 6.269,-13.417 6.152,-13.435C6.034,-13.453 5.914,-13.442 5.801,-13.405L4.484,-12.965C3.568,-12.657 2.602,-12.534 1.639,-12.602C0.676,-12.671 -0.264,-12.93 -1.126,-13.364C-2.165,-13.887 -3.296,-14.199 -4.456,-14.281C-5.615,-14.363 -6.779,-14.215 -7.881,-13.844L-8.438,-13.658C-8.656,-14.119 -9.025,-14.492 -9.484,-14.716C-9.943,-14.939 -10.464,-15 -10.962,-14.887C-11.459,-14.775 -11.904,-14.496 -12.222,-14.097C-12.54,-13.699 -12.713,-13.203 -12.712,-12.693L-12.712,4.557L-24.712,4.557C-24.911,4.557 -25.101,4.636 -25.242,4.777C-25.383,4.917 -25.462,5.108 -25.462,5.307C-25.462,5.506 -25.383,5.697 -25.242,5.837C-25.101,5.978 -24.911,6.057 -24.712,6.057L-12.712,6.057L-12.712,8.382C-14.083,7.751 -15.591,7.474 -17.097,7.578C-18.603,7.683 -20.059,8.164 -21.33,8.978C-22.601,9.792 -23.647,10.913 -24.372,12.238C-25.096,13.562 -25.476,15.047 -25.476,16.557C-25.476,18.067 -25.096,19.552 -24.372,20.876C-23.647,22.201 -22.601,23.322 -21.33,24.136C-20.059,24.95 -18.603,25.431 -17.097,25.536C-15.591,25.64 -14.083,25.363 -12.712,24.732L-12.712,29.307C-12.712,29.506 -12.633,29.697 -12.492,29.837C-12.351,29.978 -12.161,30.057 -11.962,30.057C-11.763,30.057 -11.572,29.978 -11.431,29.837C-11.291,29.697 -11.212,29.506 -11.212,29.307L-11.212,23.852C-10.662,23.456 -10.159,22.999 -9.712,22.49L-9.712,29.307C-9.712,29.506 -9.633,29.697 -9.492,29.837C-9.351,29.978 -9.161,30.057 -8.962,30.057C-8.763,30.057 -8.572,29.978 -8.431,29.837C-8.291,29.697 -8.212,29.506 -8.212,29.307L-8.212,27.769C-4.901,27.582 -1.776,26.182 0.569,23.838C2.913,21.493 4.313,18.367 4.5,15.057L18.788,15.057C18.987,15.057 19.178,14.978 19.319,14.837C19.459,14.697 19.538,14.506 19.538,14.307C19.538,14.108 19.459,13.917 19.319,13.777C19.178,13.636 18.987,13.557 18.788,13.557L-7.987,13.557C-8.171,13.037 -8.403,12.534 -8.68,12.057L18.788,12.057Z" style="fill:rgb(242,80,76);fill-rule:nonzero;"/>
                </g>
            </g>
        </g>
    </g>
</svg>
