<svg height="67.784" viewBox="0 0 70.85 67.784" width="70.85" xmlns="http://www.w3.org/2000/svg" xmlns:xlink="http://www.w3.org/1999/xlink"><clipPath id="a"><path d="m0 0h70.85v67.784h-70.85z"/></clipPath><circle cx="20" cy="26.889" fill="#fed534" r="20"/><g clip-path="url(#a)" fill="#215ba6"><path d="m295.587 7.81a1.11 1.11 0 0 1 -.79-.327 3.094 3.094 0 0 1 0-4.368.857.857 0 0 0 0-1.211 1.116 1.116 0 0 1 1.579-1.578 3.094 3.094 0 0 1 0 4.368.856.856 0 0 0 0 1.211 1.116 1.116 0 0 1 -.789 1.905z" transform="translate(-239.241)"/><path d="m10.319 82.893a1.117 1.117 0 0 1 -1.119-1.115v-34.34l-4.139 3.062a1.105 1.105 0 0 1 -.662.219 1.122 1.122 0 0 1 -.9-.46l-3.287-4.506a1.118 1.118 0 0 1 .239-1.553l34.411-25.42a1.114 1.114 0 0 1 1.375.038l14.809 12.273v-5.1a1.117 1.117 0 0 1 1.116-1.116h8.368a1.117 1.117 0 0 1 1.116 1.116v13.886l8.8 7.294a1.12 1.12 0 0 1 .152 1.566l-3.532 4.318a1.117 1.117 0 0 1 -1.577.152l-3.844-3.19v31.761a1.117 1.117 0 0 1 -1.116 1.116zm1.116-37.107v34.876h47.979v-32.5l-24.129-20.024zm23.888-20.186a1.12 1.12 0 0 1 .714.258l23.305 19.342c5.966 4.951 6.454 5.356 6.48 5.379l.217.19.189-.217 1.942-2.373-32.685-27.086-32.817 24.242 1.97 2.706 30.023-22.218a1.106 1.106 0 0 1 .662-.219m17.954 7.337 6.137 5.086v-10.927h-6.137z" transform="translate(0 -15.109)"/><path d="m172.863 245.053a1.813 1.813 0 1 1 -1.814 1.813 1.815 1.815 0 0 1 1.814-1.813m0-2.214a4.027 4.027 0 1 0 4.027 4.027 4.027 4.027 0 0 0 -4.027-4.027" transform="translate(-137.438 -197.679)"/><path d="m172.863 291.46a1.815 1.815 0 0 1 1.813 1.813v7.567h-3.626v-7.567a1.815 1.815 0 0 1 1.814-1.813m0-2.214a4.027 4.027 0 0 0 -4.027 4.027v8.652a1.129 1.129 0 0 0 1.129 1.129h5.8a1.129 1.129 0 0 0 1.129-1.129v-8.652a4.027 4.027 0 0 0 -4.027-4.027" transform="translate(-137.438 -235.456)"/><path d="m155.014 210.93h-21.014v-32.114a2.708 2.708 0 0 1 2.7-2.7h15.6a2.708 2.708 0 0 1 2.7 2.7zm-18.8-2.214h16.586v-29.9a.491.491 0 0 0 -.491-.491h-15.6a.491.491 0 0 0 -.491.491z" transform="translate(-109.084 -143.361)"/></g></svg>