<svg height="18.972" viewBox="0 0 26.982 18.972" width="26.982" xmlns="http://www.w3.org/2000/svg"><path d="m27.468 7.468a3.39 3.39 0 0 0 -2.386-2.4c-2.103-.568-10.541-.568-10.541-.568s-8.441 0-10.541.567a3.39 3.39 0 0 0 -2.386 2.4 35.566 35.566 0 0 0 -.564 6.537 35.566 35.566 0 0 0 .564 6.537 3.34 3.34 0 0 0 2.386 2.359c2.1.567 10.542.567 10.542.567s8.438 0 10.542-.567a3.34 3.34 0 0 0 2.386-2.363 35.566 35.566 0 0 0 .564-6.537 35.566 35.566 0 0 0 -.564-6.537zm-15.686 10.549v-8.024l7.052 4.012z" fill="#fff" transform="translate(-1.05 -4.5)"/></svg>