<svg height="74.144" viewBox="0 0 70 74.144" width="70" xmlns="http://www.w3.org/2000/svg"><g fill="#fff"><g opacity=".5" transform="translate(-300 -40)"><path d="m362.964 239.78a34.908 34.908 0 0 0 -3.963-8.2q-.462-.7-.956-1.384a3.394 3.394 0 0 0 -.708-.661 1.835 1.835 0 0 0 -.8-.153c-.048 0-1.416.152-1.963.237a26.03 26.03 0 0 0 -2.738.579c-.848.225-1.642.468-2.558.71-.942.25-2.076.61-3.074.943-1.378.46-2.5.869-2.5.869s-3.516.92-11.143 4.977-10.333 7.248-10.333 7.248c-3.733 4.572-2.055 7.087.731 8.412s9.656 2.57 9.656 2.57a88.672 88.672 0 0 1 14.47 3.219c4.437 1.731 6.087 3.436 6.654 4.625s2.218 3.624-.676 7.79a32.821 32.821 0 0 1 -4.006 4.586 50.757 50.757 0 0 1 -4 3.5c-1.879 1.428-3.456 2.5-4.759 3.294-3.635 2.226-5.149 2.358-5.149 2.358l-.088.053a34.783 34.783 0 0 0 12.824-4.676 35.126 35.126 0 0 0 13.643-15.309 34.72 34.72 0 0 0 2.738-8.987 35.254 35.254 0 0 0 -1.305-16.6" transform="translate(5.281 -171.208)"/><path d="m21.844 252.053a67.3 67.3 0 0 0 -6.7-4.441l-2.458-1.512a6.18 6.18 0 0 1 -1.566-1.269c-3-2.595 1.026-5.487 1.026-5.487a38.748 38.748 0 0 1 5.918-4.107 29.435 29.435 0 0 1 10.81-3.541c-10.432-7.73-16.837-7.81-16.837-7.81a10.736 10.736 0 0 0 -3.345.024 3.894 3.894 0 0 0 -2.369 1.524 29.334 29.334 0 0 0 -2.127 3.5 33.041 33.041 0 0 0 -1.746 3.666 32.066 32.066 0 0 0 -2.112 8.05 40.432 40.432 0 0 0 -.338 4.929 34.856 34.856 0 0 0 11.256 25.694s1.407 1.281 2.209 1.876a2.453 2.453 0 0 0 1.926.272 5.811 5.811 0 0 0 .729-.189 40.207 40.207 0 0 0 6.863-3.378c5.7-3.432 6.3-5.784 6.3-5.784.81-2.648-1.108-5.7-1.108-5.7a26.063 26.063 0 0 0 -6.329-6.314" transform="translate(300 -166.039)"/></g><path d="m385.875 9.621a4.81 4.81 0 1 0 -4.811-4.811 4.811 4.811 0 0 0 4.811 4.811" transform="translate(-350.879)"/><path d="m590.468 174.91a4.811 4.811 0 1 0 -4.811-4.811 4.811 4.811 0 0 0 4.811 4.811" transform="translate(-539.265 -152.195)"/><path d="m181.283 174.91a4.811 4.811 0 1 0 -4.811-4.811 4.811 4.811 0 0 0 4.811 4.811" transform="translate(-162.493 -152.195)"/><path d="m128.709 134.028-4.637-4.637-4.636 4.637-22.7 22.7 4.636 4.637 6.294-6.294v19.209h6.556v-25.768l6.567-6.569v32.39h6.556v-32.39l6.569 6.569v25.768h6.556v-19.212l6.294 6.294 4.636-4.637z" transform="translate(-89.077 -119.141)"/></g></svg>