<svg height="472" width="703" xmlns="http://www.w3.org/2000/svg" xmlns:xlink="http://www.w3.org/1999/xlink"><clipPath id="a"><path d="m0 0h703v472h-703z"/></clipPath><g opacity=".07"><g clip-path="url(#a)"><path d="m501 397h1l1 3 11 17 6 4h2l7-2v-1l1-1h1v-1l1-1v-1l1-1v-2h2v1l-1 2h1v1l3 1 2 1h1l2-2v-2h1l1-1 1-1 4 1 1-1h1v2h1v-1h1l2 1h1l2-1 1 1 1 1h2v-1l1 1 1 2v2l-1 1h-1l-1-1h-2v1l-1 1h1v1h-2l-1 1v2l-1 4v1l1 1 1 1v2l-3 1-4 1h-1v1l-1 1-3-1-2-1-2-1-1 1v2h-4l-2 1-1-1-1-1v-1l-1-1v-1l-3-1-3-1-1-1h-2l-2 1-1 1-2 1-1 1v1 1h2v1h-3v1 2l-2-1h-1-2v2l-1 1h-2v1l-1 1-1 3-1 1h-2l-1-1v-1h-3l-1 1h-3-3l-1 1-3 1-2 1-3 1h-1l-1 1-2 2v1l-2 2-1 4-1 1h-2v1l-1 1v1h-2l-1 1-1 1v1l-1 1h-2l-4 2h-2l-2-1h-1-4 1l1-1 3-1-1-1-1-4h-1v-2l-2 1-1-2 2-2-2-3-3 1-1-4 3-1v-2l-2-2h-2v-2h1v-1l1-1v-2l-1-2v-2l-1-1v-4l-1-1-3-2-2-2h-4l-1 1h-2v-1h-1l-2-1-2-2-1-1v-1h-1l-1-1-2-2-2-1-1-1h-7l-1 1-1 1h-4l-1-1h-1l-1-3-1-1 1-1 1-1 5-4h2l1-1 1-1h3v-1-1-1l1-1 3-2 9-4h1v-1h-1v-1h1v1h3l3-2h1l2-2 2-1h3l1-1 1-1h2v1h2v-3 1l1-1h1l1-1h-1l-1-1h-3l-1 1v-1l1-1v-1h-1v-1h1v-1l-1-2 1-1v-1l-1-2 1-1 1-1-1-2 1-1v1l2 3 1 1 1 1 1-1v-2h2v3h-1l2 2v1h-1v1h1-1 2v-1h1v1 1h1l1 1v-2-1-1h-1l-1-1h3l1 1 2 2 1 1 2 2-1 1-1-1v1l1 1 1 1h1v-4l-2-2h-1v-1h1v1h3v1 1h1l1-2v2h1v1h1v-2h1l1 1 1 1h-1v1h1l1 1-1 1-1 1v2l1-1v1h-1 1v-1 2h1v-3l1-1h1v1 2h1l1-1v-1h2v-1-1l-1-1 3 1v1 2l-1 1-1 1h-1v1l-1 1v1h-1v1l-1 1h1l2-1 4-4h2l1-1 1-1v1 1h-1l-1 1h-1v1l-1 1v1h1l1-1h2v3l-1 1-1 1h4l2-1h1l-1 1v1h-1 2v2h4l1 3h1v1 1l1 1v1l1 3v1 1h-1v1h-2v1l2 2v1l2 2h1l1-1h1l1 1 1 1 4 1v1h1l1 1h1l1-1v-1h-1l-1-1h-1v-1h-1v-1l-9-12-1-1v-1l-1-1-1-2-1-1h-1v-2z" fill="none" stroke="#000" stroke-linecap="round" stroke-linejoin="round" stroke-width="2"/></g><path d="m379 352-1 2-2-1h-3v1l-1 1v2-2l-1-1-5-4-1-2 2 1 1 1v1l7-1 2 1zm46-83v1 2h1l1 1v1h-1v2 5h1v1 1h-4v1 1l1 1v1 1 1l-1 1v1h4v1 1 1h1v1 1 1h1v1h-1v1l1 1v1h-1-1v-1l-1-1v1h-1v1 1l1 1h1l1 2v1 2 1 1l1 2v1h-1-1l-1 1h-1v1h-1-1v-1h-1v1l-1 3h-1v1 1h2l2 2 2 1v1 1l-1 1h-2v-1h-1v1 1 1h2v1h-3v1h-1l-3 1h-1v1h5v1-1 1h-1l-3 1v1h-5v-1h-1v-1h-1-3v-1h-1v1l-1 1h-2-1v-1l-1 1h-1-1v2h-1-4-1v1l-1 1v1h-1l-2 1-1-1h-1l-1 1h-3v1-2l-1-1v-2l1-2 1-1 1-2v-2l-1-1h-1l-1-1 1-2 1-1h-4l-1-1 2-2v-2l-1-1v-1h-1l-1-1v-1-2l-3-1v-2l-1 1v1l1 1 2 1h1v4h1v1h1l-1 1v2l-1 2 2 1h3l-2 1v3h2v-1l1 2-1 1v2h-1l-1 1-1 1-1 1v1l2 2v5 1h-1v1h-4l-4-2-2 1h-1v1l-1 1h-1v-1h-2l-1-1 1-1 2-4 1-1v-1l2-3h-1v1l-1 1h-1v1l-1 1h-1v-1l-1-1v-1h-1v2 1h1l1 1v1l-1 2-2 2v1h-1l-2 1h-2-1l-3-1v-5-1h-1v-5l-1-1-1-1v-1l-2-1v-1h-1v-2-1h2l1-1h1v1l1-1h3v-1h1v-2h1v-1-1l1-1v-1h-1-1v-1-1h-1v-1-1h-1l-1 1-1-1h-1-1v-1-1h1v-1h1v-1-1-1l-4 1h-1-1v-1h-4v-1l-1-1-2-6v-1l1-1v-2-1h1v-1-1l-1-1-1-1v-1h-2l1-1-1-1v-1l-2 1-1 1v1h-1v-2h-2l-1-1-1 1h-1-1-2v-1h-1l-1-1v-1h-1v-1l1-1v-1h-1v-1-1-1-1l-1-1h-1v-1h-1l-1-7-1-1v-1h-2v-1-1h1v-1-1h-1v-1l2-1h2v-1h-1v-1-1h2v-1h9l2 1v-1h1v-1l2-1h1l1 1h2v1h1v-1h1v-1h1v1 1h2v-1h2v-1-1h1l1-1h4l1 1h1v2h1v1h1v1 1l4 1 1-1h1v1h1l1-1h2l1 1v1l-1 1v1h1v-1-1h3v-1-1h1l1 1h1l1 1 2-1v1l1 1v1l-1 1-2 1 1 1 1 2 1 1h2v1 1l1 1v1 1l-1 1h1v1 1 1h4v-1h3v1h1l1 1v1h1v1h2v-1h1v-2l1-1 1-1h2v1h1l1 1h2l2 1h1l7-1v-1-1-1h1v-1-1l-1-1h1v-1h2v-1h-1-1v-1-1h1l1-1h3v1h1v-1h2v-1-1-1h3v-1h1v1 1l1 1v1 1z" fill="none" stroke="#000" stroke-linecap="round" stroke-linejoin="round" stroke-width="2"/><g clip-path="url(#a)"><path d="m439 3v2l-1 1v1 2h-1l-1 1v5h2v1h1l1 1v1h1v1h2v1h-1v1l-1 1h-1-1v-1h-1v3 1h-1 1v3l-2 1h-2l-1 1h-3v2h-1v1l-1 1-1 1-1 1v3l1 2v1l3 2-1 1v2h1v3l1 1h-1v1 1 1h1v1l-1 1-1-1h-1l1 2v1h-1v2l1 1h-1v1 2h-2-1v-1-1h-1v1 1 1l1 1h1v1 1 1 1 1 1l-1 1v1 1h-1l-2 1v2 1l-1 2 2 1h3v1l-1 1h1v1h3l1-2h1v1h1l-1 1v1h-1v1 1l1 1v4l-1 1h-1l-1 4v2l1 1v1h1v1 1h-1v1 2h-1v1 1 1l-1 2-1 3-1 3-1 1h-1v1h-1v1h-1v1h-1v1h-1v1h-1l-1 1h-1l-3 1h-2-7v-1-1h-1v-1h-1v1h-1-1v-1h-2l-2 2h-1v1l-1 1h-1-3l-2-1v-1h-1 1v-1-1h-1-1-1v-1-1-1h-1v-1-1h2v-3h-3v-1l-2-2-2-1v-1h-1l-1 1v1h-1v1 1h-1v1h-3l-1 1h-1v1h-1-1-3l-1 1-3-1h-2-1-1-1v-1-1-1h-1-1l-1-1v-1-1h1v-1-2-1h-1v-1h-1v-1-1h-1-1v-1-1h-1v-1l-1 1h-1-3l-1 1-2-1h-1v1h-1l-1-1h-2v-2l1-1v-2-1l-2-1-2-1h-1v-1-2l1-1v-1h-1v-1l-1-1h-1-1v-1h-1l-1 1v-1-6-4-1-2h1v-1-2h1v-2l2-1 1-1-1-2h1l-1-1v-2h-1v-1-2h1-1v-2-1h-1v-1l1-1h-2l-1-1 1-1-1-1v-1l1-1v-1h1v-1-3h2v-1-1l1-1-1-1 1-1h1v-2-1l1-1v-1h1v-1h1v-1h1l1-1v-1-1h2v-1h1v-1-1h1v-1 1h1l1-1-1-1h-1l1-1v-2h1l5-1 2 1h1l2 2h2v-1l1-2 1-1 3-1h3l7 1h8l1 1v3l1 1 1-1 2-1h1l3 1 6-3 1-1 2-3v-4l1-1h1v-2l-1-1v-3h2l3 1 2-1 8 4h5l1 1h2l4-4h2v-1h1l1-1 1-1 1-1 4 1h3z" fill="none" stroke="#000" stroke-linecap="round" stroke-linejoin="round" stroke-width="2"/></g><g fill="none" stroke="#000" stroke-linecap="round" stroke-linejoin="round" stroke-width="2"><path d="m216 56-1 1h-2v1l-1 1v1 1h1v1 1-1l-2-1v-1h-1v-1l-1 1v4l1 1v1h-1v1l-3 1 1 3h1v1l-1 1v1l-1 1h-1v2l-1 1v1 2h-1v1h-1v2h-1l-1 1h-1-1v2 1 1 1h1v1 1h-1v1h1v1 4 1 1 1l1 1v1 1l-1 3-1 1v2l-1 1h1v1h1v2l-2 1h-2v-1-1l-1-1-1 1v1h-1v1h-1l-1 1h-1v1h-1l-1-1h-1l-1 1-3 1v2h-2v1h-1v1 1h-1l-2 2v1 1l-2 1-1 1v1l-2 1v1h-1v1h-1-1-1-1l-1 1-2 3v1h-1l-2 1v-2l-1-1v-1-1h1v-1-1h-1v1l-2 1v-1l-3-1h-1l-1 1h-1l-1-1h-1l-1 1-4 4h-1l-4 1h-1l-1 1h-1v-1l-1 1-1 1-1-1h-2l-1-1-1 1v1 1h1v1 1h-1l-1 1v1 2-1h-1-1v1l-2-1-4-4-1-2v-1l1-2h-1v-1l-1-1h1l1-1v-1-2h-1v-1h-1l-1 1h-2l-1-1 3-2 1-1v-1h2v-1-1h-1l-1-2h-1v-1h-1v-1h1l1-1 1-1-1-1-1-1v-1h7v-1-1l-1-1v-1h4v-1h-1v-1-1-1h1v1h3l1-1h1l2-1 1-1h3l1 1 1 1v1h2l1 1v1h1l1-1v-2l1-1v-6l1-1 1-1h3v-1l-1-1v-1l1-1v-1h1v-1h-1v-1h-1v-1l1-1h3v-1h1v-1l-1-1v-1l-1-1v-1h-1v-1h-1v1h-1-1v-1-2l3-1h1v-2-1l-2-2-3-2v-1l-1-1h-1v-1h-1v-1l-1-1-1-1h1v-3l-1 1h-1-1v-1h-1v1h-1-1-1-1v1h-1v1h-1v-1-3-1-3-2h-1v-1l1-1v-1l1-1v-1-1h-1v-1h-1-1v-1-5-1l2-3 2-1v-1l1-1v-1-1-1-1l1-1h-4l-1-2 6 1 3-1 8 1h3l1 1 3 2h1l9 1v2h1v1h9l7 3 3 1 4-2h3l2 1h1v6h4v1l-1 2v1h7l1-2h2l4 2h3v3zm-50 181 1-1h3l1 1 1 2v1h1l1 1h1v-4l1 1h3l-1-1-1-1h-1l-1-1 1-1 2 1v1h1l1-1v-1l-1-1v-1l1 1v1l1 1 1-1v-1l-1-1h1v-1l1 1v2l1 1h2v-1l1-1h3l1 1h4v-1h2l1 1h2v-1-1h-1v-1h3v1h1v-1h1v-1l2 1 1 1 1 1v2l1 4h1l-1 2-3 2h-1l-1-1h-2l-3 3-1 1h-1l-4-2h-2v1 1h-1-1l-1 1-2-1-1-1-1-1h-1v1h-1l-1 1v1l1 1v2h-2l-1-1-1-1h-1v1l-1 1-1 1v1l-1 1-5 1h-3l-2 1h-1l-1 2 1 1-1 2v2l-1 1h-1l-1 1v1l-1 2v1h-6l-2 1h-3l-1 1h-2l-3 1-19 2-1 1-4 6-2 2-2 1-4 1v-3l2-4v-1-4l-1-1-1-1v-3-1l2-3 1-2 1-1h1l2-3h1v-1h1-1v-1-1l1-1h1v-1h1l3-5 3-2 2-1h1l2-1 1 1h3v-2l1-5v-1l-2-3v-2-1-1h1v-1l2-1v1h3v2h2v-1l1-1 1 1 1 1v1h1v1l2 1h1v-1l1-1h2v-2h1v5l1 1h2l-1-1v-2-1h1l1 1v3l1 1h3l1 1h3z"/><path d="m101 179 3 5v1l1 2v1 1 1 1l1 1v1h1v1 1 1 1h-1v1 1h1v1h-1v1h1v1h1v-1h2l1 1v1 1h1v1h-1-2-1v1l2 1v1l1 1v1h4l2 1v1 2l1 2h1v-2l1-1 1-1h1v1h-1v5l1-1h1l2 1h-1l-2 1-1 1 1 2 1-1 2-2h1v-1-1h3v-1h1v2h-1l1 1h1l1 1h1l1 1 1 1h2v2l-1 1h1v1 1l-2 1v1h-1v1 1 2l2 3v1l-1 5v2h-1-2l-1-1-2 1h-1l-2 1-3 2-3 5h-1v1h-1l-1 1v1 1h1-1v1h-1l-2 3h-1l-1 1-1 2-2 3v1 3l1 1 1 1v4 1l-2 4v3h-1l-1-1-1-1-1-2v-1l-1-1-3-1-1-1h-1v-2l-1-1v-1h-1l-2-1v-1l1-2v-1l2-3-1-2-3-3-1-1v-1l1-1v-1l-1-2v-1h-1l-2-3h-1v-1h-1v-1h-2v-1-1h-1v-1 1h-1v1h-1l-1 1h-1l-1-1h-1v-1h-1v-3-2h1v-1h-1v-1-1-1h-1l-1 1-1 1h-3v1h-1v1h-1v-1h-1v-1h1v-1-1h-1v-1h-1v-1h-1l-2-2-1-1 1-1h-1v-1h-1-1-1-1l-2-3-2-1h-1l2-7h-1v-1-1l-1-1 1-1 1-4v-1l1-1h1v-1l1-1 1-3 1-1h1v-1l4 1h3l1-1h3l2-1h3l2-1h3l1-1 2-1h1v1l1-1h1v-1-1l-1-1v1l-1-1h-1v-2-1-1h-1l-1 1h-1v-1l1-1h3v-1l1-1 1-1h-1l-1-1v-1l1-2 1-1-1-1v-1l1-1v-1h1l1 1 3-1h2l1 1v1h2zm96-64 1 1 1 1h1v1 1h2l-1 1h-1v1l-1 3v1h1l1 1 1 1v1l2 1 1 1h1v1h-1l1 1v-1l1 1 1 1h1v1 1h3v-2h2v1 2 1h1v1 1 1h-1l1 1v1h-1v1 1h1v1h1v1 1h-1-1v1h-1-2l1 2v1h1-1v1h-1v2h2v1 1 1l1 1 1 1v1h1l8 3-1 1h-1v1h1-1v1h-1-1l-1 1v1l1 1h1v1h1v1h-1l-1 3v1l1 1h-1v1h-1-1v2l1 1h1l-1 1v1l1 1h3v1 1h-2v1l1 1v1h1v1 1 1h1v1 1h-1v1 1h1v1 2l1 1h-1-2l-1 1-1 1h-1l-1-1h-1-1l-1-1h-1-1v2h-1-3v1l-1 1v1h-1v1 1h-1v1h-1v1 1 1 1 1h-1l1 1v3l1 3v2 1h-1v2h1l-1 1v2l-1 3-1 1v1h-1v-1h-3v1h1v1 1h-1-1l-1-1h-2v1h-4l-1-1h-3l-1 1v1h-2l-1-1v-2l-1-1v1h-1l1 1v1l-1 1-1-1v-1l-1-1v1l1 1v1l-1 1h-1v-1l-2-1-1 1 1 1h1l1 1 1 1h-3l-1-1v4h-1l-1-1h-1v-1l-1-2-1-1h-3l-1 1-1-2v-1-1h-1l-1-1v-1-1-1 1h-1v-1-1h-1-1v-1-1-2h1v-1l-1-1v-1-1h1v-1h-1l-1-1v-3h1v-1h-1-1l1-1v-1l-1-1 1-1v-1l1-1h-1v-1-1-1h1v-1-1l-1-1v-1-1h1v-1h-1v-1-3-1h2v-2-1-1h-1v-1-3-2h-1v-1h-1v-3l-1-1v-1-1-1l1-1h1v-1-2l1-1v-1h1v-1-1l-2-1v-1-1h1v-1-2-1l-1-1h-1v-1-1-2-1h-1v-1-1-1-2h1l2-1v-1-1h-1v-1h1v-1-1h-1v-1h2v-1h1v-1h-1v-1h-2v-1h1l2-1h1v-1l2-3 1-1h4v-1h1v-1l2-1v-1l1-1 2-1v-1-1l2-1v-1h1v-1-1h1v-1h2v-2l3-1 1-1h1l1 1h1v-1h1v-1h2v-1h1v-1l1-1 1 1v1 1z"/><path d="m114 130 1 1h2l1-1h1v1h1v2 1l-1 1h-1l1 1v1h1l-1 2v2l1 1 4 4 2 1v1h1v1h1v1l1 1v1h-1l-1 1v1 1 1h-1-1v1h-1-1l-1 1h-1l-3 1h-2l-1 1v2l1 1v1 1l-1 1h-1l-1-1v1l-1 1v1l-1 1-1 2-7 4h-1-1v4h-1-1v-1 1h-1v-1l-1-1h-1-1l-3 1-1-1h-1v1l-1 1v1l1 1-1 1-1 2v1l1 1h1l-1 1-1 1v1h-1-1-1l-1 1v1h1l1-1h1v1 1 2h1l1 1v-1l1 1v1 1h-1l-1 1v-1h-1l-2 1-1 1h-3l-2 1h-3l-2 1h-1-2l-1 1h-3l-3-1-1 1h-1l-1 1-1 3-1 1v1h-1l-1 1v1l-1 4-1 1 1 1v1 1h1l-2 7-1-1h-3-2v-1-1h-1-1v1h-1v-1-1h-1v1h-3v-1h-1l-1-2-1-2v-1h-1-1l-2 1h-1-1v-1-1l-2-1-1-1v-1-2-1-1l-1-1-1-1v-3l-2-1-1-1-1-1-1-1v-1l-1 1v-1l1-1v-2l1-2v-1l-1-6v-1l-1-1v-1l-1-1v-3l-1-2 1-3 3-4 1-2 1-1h1l3-5v-1h1l1-1v-1l2-2 4-6 2-2 1-1 1-2 9-10 2-1 2-2h1l3-4 1-1v-1l1-1v-1h2l7-1h2l1-2v-4l3-1 1-1v-1-1l-1-3 1-1 1-1h1l1 1v1h1v1h1v1h2v-1h2v-1h1l1 1h1v1 1l1 1h3l1 1v1 1h-1v1h-2v1l1 1 1 1v1 1l1-1v-1h1l1 1h2v1l2 1v1 1h9v-1h1l1 1h3l1 1v1z"/><path d="m160 139h-1v1h2v1h1v1h-1v1h-2v1h1v1 1h-1v1h1v1 1l-2 1h-1v2 1 1 1h1v1 2 1l1 1 1 1v1 2 1h-1v1 1l2 1v1 1h-1v1l-1 1v2 1h-1l-1 1v1 1 1l1 1v3h1l1 1v1 4 1h1v1 1 2h-1-1v1 3 1h1v1h-1v1 1l1 1v1 1h-1v1 2h1l-1 1v1l-1 1 1 1v1l-1 1h2v1h-1v3l1 1h1v1h-1v1 1l1 1v1h-1v2 1l1 1h1v1 1h1v-1 1 1 1h1v1h1v1 1l1 2h-4l-1-1h-3l-1-1v-3l-1-1h-1v1 2l1 1h-2l-1-1v-5h-1v2h-2l-1 1v1h-1l-2-1v-1h-1v-1l-1-1-1-1h-1v2h-1-1v-2h-3v-1-2h-1l1-1v-2h-2l-1-1-1-1h-1l-1-1h-1l-1-1h1v-2h-1v1h-1-1-1v1 1h-1l-2 2-1 1-1-2 1-1 2-1h1l-2-1h-1l-1 1v-5h1v-1h-1l-1 1-1 1v2h-1l-1-2v-2-1l-2-1h-3-1v-1l-1-1v-1l-2-1v-1h4v-1h-1v-1-1-1h-2-1v1h-1v-1h-1v-1h1v-1h-1v-1-1h1v-1-1-1-1h-1v-1l-1-1v-1-1-1-1l-1-2v-1l-3-5v-4h2l7-4 1-2 1-1v-1l1-1v-1l1 1h1l1-1v-1-1l-1-1v-2l1-1h2l3-1h1l1-1h2v-1h2v-1-1-1l1-1h1v-1l-1-1v-1h-1v-1h-1v-1-1h2v1-2-1l1-1h1v-1-1h-1v-1-1l1-1 1 1h2l1 1 1-1 1-1v1h1l1-1h1l4-1h1l4-4 1-1h1l1 1h1l1-1h1l3 1v1l2-1v-1h1v1 1h-1v1 1l1 1z"/></g><g clip-path="url(#a)"><path d="m29 208h1v1 3 1l1 1 2 1v1 1h2l2-1h2v1l1 2 1 2h1v1h3v-1h1v1 1h1v-1h1v1h1v1h2v1l2-1h1l1 1h1l2 1 2 3h4v1h1v1h-1l1 1 2 2 1 1h1v1h1v1 1h-1v1h1v1h1l1-1v-1h3l1-1 1-1h1v2 1h1v1h-1v2 3h1v1h1l1 1h2v-1h1v-1h1v-1 1h1v1 1h2v1h1v1h1l2 3h1v1l1 2v1l-1 1v1l1 1 3 3 1 2-2 3v1l-1 2v1l-1-1h-6l-1 2h-2l-3 1h-1l-2-1h-1l-1-1-1-1h-2l-1-1h-1l-4 2h-1v-1l-2-2h-4l-2-1h-5v1h-1v1h-1l-2-1h-1-1l-1-1-2-2-1-2h-1l-3-1v-1l-1 1-1 1-1 3v1l-2 1h-1-1l-1-1h-1v3h-2l-1-1v-1-1l1-1v-1l-1-1v-1l-2-1-1-1-1-1v1h-5v1-1l-1-1-1-2v-1l-3-4h-1-2-1-1l-2-3v-3-1h-2v-1l1-1-2-1h-2l-1 1-1-1v-4l1-1v-1l-1-2 1-1v-1l3-2v-2h1l1-1h1v-1l1-1v-4h1v-1-3l1-1v-1h1v-1-1l1-1 1-3v-1h2v-1l1-2v-2l1-1 1 1 1 1 1 1h5l1 1 1 1h1v1z" fill="none" stroke="#000" stroke-linecap="round" stroke-linejoin="round" stroke-width="2"/></g><g fill="none" stroke="#000" stroke-linecap="round" stroke-linejoin="round" stroke-width="2"><path d="m133 29 1 2h4l-1 1v1 1 1 1l-1 1v1l-2 1-2 3v1 5 1h2v1h1v1 1l-1 1v1l-1 1v1h1v2 3 1 3 1h1v-1h1v-1h4v-1h1v1h2l1-1v2l-1 1v1h1l1 1v1h1v1h1l1 1v1l3 2 2 2v1 2h-1l-3 1v2 1h2v-1h1v1h1v1l1 1v1l1 1v1h-1v1h-3l-1 1v1h1v1h1v1h-1v1l-1 1v1l1 1v1h-1-1-1l-1 1-1 1v6l-1 1v2l-1 1h-1v-1l-1-1h-2v-1l-1-1-1-1h-3l-1 1-2 1h-1l-1 1h-1-2v-1h-1v1 1 1h1v1h-4v1l1 1v1 1h-1-5-1v1l1 1 1 1-1 1-1 1h-1v1h1v1h1l1 2h1v1 1h-1-1v1l-1 1-3 2 1-1v-1l-1-1h-3l-1-1h-1v1h-4-1-3-1v-1-1l-2-1v-1h-2l-1-1h-1v1l-1 1v-1-1l-1-1-1-1v-1h2v-1h1v-1-1l-1-1h-1-2l-1-1v-1-1h-1l-1-1h-1v1h-2v1h-1-1v-1h-1v-1h-1v-1l-1-1h-1l-1 1-1-3v-2l-1-1h-1v-3h-2l-1-1v-1l1-1 1-1h1l1 1 1-1h2l1-1-1-1-3-2-3-2v-1l-1-1v-2h-1v-1l-1-3v-1l-1-1-1-2h1v-1l-2-2-2-1-1-1-2-5-1-1h-1v-3l1-1h1l-1-1 1-1v-1l-2-2v-1l1-1h-1v-1h-1v-1l1-1v-1l-2-3v-1l1-1h1l3-1h1l3 1h3l1 2 1 1 1-1 6-5 5-3 1-1 1-4v-2l2-2v-1h1l10-1 2 1h1l11-2 4-2h3l7 1zm254 105h2v1l1 1v1l1 1h1l1 1h1l1-1v1 1l-1 1v3h1v1h2l2 4h1l1 1v1 2 2h-1-1v1l2 3v1h2l1 1v1l1-1 2 1v1 1 2l5 2v3l1 1h1v3 1h-1v1l-2 2v1 1h1v1l2 2 1 4 1 1v1l-1 3v2l-1 2v1h1v2l1 1v3l1 2v1h1v1l-2 2h-1-1-1l-1-1h-1v1h-1v1h-1v1h-1v-1h-1-1v1 1h-1v-1-1l-1-1-1-2-1-1v-2l-1 1h-2v-1l-1-1v-1h-1l-1 1v1h-1-1v1l-1 1-1 1v1h-2v1 1 1 1l-1 1h-1v-1h-2-1l-2 1h-1v1l-1 1-1 1v-1h-1v-2l-2-1-3-1h-2v1h-1-4l-1 1v3 1 1h-1l-1 1v1 1l-1 1h-1l-1 1h-1-1v1l-1-1v-1h-1-1-3l-2 1h-3-1l-1-1h-2-3-2-1v-1h-1-1-1-1l-1 1-1 1-1 1h-1l1 1-1 2v1l-2 1v1h1v1 2h-1l-2 1h-1v-1h-2-1v1 1l-5 3h-1-1v-1h-1l-2 1-1 1v1l-1-1h-1v-1h-1l-2 1h-1v-1h1v-1l1-1 1-1-1-1v-1l-1-1v-1l-1-1v-2-1h-2l-1-1v-1h-1v-1h1v-1-1h-1v-1h-3v-1l-1-3v-1h-2v-1-1h1v-1-1h-1-1v-1h-1v-1-1l1-1v-1l-1-1h-1-1v-1-1h1v-1l1-1h1v-2h1v-1-1-1h1l-1-1-1-1 1-1h1l1 1h-1v1h1v1h5v-1-1h1v-1-1h1v-1h3v-1h1v-1h2v1h1v-1-1h1v-1h2l-1 1v1h1l6 2h1v1h1l1-3v-1-2h1v-1h1v1l1 1 2-1h1l1 1v-1l1-1h3v2h2l1-1h1v-1h1v1h1v-1h1l1 1v-1h1v-2l1-1v-1h1v-1h1l1-1v-1l2-1v-1l1-1v-1l2-1v-1-1h-1v-1-1l1-1v-2h1l-1-1v-1h1v-3-1-2-1-1l1-1h2l3-2v-1h4v1h1v1 1h1v1-1h1v-1 1h2v-1-1h1v-1 1 2h1l3 1 1-1v-1h1v-1l1-1h-1l1-1 1-1v-1-3h1l1-1h1v-1l-1-1v-1-1-1l2-1v-1-1h2l1-1v-1-1-1-1-1h3z"/><path d="m459 216-1 2v1 1h-1v1h-1v1 1l-1-1v-1-1 1h-1v-1h-1-1v1h-1l-1-1h-1l-1 1h-1v-1h-1v1l-1 1v1h1v1h1v1h3v1h3v1h1l1 1h1-1v1h-1l-2 2-4 2h-1l-1 1-4 1-1 1v1 1h1v1l1 2-1 1v1h1v1 5h1v1 3h-1v1h-1v1h-1l-1 1v1h-1-1v-1h-1v1l-2 2v1l-1 1v-1-1-2h-1v2h-1v1l1 1h-1v1h-3v1h-1v1h-1v1h-1v1l-1 1v2h-1v-2l-1-1v-1-1h-1v1h-2-1v1 1 1h-2v1h-1v-1h-1-2l-1 1h-1v1 1h2v1h-1-1v1h-1l1 1v1 1h-1v1 1 1l-7 1-3-1h-1-1l-1-1h-1v-1h-1l-1 1h-1l-1 1v2h-1v1h-1-1v-1h-1v-1l-1-1h-1v-1h-2-1v1h-4v-1-2h-1l1-1v-1h1l-1-1-1-1v-1-1h-2l-1-1-1-2-1-1 2-1 1-1v-1l-1-1v-1l-2 1-1-1h-1l-1-1h-1v1 1h-1-1-1v1 1h-1v-1l1-1v-1-1h-3l-1 1h-1v-1h-1l-1 1-3-1h-1v-1-1h-1v-1h-1v-2h-1l-1-1h-4l-1 1h-1v1 1h-2v1h-1-1v-1-1h-1v1h-1v1h-1v-1h-1-1l-1-1h-1l-2 1v1h-1v1l-2-1h-2-7v1h-10l-1-1-1-1-1-2v-1h-1v1h-1l-1-1-1 1v1h-1v1-1l-1-1h-1-2v-1h1l-1-1v-1h-1v-1-1l1-1v-1-1-1l2-1 1-1v-1l1-1h2l-1 1h1v2h1l1-1 1-1v-1h2l1-2 1 1v-1l1-1 2-1h1v1h2l5-3v-1-1h3v1h1l2-1h1v-2-1h-1v-1l2-1v-1l1-1v-1l-1-1h1l1-1 1-1 1-1h4v1h8l1 1h4l2-1h5v1l1 1v-1h2l1-1h1l1-1v-1-1l1-1h1v-1-1-3l1-1h5v-1h2l3 1 2 1v2h1v1l1-1 1-1v-1h1l2-1h3v1h1l1-1v-1-1-1-1h2v-1l1-1 1-1v-1h2v-1l1-1h1v1l1 1v1h2l1-1v2l1 1 1 2 1 1v1 1h1v-1-1h2v1h1v-1h1v-1h1v-1h1l1 1h1v1h1v-1h1l2-2v-1h-1v-1l-1-2v-3l-1-1v-2h-1v-1l1-2v-2l10 4 4 4h1v1l1 1v1h4v1h1l1 1v1h-1v1h-1v1h1l1 1v1h1v1h1v-1h1l1 1h1v1h2v1h2v-1h1l1 1h1v1l1 1v-2h2v-1h2l1 1h3v1h1zm-131-144v1h-1v2 1 4 6h2v1h2l1 1v1h1v1l-1 1v2 1h1l2 1 2 1v1 2l-1 1v2h2l1 1h1v-1h1l2 1 1-1h4v-1h1v1h1v1 1h2v1 1h1v1h1v1 1 1 1h-1v1 1l1 1h2v1 1 1h5l3 1v-1h6v-1h1l1-1 1-1 1 1h1v-1l1-1v-1h1v-1l1-1h1v1l2 1 2 2v1h3v3h-2v1 1h1v1 1 1h3v1 1h-1 1v1l2 1-1 3-1 1 1 1h-1l-1 2v-1h-1-1-1v1 1 1 1 1l-1 1h-1-1v1 1l-2 1v1 1 1l1 1v1h-1l-1 1h-1v3 1l-1 1-1 1h1l-1 1v1h-1v1l-1 1-3-1h-1v-2-1 1h-1v1 1h-1-1v-1 1h-1v1-1h-1v-1-1h-1v-1h-1-1-2v1l-3 2h-2l-1 1v1 1 2 1 3h-1v1l1 1h-1v2l-1 1v1 1h1v1 1l-2 1v1l-1 1v1l-2 1v1l-1 1h-1v1h-1v1l-1 1v2h-1v1l-1-1h-1v1h-1v-1h-1v1h-1l-1 1h-1-1v-2h-1-1-1l-1 1v1l-1-1h-1l-2 1-1-1v-1h-1v1h-1v2 1l-1 3h-1v-1h-1l-6-2h-1v-1l1-1h-1-1v1h-1v1 1h-1v-1h-1-1v1h-1v1h-2-1v1h-1v1 1h-1v1 1h-5v-1h-1v-1h1l-1-1h-1v-1h-1-1v-1h-1v-1l-1-2h-2v-1h-1v-1l-1-2v-1h1l2-1v-3l-1-2v-1h1v-1-1l-2-1h-1v-1-1-1l1-1v-1h-1l-2-1v-1h1l1-1v-1h-1-1-1v-1h1v-1-2-1-1h2v-1h1l1-1h2v-1h1v-1h1v-1h1v-1h1l1-1v-1-1l-2-3v-1-1h1l-1-2v-1-1h2v-1-1-2h-1v-1-5h-1v-1l-1-2h-1l-1-1v-2l-1-2v-1h-1v-1h-2l-2 1h-1v-1h2v-1h-1v-1h2v-2-1h-1v-1h1v-1l1-1v-1h-1v-1h-1 1v-2l1-2h1v-1h1v-1h1v-1l-1-2v-2h-1-2v-1l1-4v-1h-1l-1-1-2-4h-1v-2h2v1h1v-1-3l1-1v-1-1h-1-1v-1h-1v-1l-1-1-1-1h-1l-1 2v-1-1l-1-3-1-3h2v-1l1-1h1v-1l1-1v-4h-1l1-1 1-1 1 1h1l1-1v-1l1-1v-1h2l1-1v-1h1l1-1h1l1 1 1 1v1l1 1h4l1-2h1v1l1-1 2-1h8l1 1 1 2h1l2 1v1l1 1v1l-1 2 2 2 1 1h2l1 2h2v1zm12 41-1-4-1-1-2-1-1 1v2l-1 1h-1l-1 2h-4v2l-1-1-1-1-1-1v-2h-1v-2h-4v1l-3 1 1 1v1l-1-1v3h-1l-1 1v4 2l-1 1v3h1l1-2h3l1 3 1 1 1 1 1 2v2h1v2l1 1v1h1l1 1v2h1v3l1 1v2l1 2 2-1v-1l-1-3v-1h1v-4l-2-4h1l-1-1h3l1 1 1-1v-3l1 2 2-1v-2h1l1-1-1-1v-1l-3-4v-2l1-1-1-1v-1l1-1 1-1z"/><path d="m299 403-3 1 2-1h1v-1l1-1h1l1-1 1-1h1l6-6 2-1-9 8zm19-144v1 1h1v1h-1-1l-2 1v1h1v1 1h-1v1 1h2v1l1 1 1 7h1v1h1l1 1v1 1 1 1h1v1l-1 1v1h1v1l1 1h1v1h4l1-1 1 1h2v2h1v-1l1-1 2-1v1l1 1-1 1h2v1l1 1 1 1v1 1h-1v1 2l-1 1v1l2 6 1 1v1h4v1h2l4-1v1 1 1h-1v1h-1v1 1h2v1h1l1-1h1v1 1h1v1 1h2v1l-1 1v1 1h-1v2h-1v1h-1-2l-1 1v-1h-1l-1 1h-2v1 1l1 1v1l2 1v1h1v1l1 1v5h1v1l-1 1v1l1 3h-1l-2 1h-5v1h-1-1l-2 2h-3l-2 2v1l1 1v2h1l-1 1v2l-2 2v1h-3l1 1h1v1l-1 1-1 2-3 4v1l-1 1h-1v1l-1 2v1l-5 4-4 6-2 2-3 2v-4l-1 1v3 1h-1v-1l-1 1-2-2h-1l-1 1v3l-1-1v-1 2 1 2-1l-1-1h-1-2l-1 1v2h1l1 1 1 1h-1l-1 1h-1-1l1 1h-2l-1 1v-3l-1-1-1-1h1l-1-3 1-1v-1h-1v-1h-1v-1l-1 1h1v1 1l-1 1v2l1 1-2 1v7l1 1h2v-1l1-1v1l-1 2h-1l-1 1v1h-1v1l1 1 1 1v-1-1h1v1h1l1 1v-2h1v3h-1l1 1v5 1l-1 2v1l-1 1h-1v-1-4l-1-2-1-1-2-2-5-2h-4l-1-1v1h-1v1h-1l-1-1v1h-2v1l-1 1h-1l-1 1h-2l-1 2h-2-1v2l-1 1-1-1v-1h-2l-1-1h-1v2h-1l-1 1h1v1h1v1h-4l-5-1-3-1-3-1-2-1-1-1-1-1-1-3v-1l-1-1-1-1h-1v-1-1l2-2h3l3 1h3l1-1-1-2h1v-1h1l-1-1v-1-1l-1-1-1-1h1v-1l1-1h1l1-1v-2l3-1h1v-1-1l1-1h1l1-1v-2l-1-2v-1l1-1 7-2 1-1v-3l-1-2h1l1-2 1-2v-2l-2-2-1-1v-1l1-1v-2l-1-2v-4l1-1 3-2 2-1 3-2h1l1 1v6 1l-1 1v1h1l2-2h1v-1-2l1-1 1 2 1 1 2-3h1l1-1h1v1l-1 1v1h1v1h2v1l1 1 1 1h1l1-1v-2h1l1-1 1-1v-1 1l2 2 1 1v2l1 1h1l1-1 1-1h1l4 1 2-1 1-1 1-1-1-1h-1v1l-1-1-2-2h1l-1-1v-1h-1v1h-1v-1l-2-1v-2h1l1-1v-1l-1-1v-1-1l1-1v-5l-1-1v-2-1l-1 1h-1v-2l-1-1h-4l-1-1v-1l-1-1h-3v-1h-1v-1l-1 1v-5l1-1v-3h-2v1h-1l-1-2-1-1h2l1-1v-6h1v-4l-1-1-1-1h-1l-1 1v2l-1 1h-1l-1-1-1-1v-2l-1-1-1-1h-1v-1-1l-1-1-1-1h-1l-1 1h-1v-1l-1-2v-1l-1-2 1-1 1-2 1-1v-7l2-1v-1l-1-1h-1v-1-1l1-1v-1l1-1v-1h-2v-1h-1v-3l-1-1v-1h-2l-1 1-2 2h-2l-1-1-2-2-1-1 1-1 3-1 1-1h1v-1h1l1-1v-1l-1-1v-1h3l1 1h1v1l2 1h5l4-2 1 1 1 1h7l1-2v-1l-1-1v-1-1l1 1 1-1 2-1h3l1 1v1-1h1v-1l1-1 1 1h1v-1h1v1l1 2 1 1 1 1zm-6 101-1 1v1 1l1 1 2 3 1 1h1l3 1 1 1 1 2 2 4 1 1 1-1 1-1v-1-1h-1l-2-3v-2-1l-1-1-2-1v-2l-1-1v-2 2l-1 1v1h-1v-1l-1-1v-2-1h-1z"/><path d="m285 169 2 1h1v1l-1 1v1 1 1h1l2 1v1 1h-1v1l1 2v2 1l-2 1h-1v1l1 2v1h1v1h2l1 2v1h1v1h2v1l-1 1 1 1 1 1h-1v1 1 1h-1v2h-1l-1 1v1h-1v1 1h2l1 1v1l-1 1v1 1h1v1h2v1 1h-1v1 1h2v1l1 3v1h3v1h1v1 1h-1v1h1v1l1 1h2v1 2l1 1v1l1 1v1l1 1-1 1-1 1v1h-1v1h1l2-1h1v1h1l-1 2h-2v1l-1 1-1 1h-1v-2h-1l1-1h-1-1l-1 1v1l-1 1-1 1h-1v1 1 1l-1 1v1 1h1v1h1l-1 1v1l-2 1-1 1-1-1v1 1l1 1v1l-1 2h-1-6l-1-1-1-1-4 2h-4-1l-2-1v-1h-1l-1-1h-1-1-1v1l1 1v1l-1 1h-1v1h-1l-1 1-3 1-1 1v-1h-1v-2l-1-2v-1l-1-1h-4l-4-2h-2l-1 2v3h-1l-1-1-1-2 1-1v-1l-1-1h-1l-1 1v1h-1v1l-1-1v-1l1-1 1-1v-3h-3v1h-1l-1 1h-1l-1-1v-2h-1l-1 1h-2l1-3-1-1-1-1h-3l-2-1-1-1-1-2-1-1-3-2h-6v-1l-1-1h-4l-1-4v-2l-1-1-1-1-2-1 1-3v-1l1-2h-1v-2h1v-1-2l-1-3v-3l-1-1h1v-1-1-1-1-1h1v-1h1v-1-1h1v-1l1-1v-1h4v-2h2l1 1h2l1 1h1l1-1 1-1h3l-1-1v-2-1h-1v-1-1h1v-1-1h-1v-1-1-1h-1v-1l-1-1v-1h2v-1-1h-1-3v-1-1l1-1h-1l-1-1v-1-1h2v-1h1l-1-1v-1l1-3h1v-1h-1v-1h-1l-1-1v-1l1-1h2v-1h1-1v-1h1l1-1 3-1 3 1h1l3-1h4l1-1h1l2 1h2v-1l1-1h4l1 1h2l1-1h1l3 1v-1l1-1v-1h1l1-1h1v-1-1l3 1v1h1v1 1 2h1v1l1 1 1 1-2 3v1l1 1v1l1 1-1 1v1h3l3 1 4-1h1v-1h1l2-1h1l2-1v-1z"/><path d="m282 64h1v4l-1 1v1h-1l-1 1v1h-1-1l1 3v3l1 1v1-1l1-1h1l1 1 1 1v1h1v1h2v1 1l-1 1v3 1h-1v-1h-2v2h1l2 4 1 1h1v1l-1 4v1h3v2l1 2v1h-1v1h-1l-1 1-1 2v2h-1 1v1h1v1l-1 1v1h-1v1h1v1 2h-1-1v1h1v1h-1-1v1h1l2-1h2v1h1v1l1 2v2l1 1h1l1 2 1 1v5 1h1v2 1 1h-2v1 3 1 1l2 3v1 1l-1 1h-1v1h-1v1h-1v1h-1v1h-2l-1 1h-1v1h-1-1v1 1 2 1h-1v1h3v1l-1 1h-1v1h-1v1l-2 1h-1l-2 1h-1v1h-10-1v-1l1-1-1-1v-1l-1-1v-1l2-3-1-1-1-1v-1-1l-1-1v-1-1h-1v-1l-3-1v1 1h-1l-1 1h-1v1l-1 1v1l-3-1h-1v1h-2-1l-1-1h-4l-1 1v1h-1-1l-2-1h-1l-1 1h-4l-3 1h-1l-3-1-3 1-8-3h-1v-1-1l-2-1v-1-1-1h-2v-2h1v-1h1-1v-1l-1-2h3v-1h2v-1-1l-1-1h-1v-1-1h1v-1l-1-1h1v-1-1-1h-1v-1-2-1h-1-1v2h-1-2v-1-1h-1l-1-1-1-1v1-1h-1 1v-1h-1l-1-1-2-1v-1l-1-1-1-1h-1v-1l1-3v-1h2v-1h-1-1v-1-1h-1l-1-1-1-1 2-1v-2h-1v-1h-1l1-1v-2l1-1 1-3 1-1h-1v-1l-1-1v-1-1-1-4-1h-1v-1h1v-1-1h-1v-1-1-1-2h3v-1h1v-2h1v-1h1v-2-1l1-1v-2h1l1-1v-1l1-1v-1h-1l-1-3 3-1v-1h1v-1l-1-1v-4l1-1v1h1v1l2 1v1-1-1h-1v-1-1l1-1v-1h2l1-1v1h1v1h2l2-3v-2-2l1-2h2l2 3h6l1-1 2-2v-2h1l1-1h1v1l1 1v1 1l1 1h1v1l1 2h1l1-1 2-1 1-1h1l3 1h1l1 1v5l1 1v1h1l1-1 1 1v2l1-1v-4l1-2 1-1 1-1 1-1h4l1-1h1l1-2 1-1h3l1 1 1 3 1 2 1 1v1l-1 2 1 1 1 1 1 1v3z"/></g><g clip-path="url(#a)"><path d="m529 127-1 1v1h-1-1l-1-1-1 1h-3v1l-3-2h-1v2l-1 1v-1h-1-1l-1 1h1v1h-1l-1-1v1h-1v1 1h-2-1l-1-1-1 1v1h-1v1l-1-1v1h-1v1 1h-1l-1-1h-1v1l-1 1h-6l-1 1h-1v-1h-1v1h-1v1h-6-1l-1 1v-1-1h-1v-1l1-1h1v-1-1l-2-1v-1-1h-1v-1h-1-1v-3-1-1-1l-2-1-1-2-1-1v-1h-1v-5l-1-1h-1v1h-1v1h-1-1v1h-1-1v1 1h-1l-3-2-1-1-1-1h-2l-2 1v1l1 1h-2l-1 1h-1l-3-1-12-3h-1l-1-1h-1-1l-1 1v1h-1l-4-1-1-1 1-3 1-2v-1-1-1h1v-2-1h1v-1-1h-1v-1l-1-1v-2l1-4h1l1-1v-4l-1-1v-1-1h1v-1l1-1h-1v-1h-1l-1 2v1l-2-1h-1v-1h-1l1-1v-1h-3l-1-1h-1l1-2v-1-2l2-1h1v-1-1l1-1v-1-1l1-1h-1v-1-1-1h-1l-1-1v-1-1-1l1 1v1h3v-1-1-1h1l-1-1v-2h1v-1l-1-2h1l1 1 1-1v-1h-1v-1-1-1h1l-1-1v-3h-1v-2h1v-1l-3-2v-1-2h-1v-3l1-1 1-1 1-1v-1h1v-1l1-1h2l1-1h2l2-1v-3h-1 1v-1-3h1v1h2l1-1v-1h1v-1h-2v-1h-1v-1l-1-1h-1v-1h-2v-5l1-1h1v-2-1l1-1v-2h2v-1h1l1 1v2l1 1 3-3 3-1 2-1 2 1h1v1h1v2h1l2 1v1l1 3h1l2 2 1 1 1 1v2 2 4l1 2 1 1v1l-1 1v1h3l2 2v1h1v1h2l1 2h1l2 2 1 3v2l-2 2h-3l-6 2h-2v3h2v2l1 1 1 2 1 1v5 1 1l-1 1v1l1 1h1l1 1 1-1 1 2-1 2-2 2-2 2 3 1h1l2-2h2l3 1 2 1 2-1 1 1h1v2l1 1 1 1h3l2-1 4-1 1-1h2v1l1-1h3v2l1 5 1 2 1 2h2l2-1h2l1 1v2h-1l-2 1h1v2 1h1l1 1v3l1 2v3h1l1 1 1 1v4l1 2-3 1-1 1 2 8 1 1 1 1h2l1 1v3l1 1 1 1v1h1l1 1h1v-1z" fill="none" stroke="#000" stroke-linecap="round" stroke-linejoin="round" stroke-width="2"/></g><path d="m501 198 1 1h6l1 1 1 1v1l3 2v1h1l1 1 1 1 2 1 1 1v1h6v1h6l1 1h2v-1h1l2-1h2l1 1v1 1l1 1v1l-1 1h-1v1h2l1 1h1v1h1v1h1v1h1l1 1v1l-1 1v1l1 1 1 1 3 2 1 1-1 1v1l1 1v1l-1 1v1h2v-1 1h1l1-1v-1-1l3-3 1-1h1l2 1v1h1v1h2l1-1 3-1v1 1h2v1l-1 1v2h1l1-1v-1-1h3v1 2h-1v1 1 1h-1v2 1l-1 1v1 2 2 1h1l1-1v1h1l1 1v4l1 1-1 1v1h-1-1v1l1 2v2 1 1l-1 1h-1l-2-1h-2v-1l-3-1h-3v1 4 2h1v1l1 1v1h-2-1-1v1 1h1v1h1v1l-7 1h-1v-1h-1v1h-1v1h-1-1l-1-1h-1v-2h-1-1v1l-1 1h-2v-1h-1v-1-1l1 1v-1l1-1v-1-1h-1v-1h-1v-1-1l-1-1h-1v-1h1v-1-1 1h-2v1l-1-1v-1-1-1h-3l-2 1h-1l-1-1-2-1h-1v-1h-1-3l-1 1-1 1h-1-1l-6-1-3-1-1-1-2 1h-1-3-1-1-1v1l-2 1h-3l-1-1v-1h-1v1 1h1v1h-1v2l-1 1 1 1h1v1 1h2v1 1h-2v1h-1l-1 1v1 1l3 2h1v1h-1v1 1 1h1l1 1v4l-1 2v2h-1v1h1l1 1v2h-1v1h-3l-4-1-3-2h-3l-5 3-5 1-4 1-2 1-4-1-6-2h-1l-5 2h-4l-1-1v-1h-1-1v-1-1h1l-1-1h-3v1 1h-1l-4 1v1h-1-1v-1h-1v-1h-1l-3-1-1-1-3-1h-3-1v-1l1-1v-1-1-1l-1-1v-1-1h4v-1-1h-1v-5-2h1v-1l-1-1h-1v-2-1-2l1-1v-1h1v-1h1v-1h1v-1h3v-1h1l-1-1v-1h1v-2h1v2 1 1l1-1v-1l2-2v-1h1v1h2v-1l1-1h1v-1h1v-1h1v-3-1h-1v-5-1h-1v-1l1-1-1-2v-1h-1v-1-1l1-1 4-1 1-1h1l4-2 2-2h1v-1h1-1l-1-1h-1v-1h-3v-1h-3v-1h-1v-1h-1v-1l1-1v-1h1v1h1l1-1h1l1 1h1v-1h2v1h1v-1 1 1l1 1v-1-1h1v-1h1v-1-1l1-2 1 1 4 3h2l1 1h2l1 1 1 1h2l1-1v-1h-1v-1-1l1-1h1v-2h-1l-1-1v-2l1-1v-2h1v-1h2v-1h-1v-1h1l1-1v-1-1h1l7-3h2l3-1v-1h1v-1h4v1 1h1v-1l1-1v-1h1v1h1z" fill="none" stroke="#000" stroke-linecap="round" stroke-linejoin="round" stroke-width="2"/><path d="m659 275h-6l-2 1-2 2-1 2v2l-1 3v1h-1l-1-1h-1l-1 1-1 2h-1l-1 1-8 1-1 1-1 1-1 2v7l-1 1v2l-2 2v2h4v2l-1 1-1 1h-1l-1 2v3l1 2-1 1-2 3h-1l1-2-1-1h-1l-1-1-1 1h-1l-1-1h-1l-1 1-3-1-4 1h-8l-3 3-4 5-1 3h-1v1-2l-1-1h-1l-2-1v1l-2 1-5 2-1-2v-1-1l1-1h3v-1l-1-1v-1h1v-1l-1-1h-1v-1 1h-1l-1-1v-1l-1-1v-1l-1-1-1-1-2-1-1-1v-1h3v-2-1l-1-1v-1-1h1v1h5v-2l1-1v-1h1v-1l1 1 1 1 1-1v-1-2-1l1-1v-1h-3v1h-1l-1-2-3-2-1-2-2-1-1 1h-1l-1-1-1-1-1-1h-2v-1-1h-1v-1l1-1h-2v-1l-1-1-1-3v-1-1h-2-1v-4l-1-1h-1v-1-1h4v-1l-1-1v-1h-1v-2-4-1h3l3 1v1h2l2 1h1l1-1v-1-1-2l-1-2v-1h2v-1h1v-1-1h-1v-4l-1-1h-1v-1l-1 1h-1v-1-2-2-1l1-1v-1-2h1v-1-1-1h1v-2-1h-3v1 1l-1 1h-1v-2l1-1v-1h-2v-1-1l-1-1v-6l-1-1v-1h3l1 1h2v-1l1-1h2l3 2h1v1l1-1v-1h-2v-1h1v-1h1v1h1v-1-1h2v1h2v-1h1l-1-1v-1h1l1-1v-1l2-1h2v-1h-1v-1-1-2h2v-1-1h1v-1l9-5v-1-1h-1-2l-1-1 1-2h5l5 1h2v-2h1v1h1v1h2v1h-2v1 1l2 1h2l1-1h2v4l-1 1v1l1 3v1h-1v1h-1v1h1v1h5l2 1v2 2h1l1 1v1l1 1v1 1h-1v1 1h1v1l-1 1v1h-1v1 3 1l1 1v1 1 1h1l1 1v1h-1v1 1 1h2l1 1 1-1 1 1v1 1h1l1 1v1 1l-1 1h-2v1l1 1v1h6v2l1 2v1 1h1l5 2 2 2v1 1 1 1h1l1 1h3l3 1h1v3 1l1 1z" fill="none" stroke="#000" stroke-linecap="round" stroke-linejoin="round" stroke-width="2"/><path d="m619 154v1l1 1v1h1l1 1h-1-2v1h-1v1l2 1v1h-1v1h-2v1l-1 1h2v1 2 1 1l-1 2h-1v1l1 1v1 2 1h-1l-1 1v2l-1 1-1 1v1h1v1 5h2v1l-1 1-1 1-1 1h-1v2h-3l-5-1h-4l-1 2 1 1h3v1 1l-9 5v1h-1v1 1h-1-1v2 1 1h1v1h-1-1l-2 1v1l-1 1h-1v1 1 1h-1-1v-1h-1-1v1 1h-1v-1h-1v1h-1v1h2v1l-1 1v-1h-1l-3-2h-1-1l-1 1v1h-2l-1-1h-2-1v2l1 2v4l1 1-2 1h-1l-1 1h-2v-1h-1v-1l-2-1h-1l-1 1-3 3v1 1l-1 1h-1v-1 1h-1-1v-1l1-1v-1l-1-1v-1l1-1-1-1-3-2-1-1-1-1v-1l1-1v-1l-1-1h-1v-1h-1v-1h-1v-1h-1l-1-1h-2v-1h1l1-1v-1l-1-1v-1-1l-1-1h-1-1l-2 1h-1v1h-1-1l-1-1h-2-1-1-2v-1h-1-3-1-1v-1l-1-1-2-1-1-1-1-1h-1v-1l-3-2v-1l-1-1-1-1h-1-3-1-1l-1-1v-2-1l-1-1v-1-1h1l1-3h2v1h1v1h5l2-1v-1l2-1 1-2 1-1v-1h-1v-1l-1-1v-1-1-1h2l2 1v-1h2v-1h-1l-1-1v-1h-1v-1h3v-2l-2-3v-1-1-1h-2v1h-1-2v-1h-1l-1-1v-1l-1-1h-1v-2-3-1l-1-1h-1-1v1-1l-3-1-1-1h-2-1v-1h-1l-1-1v-1h-1v-2l-1-2 1-1 2-2v-1-5h1l1-1v-1h1l1 1h1v-1-1h1v-1l1 1v-1h1v-1-1h2l1 1h2v-1-1l1-1 1 1 1-1h-1l1-1h3v-2h1l3 2v-1h3v-1h1l1 1h2v-1l1-1 1-1v-1h2v-1l1-1 1-1h4l7 1h1v1l1 1 4 6 1 1h1l1-1h1v-1h3l1 1h1l1 1h1-1v2 1h1l1 1h2v-1h1v-2h1v-1l7-3 2-1 3-1 2 1 6-2 1-1 3-2 1-1h4l1 2 1 2v2l4 1 1 2v2l-1 2v1h1l1 2 4 5 1 1 3 2 2 1 1 1 1 2 2 2v2z" fill="none" stroke="#000" stroke-linecap="round" stroke-linejoin="round" stroke-width="2"/><g clip-path="url(#a)"><path d="m659 275 1-3-1-1v-1-3h-1l-3-1h-3-1l-1-1v-1-1-1-1l-2-2-5-2h-1v-1-1l-1-2v-1-1h-1-4-1v-1l-1-1v-1h3v-1-2h-1l-1-1v-1-1h-1v-1l-1 1h-1l-1-1h-1v-2-1h1v-1h-1v-1h-1l-1-1h1v-1-1l-1-1v-1-3-1h1v-1l1-1v-1l-1 1v-1-1-1h1v-1-1h-1v-1-1h-1v-1h-1v-2-2l-2-1h-5v-1h-1v-1h1v-1h1v-1l-1-3v-1h1v-1-3-1h-2l-1 1-1 1v-1h-1l-2-1v-1-1h2v-1h-1-1v-1h-1-1l1-1 1-1 1-1 1-1-1-1h-1v-1-4-1h-1v-1l1-1h1v-1-2h1v-1h1v-1-2-1l-1-1v-1h1l1-1v-1-1-1-2-1l-2 1v-1l1-1v-1h2v-1h1v-1l-2-1v-1h1v-1h3-1v-1h-1v-1l-1-1v-1l2-1h2l2-1v-7h6l1 4v1h3l1 1 2 1 3-1h3l1 1v1 1l2 1 5 1 1 2 1 1 1 1h4l1-1 1-2h1l1-1 1 1 3 6v1l2 1h3l1-1 2-1 1 1 1 1h2l1 1v1l1 3 1 2 1 1h1l2 1 2 2h3l1-1h1l2-3h2l4 1v3l-2 1h-1v4l1 2 1 2 2 3h1l-1 2v4l-1 1h-1l-1 2-1 1-3 2-1 1v1l-1 1v3h-3l-3 1h-3v4h1l1 1v2l1 1h1l3 1 1-1 1 1 1 1h1l1-1 1-1h1v3l-1 1-2 2h-1l-5-2-1 1-1 1-1 1-1 1-3 8v2h1l1-1 5 1 1 1 1 1v2 1h-1v1h1v1l1 2 1 2v1l-1 1v1l-3 2 3 2h1l2-1 1 1v1l-1 1v1l-2 2h-1l-2 4v5h-2l-1 1v1l1 1v1 3 1 2l-1 2-1 1h-1l-4-1h-8-1l-1-1h-1l-6 1h-3z" fill="none" stroke="#000" stroke-linecap="round" stroke-linejoin="round" stroke-width="2"/></g><path d="m498 139v5 1l-2 2-1 1 1 2v2h1v1l1 1h1v1h3l1 1 3 1v1-1h2l1 1v1 3 2h1l1 1v1l1 1h1v1h3v-1h2v1 1 1l2 3v2h-3v1h1v1l1 1h1v1h-1-1v1l-2-1h-1-1v1 1 1l1 1v1h1v1l-1 1-1 2-2 1v1l-2 1h-5v-1h-1v-1h-1-1l-1 3h-1v1 1l1 1v1 2h-1l-1-1h-1v1l-1 1v1h-1v-1-1l-1-1v1h-1-1-1v1h-1v1l-3 1h-2l-7 3h-1v1 1l-1 1h-1v1h1v1h-1-1v1h-1v2l-1 1v2l1 1h1v2h-1l-1 1v1l1 1v1l-1 1h-2l-1-1-1-1h-2l-1-1h-1-1l-4-3-1-1v-1h-1v-1h-3l-1-1h-1-1v1h-1-1v2-1h-1v-1h-1l-1-1h-1v1h-1-1v-1h-2v-1h-1l-1-1h-1v1h-1v-1h-1v-1l-1-1h-1v-1h1v-1l1-1-1-1h-1v-1h-4v-1l-1-1v-1h-1l-4-4-10-4 1-3v-1l-1-1-1-4-2-2v-1h-1v-1-1l2-2v-1h1v-1-3h-1l-1-1v-3l-5-2v-2-1-1l-2-1-1 1v-1l-1-1h-1-1v-1l-2-3v-1h2v-2-2-1l-1-1h-1l-1-4h-1-2v-1h-1v-3h1v-1-1-1l-1 1h-1l-1-1h-1l-1-1v-1l-1-1v-1h-1-1l1-2h1l-1-1 1-1 1-3h4l1-1v-1h1l2-2h2v1h1l1-1h1v1h1v1 1h9l3-1 1-1h2v-1h1v-1h1v-1h1v-1h1v-1h1l1-1 1-3 1 1 4 1h1v-1l1-1h2l1 1h1l12 3 3 1h1l1-1h2v-1h-1v-1l2-1h2l1 1 1 1 3 2h1v-1-1h2v-1h1l1-1h1v-1h1l1 1v5h1v1l1 1 1 2 2 1v1 1 1 2 1h2v1h1v1 1l2 1v1 1h-1l-1 1v1h1v1 1l1-1h7v-1l1-1h1v1h1l1-1h1zm65 137v3h3v1 1l1 3 1 1v1h2l-1 1v1h1v1 1h2l1 1 1 1 1 1h1l1-1 2 1 1 2 3 2 1 2h1v-1h3v1l-1 1v1 2 1l-1 1-1-1-1-1v1h-1v1l-1 1v2h-3-1-1v-1h-1v1 1l1 1v1 2h-3v1l1 1 2 1 1 1 1 1v1l1 1v1l1 1h1v-1 1h1l1 1v1h-1v1l1 1v1h-1-1-1l-1 1v1 1l1 2h-1l-1 1h-1l-1 1-2 2h-1v3l-1 1-1 1v2l-1 1-1 1h-1 2v-2l1-2v-1h-1l-1-2h-2v-1l-1 1h-1l-1-1v1h-1-3l-2 1-2 1h-1l-1 1-3 3v1l-1 2v-1h-1v1-1-1l-1-1h-6l-5 1h-1l-5 2-2 1-3 4-1 1-5 3-1 1-1 2h-1l-1 1-1 1-3 6h-1l1-2 1-2 1-1v-1l-1 1h-2v-3l1-2h-1l-1-1-1-1h-1v-3l-1 2v1l1 1v1h1v1 1l-1 1-1 1-2 4h-2v-2-2-1l-1-4v-1h-2l-1-1h-1v-1h-3v-1-1h-4v-1l-1-2v-1-1h1l-1-1v-1l-1-1h-1-1-1v-1-1h2v-1h1v-1h1v-1l1-1v-2h2v-1l-1-1v-1h-1l-1-1v-2l-2-1h-1l-1-1h-1v-2h-1v-1h-1v-5h-1l-1-1v-1-1-2-2-1-1h-1v-1-1h1v-1h-3v1h-1v1h-1-1-1-1v-2l-1-1-1-6-1-3 4-1 5-1 5-3h3l3 2 4 1h3v-1h1v-2l-1-1h-1v-1h1v-2l1-2v-4l-1-1h-1v-1-1-1h1v-1h-1l-3-2v-1-1l1-1h1v-1h2v-1-1h-2v-1-1h-1l-1-1 1-1v-2h1v-1h-1v-1-1h2v2h3l2-1v-1h7l2-1 1 1 3 1 6 1h2l1-1 1-1h4v1h1l2 1 1 1h1l2-1h3v1 1 1l1 1v-1h2v-1 1 1h-1v1h1l1 1v1 1h1v1h1v1 1l-1 1v1l-1-1v1 1h1v1h2l1-1 1-1h1v2h1l1 1h2v-1h1v-1h1v1h1zm-223-163-2 1-1 1-1 1v1l1 1-1 1v2l3 4v1l1 1-1 1h-1v2l-2 1-1-2v3l-1 1-1-1h-1v-1l-2 1 1 1h-1l2 3v5h-1v1l1 3v1l-2 1-1-2v-2l-1-1v-3h-1v-2l-1-1h-1v-1l-1-1v-2h-1l-1-1 1-1-1-2-1-1-1-1-1-3h-3l-1 2h-1v-3l1-1v-2-4l1-1h1v-3l1 1v-1l-1-1 3-1v-1h4v2h1v2l1 1 1 1 1 1v-2h4l1-2h1l1-1v-3l3 1 1 1z" fill="none" stroke="#000" stroke-linecap="round" stroke-linejoin="round" stroke-width="2"/><path d="m410 378 5 1 3-1h1l1 1 2-1h1v1h2l1 1-1 1-16-3zm102-11v1l-2 4-1 1-1 1-2 1-1 1h-1l-1 1h-2v-1l1-1 2-1h-1v-1l4-1 2-1 1-2 1-1zm-121 6h-1l-1-1-15-3-6-2-1-1-1-2v-1l-1-2v-1l1 1 1 2v2l1 1 2 1 12 3 5 1zm80-76 1 3 1 6 1 1v2h4v-1h1v-1h3v1h-1v1 1h1v1 1 2 2 1 1l1 1h1v5h1v1h1v2h1l1 1h1l2 1v2l1 1h1v1l1 1v1h-2v2l-1 1v1h-1v1h-1v1h-2v1 1h3l1 1v1l1 1h-1v1 1l1 2v1h4v1 1h3v1h1l1 1h2v1l1 4v1 2 2h2l-2 1-1 1-4 1h-1v-1h-1v1 1l-2 1-1 1v1 1l1 4v2l2 6v2l1 1 2 5 2 4h-1l-2-2v-1l-1-2v-2h-1-1v1l-1 1h-1v-1l1-3v-1h1v-1h-1v-1h-1v-5l-1-1-1 1v1-1l-2-1v-1l-1-1-1-1h1l2-1h1v1h1v-3l-2-1-1-1h-2l-1 1v5l-2 5h-2l-2 1v-2h-3v-1l1-1h2l-1-1v-3l1-1h1v1 1l1-1v-1 1l1 1v1-2h1v-3l-1-1h-1v1l-2 1h-1l-3-2-2-2v1h-1v1h1v5l-1-1v-2-1l-2-4-1-1-1-1-1-1-1 1v2l1 1v1l1 1-1 2-1-1 1-1-1-1h-1v1h-1l1 1 1 1v1h-1-1v-1h-1-1v1-1h-1v-1l-1-2-1-1-3-1-1 1h-1-1v-1h-1v-1l-1 1h-1v1h-1-1l-1 1 1 2-1 1-1 1v-1h-2l-1 1-1 1 1 1-1 1h-1v1l1 1h-1v-1h-3l-1-2h-1l-1-1-1 1h-1l1-1v-1h-4v-1l1-4-1 1-1 1-1 2h-1l-1 1-1-1-2-1v1l-1 1-4 1h-1-1l-3-1h-1l-2 1h-4l-1 1-1 1h-2l-8-2v-1h-1v-1h-1v-2h1v-1h-1l-1 1-1-1h-2l-1-1-1-2-1-1-2 1-2-1-3-3v2 1h-2l-1-1h-1v-2l1-1h6l1-1 2-2h1l-2-3h-4l-3-2 1-2h4l3 1 2-1h1l4 1 2 2h4l1-1 1-1v-1l1-1 2-3h3l1-1 1-1 1-1h-1l-1 1-1 1-1-1-5 3-3 1-3-2v-1h-1l-1 1h-1v1h-1l-1 1v-1l-1-2-3-1-1-1-1-1v-2l-1-1v-1h3l1-1h1l1 1 2-1h1v-1l1-1v-1h6v-2h2l1-1v1h3l1-1v-1h1v1h4v1h1v1h5v-1l3-1h1v-1 1l-1-1h-3-1v-1l4-1h1v-1h3v-1h-2v-1-1-1h1v1h2l1-1v-1l-2-2-2-2h-1-1v-1-1h1l1-3v-1h1v1h2v-1l2-1h2v-1l-1-2v-1-1-2-1l-1-2h-1l-1-1v-1-1h1v-1l1 1v1h2v-1l-1-1v-1h1v-1h-1v-1-1-1h-1v-1-1-1l3 1 1 1 3 1h1v1h1v1h2v-1l4-1h1v-1-1h3l1 1h-1v1 1h2v1l1 1h4l5-2h1l6 2 4 1z" fill="none" stroke="#000" stroke-linecap="round" stroke-linejoin="round" stroke-width="2"/><g clip-path="url(#a)"><path d="m452 470-3-1-1-1v-1l-1-2h-2-1l-1-1-5-3v-1h1l1-1h2l1-1h3-2v-2l1-1v-3l-1-2v-1-1l1-1v-2h1v2h2l2 2v2l-3 1 1 4 3-1 2 3-2 2 1 2 2-1v2h1l1 4 1 1-3 1-1 1z" fill="none" stroke="#000" stroke-linecap="round" stroke-linejoin="round" stroke-width="2"/></g></g></svg>