<svg width="48" height="48" viewBox="0 0 48 48" fill="none" xmlns="http://www.w3.org/2000/svg">
<g style="mix-blend-mode:luminosity" opacity="0.5" clip-path="url(#clip0_3_264)">
<path d="M20.129 25.5485L20.9032 26.3227L12.7897 36.7512C12.186 36.5112 11.5278 36.3872 10.8387 36.3872C9.89403 36.3872 9.01172 36.6272 8.23753 37.0453C7.4399 36.0001 6.96774 34.7072 6.96774 33.2904V25.5485H20.129Z" fill="#FCD770"/>
<path d="M33.894 39.3134C33.8634 39.3678 33.84 39.4298 33.8169 39.4839H15.7315C15.6234 39.2362 15.4914 39.0038 15.3368 38.7872V38.7792L23.2258 28.6451L33.894 39.3134Z" fill="#FCD770"/>
<path d="M25.5484 25.5484H44.129V33.2904C44.129 35.0247 43.4168 36.5962 42.2631 37.7189C41.3109 36.8827 40.0721 36.3871 38.7097 36.3871C37.8115 36.3871 36.9602 36.6037 36.2166 36.9908L24.6347 25.4089C24.9292 25.5019 25.2308 25.5484 25.5484 25.5484Z" fill="#FCD770"/>
<path d="M45.6774 22.4517H28.6452C28.6452 21.3059 28.026 20.3071 27.0968 19.773V2.32263C37.3548 2.32263 45.6774 10.6452 45.6774 20.9033V22.4517Z" fill="#FFEAA7"/>
<path d="M27.0968 2.32256V19.7729C26.6401 19.5098 26.1135 19.3548 25.5484 19.3548C24.9832 19.3548 24.4567 19.5098 24 19.7729V1.54836C24 1.12271 24.3485 0.77417 24.7742 0.77417H26.3226C26.7482 0.77417 27.0968 1.12271 27.0968 1.54836V2.32256Z" fill="#CCD1D9"/>
<path d="M20.129 25.5484H5.41936C4.9937 25.5484 4.60661 25.3779 4.32762 25.0918C4.04146 24.8128 3.87097 24.4257 3.87097 24C3.87097 23.1484 4.56767 22.4517 5.41936 22.4517H17.0323L20.129 25.5484Z" fill="#CCD1D9"/>
<path d="M46.7692 22.9083C47.0553 23.1873 47.2258 23.5744 47.2258 24C47.2258 24.8517 46.5291 25.5484 45.6774 25.5484H25.5484C27.2593 25.5484 28.6452 24.1626 28.6452 22.4517H45.6774C46.1031 22.4517 46.4902 22.6221 46.7692 22.9083Z" fill="#CCD1D9"/>
<path d="M27.0968 19.773C28.0259 20.3071 28.6451 21.3058 28.6451 22.4516C28.6451 24.1626 27.2593 25.5484 25.5484 25.5484C25.2308 25.5484 24.9292 25.5019 24.6347 25.4089C23.6594 25.1073 22.8928 24.3406 22.5911 23.3653C22.4981 23.0708 22.4516 22.7692 22.4516 22.4516C22.4516 21.3058 23.0708 20.3071 24 19.773C24.4566 19.5098 24.9832 19.3549 25.5484 19.3549C26.1135 19.3549 26.6401 19.5098 27.0968 19.773Z" fill="#B4DD7F"/>
<path d="M9.29033 10.0645L6.96775 12.3871L1.25429 6.67364C0.944689 6.36404 0.7742 5.94595 0.7742 5.51235C0.7742 5.06326 0.960188 4.64517 1.25429 4.35106C1.54839 4.05696 1.96649 3.87097 2.41558 3.87097C2.84918 3.87097 3.26727 4.04146 3.57687 4.35106L9.29033 10.0645Z" fill="#FCD770"/>
<path d="M23.2258 28.6452L15.3368 38.7793C14.7172 37.866 13.8349 37.1538 12.7897 36.7512L20.9032 26.3226L23.2258 28.6452Z" fill="#DFB28B"/>
<path d="M24.6347 25.409L36.2166 36.9909C35.2258 37.5099 34.4131 38.3226 33.894 39.3134L6.96774 12.3872L9.29032 10.0646L22.5911 23.3654C22.8928 24.3407 23.6594 25.1073 24.6347 25.409Z" fill="#DFB28B"/>
<path d="M15.7315 39.4839C16.0721 40.1885 16.2581 40.9703 16.2581 41.8064C16.2581 44.8027 13.8349 47.2258 10.8387 47.2258C7.84248 47.2258 5.41934 44.8027 5.41934 41.8064C5.41934 39.7549 6.55757 37.9665 8.23751 37.0528V37.0452C9.01171 36.6271 9.89401 36.3871 10.8387 36.3871C11.5278 36.3871 12.186 36.5111 12.7897 36.7511C13.8349 37.1537 14.7172 37.8659 15.3368 38.7792V38.7872C15.4914 39.0038 15.6233 39.2363 15.7315 39.4839Z" fill="#838F9B"/>
<path d="M42.2631 37.7189C43.4089 38.7097 44.129 40.173 44.129 41.8064C44.129 44.8027 41.7059 47.2258 38.7097 47.2258C35.7134 47.2258 33.2903 44.8027 33.2903 41.8064C33.2903 40.9703 33.4763 40.1885 33.8169 39.4839C33.84 39.4298 33.8634 39.3678 33.894 39.3134C34.413 38.3226 35.2258 37.5098 36.2166 36.9908C36.9602 36.6037 37.8115 36.3871 38.7097 36.3871C40.0721 36.3871 41.3109 36.8827 42.2631 37.7189Z" fill="#838F9B"/>
<path d="M13.1613 41.8065C13.1613 43.0891 12.1214 44.129 10.8387 44.129C9.55609 44.129 8.51614 43.0891 8.51614 41.8065C8.51614 40.5238 9.55609 39.4839 10.8387 39.4839C12.1214 39.4839 13.1613 40.5238 13.1613 41.8065Z" fill="#CCD1D9"/>
<path d="M41.0322 41.8065C41.0322 43.0891 39.9923 44.129 38.7097 44.129C37.427 44.129 36.3871 43.0891 36.3871 41.8065C36.3871 40.5238 37.427 39.4839 38.7097 39.4839C39.9923 39.4839 41.0322 40.5238 41.0322 41.8065Z" fill="#CCD1D9"/>
<path d="M38.7097 38.7097C37.0018 38.7097 35.6129 40.0986 35.6129 41.8065C35.6129 43.5144 37.0018 44.9033 38.7097 44.9033C40.4176 44.9033 41.8065 43.5144 41.8065 41.8065C41.8065 40.0986 40.4176 38.7097 38.7097 38.7097ZM38.7097 43.3549C37.8557 43.3549 37.1613 42.6604 37.1613 41.8065C37.1613 40.9525 37.8557 40.2581 38.7097 40.2581C39.5636 40.2581 40.2581 40.9525 40.2581 41.8065C40.2581 42.6604 39.5636 43.3549 38.7097 43.3549Z" fill="black"/>
<path d="M10.8387 38.7097C9.1308 38.7097 7.74194 40.0986 7.74194 41.8065C7.74194 43.5144 9.1308 44.9033 10.8387 44.9033C12.5466 44.9033 13.9355 43.5144 13.9355 41.8065C13.9355 40.0986 12.5466 38.7097 10.8387 38.7097ZM10.8387 43.3549C9.98476 43.3549 9.29033 42.6604 9.29033 41.8065C9.29033 40.9525 9.98476 40.2581 10.8387 40.2581C11.6927 40.2581 12.3871 40.9525 12.3871 41.8065C12.3871 42.6604 11.6927 43.3549 10.8387 43.3549Z" fill="black"/>
<path d="M46.4516 21.8199V20.9032C46.4516 10.4902 38.1857 1.97669 27.871 1.56767V1.54839C27.871 0.69443 27.1765 0 26.3226 0H24.7742C23.9202 0 23.2258 0.69443 23.2258 1.54839V19.3749C22.5382 19.8954 22.0335 20.6337 21.812 21.4926L4.125 3.80444C3.67515 3.35459 3.05255 3.09677 2.41633 3.09677C1.0838 3.09677 0 4.18057 0 5.5131C0 6.15877 0.251008 6.7655 0.707661 7.22177L15.1633 21.6774H5.41935C4.13899 21.6774 3.09677 22.7196 3.09677 24C3.09677 25.2804 4.13899 26.3226 5.41935 26.3226H6.19355V33.2903C6.19355 34.5552 6.53037 35.763 7.16507 36.8317C5.64012 37.9612 4.64516 39.7674 4.64516 41.8064C4.64516 45.2215 7.42364 48 10.8387 48C14.2538 48 17.0323 45.2215 17.0323 41.8064C17.0323 41.2708 16.957 40.7544 16.8285 40.2581H32.7206C32.5914 40.7544 32.5161 41.2708 32.5161 41.8064C32.5161 45.2215 35.2946 48 38.7097 48C42.1247 48 44.9032 45.2215 44.9032 41.8064C44.9032 40.2286 44.3056 38.791 43.3299 37.6962C44.3475 36.4559 44.9032 34.9185 44.9032 33.2903V26.3226H45.6774C46.9578 26.3226 48 25.2804 48 24C48 22.9922 47.3506 22.1405 46.4516 21.8199ZM44.9032 20.9032V21.6774H29.3411C29.1498 20.7384 28.6089 19.9332 27.871 19.3749V3.11681C37.3318 3.52319 44.9032 11.3441 44.9032 20.9032ZM22.1953 28.7094L15.3228 37.5461C14.9289 37.1318 14.4791 36.7734 13.9842 36.4801L20.9769 27.4899L22.1953 28.7094ZM23.2988 29.8125L32.1956 38.7097H16.3787L23.2988 29.8125ZM33.7666 38.0912L8.0625 12.3871L9.29032 11.1593L21.9345 23.8034C22.3269 24.8479 23.1521 25.6739 24.1966 26.0655L34.9945 36.8634C34.5291 37.2131 34.1163 37.6259 33.7666 38.0912ZM24.7742 1.54839H26.3226V18.6589C26.0723 18.6079 25.813 18.5806 25.5484 18.5806C25.2838 18.5806 25.0244 18.6079 24.7742 18.6589V1.54839ZM25.5484 20.129C26.8288 20.129 27.871 21.1712 27.871 22.4516C27.871 23.732 26.8288 24.7742 25.5484 24.7742C24.268 24.7742 23.2258 23.732 23.2258 22.4516C23.2258 21.1712 24.268 20.129 25.5484 20.129ZM1.54839 5.5131C1.54839 5.03453 1.93775 4.64516 2.41633 4.64516C2.64466 4.64516 2.86845 4.73816 3.03024 4.89919L8.19556 10.0645L6.96774 11.2923L1.80242 6.12702C1.63836 5.96295 1.54839 5.74521 1.54839 5.5131ZM4.64516 24C4.64516 23.5736 4.99219 23.2258 5.41935 23.2258H16.7117L18.2601 24.7742H5.41935C4.99219 24.7742 4.64516 24.4264 4.64516 24ZM7.74194 33.2903V26.3226H19.8085L19.8727 26.3868L12.5134 35.8492C11.98 35.6987 11.4194 35.6129 10.8387 35.6129C10.0195 35.6129 9.23929 35.7762 8.52293 36.0665C8.01978 35.2288 7.74194 34.2845 7.74194 33.2903ZM10.8387 46.4516C8.27684 46.4516 6.19355 44.3683 6.19355 41.8064C6.19355 39.2446 8.27684 37.1613 10.8387 37.1613C13.4006 37.1613 15.4839 39.2446 15.4839 41.8064C15.4839 44.3683 13.4006 46.4516 10.8387 46.4516ZM38.7097 46.4516C36.1478 46.4516 34.0645 44.3683 34.0645 41.8064C34.0645 39.2446 36.1478 37.1613 38.7097 37.1613C41.2715 37.1613 43.3548 39.2446 43.3548 41.8064C43.3548 44.3683 41.2715 46.4516 38.7097 46.4516ZM43.3548 33.2903C43.3548 34.5367 42.9345 35.7135 42.1671 36.6706C41.1793 36.003 39.9893 35.6129 38.7097 35.6129C37.889 35.6129 37.1065 35.777 36.3886 36.068L26.6431 26.3226H43.3548V33.2903ZM45.6774 24.7742H28.6251C28.9672 24.3221 29.2235 23.8012 29.3403 23.2258H45.6774C46.1046 23.2258 46.4516 23.5736 46.4516 24C46.4516 24.4264 46.1046 24.7742 45.6774 24.7742Z" fill="black"/>
<path d="M41.3551 17.2799L42.8555 16.8992C41.949 13.3292 39.8169 10.1349 36.854 7.90527L35.9225 9.14255C38.6042 11.1608 40.5337 14.0508 41.3551 17.2799Z" fill="black"/>
<path d="M41.7902 20.2065L43.3371 20.135C43.3114 19.5748 43.2558 19.0078 43.17 18.4506L41.6394 18.6834C41.7157 19.1877 41.7664 19.6999 41.7902 20.2065Z" fill="black"/>
<path d="M9.29031 27.871H10.8387V29.4194H9.29031V27.871Z" fill="black"/>
<path d="M9.29031 30.9678H10.8387V32.5162H9.29031V30.9678Z" fill="black"/>
</g>
<defs>
<clipPath id="clip0_3_264">
<rect width="48" height="48" fill="white"/>
</clipPath>
</defs>
</svg>
