<svg height="70.728" viewBox="0 0 58.947 70.728" width="58.947" xmlns="http://www.w3.org/2000/svg" xmlns:xlink="http://www.w3.org/1999/xlink"><clipPath id="a"><path d="m0 0h58.947v70.728h-58.947z"/></clipPath><circle cx="20" cy="26.496" fill="#fed534" r="20"/><g fill="#215ba6"><path d="m46.861 63.496h3v3h-3z"/><path d="m42.861 63.496h2v3h-2z"/><g clip-path="url(#a)"><path d="m115.478 272.14a1.179 1.179 0 0 0 1.588 0l5.859-5.342a4.761 4.761 0 0 0 1.616-3.536 4.676 4.676 0 0 0 -1.581-3.475 5.692 5.692 0 0 0 -6.688-.595 5.692 5.692 0 0 0 -6.688.595 4.676 4.676 0 0 0 -1.584 3.475 4.76 4.76 0 0 0 1.615 3.536zm-4.306-10.609a3.3 3.3 0 0 1 4.306 0 1.179 1.179 0 0 0 1.588 0 3.3 3.3 0 0 1 4.306 0 2.347 2.347 0 0 1 .811 1.733 2.433 2.433 0 0 1 -.846 1.792l-5.069 4.617-5.068-4.617a2.428 2.428 0 0 1 -.84-1.794 2.348 2.348 0 0 1 .811-1.731" transform="translate(-86.784 -207.614)"/><path d="m54.107 36.015a1.178 1.178 0 0 0 -1.061-.651h-15.4a9.191 9.191 0 0 0 -1.061-5.628l6.515-8.606 7.2-1.2 5.1-10.222v-9.708h-9.7l-4.838 2.415-17.125 3.67-2.543 13.983 1.512 6.543a9.337 9.337 0 0 0 -3.767 8.753h-13.045a1.181 1.181 0 0 0 -1.055.651l-4.715 9.431a1.179 1.179 0 0 0 1.055 1.706h3.537v22.4a1.179 1.179 0 0 0 1.179 1.179h47.151a1.179 1.179 0 0 0 1.179-1.179v-22.4h3.536a1.179 1.179 0 0 0 1.061-1.706zm-28.333-27.955 15.726-3.371 4.747-2.331h6.795v6.795l-4.319 8.647-6.943 1.156-7.933 10.492a1.585 1.585 0 0 1 -1.061.639 1.94 1.94 0 0 1 -1.43-.381 1.634 1.634 0 0 1 -.384-2.325l8.194-10.836-3.166-4.757h-7.528l-1.372 8.252.789 4.729a9.514 9.514 0 0 0 -3.035.652l-1.254-5.41zm4.45 16.4-.737-4.424.982-5.894h4.265l1.543 2.315zm-5.574 3.67a7.044 7.044 0 0 1 3.863-1 4.008 4.008 0 0 0 1.428 4.467 4.333 4.333 0 0 0 2.584.866 4.284 4.284 0 0 0 .611-.046 3.956 3.956 0 0 0 1.751-.736 6.984 6.984 0 0 1 -2.714 8.4h-7.763a7.049 7.049 0 0 1 .236-11.949zm27.218 40.24h-44.795v-21.218h44.795zm-48.782-23.576 3.536-7.073h12.936a9.488 9.488 0 0 0 1.4 2.358h-5.633v2.358h28.291v-2.358h-7.988a9.488 9.488 0 0 0 1.4-2.358h15.29l3.536 7.073z"/></g></g></svg>