<?xml version="1.0" encoding="UTF-8" standalone="no"?>
<!DOCTYPE svg PUBLIC "-//W3C//DTD SVG 1.1//EN" "http://www.w3.org/Graphics/SVG/1.1/DTD/svg11.dtd">
<svg width="100%" height="100%" viewBox="0 0 48 48" version="1.1" xmlns="http://www.w3.org/2000/svg" xmlns:xlink="http://www.w3.org/1999/xlink" xml:space="preserve" xmlns:serif="http://www.serif.com/" style="fill-rule:evenodd;clip-rule:evenodd;stroke-linejoin:round;stroke-miterlimit:2;">
    <g transform="matrix(1,0,0,1,-128,0)">
        <g transform="matrix(1,0,0,1,128,0)">
            <rect id="Artboard1" x="0" y="0" width="48" height="48" style="fill:none;"/>
            <g id="Artboard11" serif:id="Artboard1">
                <g transform="matrix(1,0,0,1,28.5,45.3215)">
                    <path d="M0,-2.894C0.54,-3.149 1.095,-3.359 1.665,-3.532C2.835,-3.892 4.065,-4.072 5.303,-4.072C8.633,-4.072 11.82,-2.752 14.175,-0.397L15.75,1.178L-0.75,1.178L-1.613,0.196C-2.025,-0.277 -2.46,-0.719 -2.925,-1.124L-1.665,-1.964C-1.132,-2.317 -0.577,-2.632 0,-2.894" style="fill:rgb(255,194,192);fill-rule:nonzero;"/>
                </g>
                <g transform="matrix(1,0,0,1,27.75,40.5)">
                    <path d="M0,6L-24,6L-22.305,4.305C-20.925,2.925 -19.305,1.845 -17.535,1.117C-15.773,0.39 -13.86,0 -11.917,0C-8.303,0 -4.845,1.327 -2.175,3.697C-1.71,4.102 -1.275,4.545 -0.863,5.018L0,6Z" style="fill:rgb(255,194,192);fill-rule:nonzero;"/>
                </g>
                <g transform="matrix(1,0,0,1,37.5,6)">
                    <path d="M0,9C2.485,9 4.5,6.985 4.5,4.5C4.5,2.015 2.485,0 0,0C-2.485,0 -4.5,2.015 -4.5,4.5C-4.5,6.985 -2.485,9 0,9" style="fill:rgb(255,227,226);fill-rule:nonzero;"/>
                </g>
                <g transform="matrix(1,0,0,1,42.7725,29.16)">
                    <path d="M0,-2.07C0.232,-2.13 0.48,-2.16 0.727,-2.16C2.385,-2.16 3.727,-0.817 3.727,0.84C3.727,2.498 2.385,3.84 0.727,3.84L-8.07,3.84C-7.717,3.052 -7.523,2.19 -7.523,1.29C-7.523,0.022 -7.913,-1.215 -8.633,-2.265L-10.965,-5.64L-10.725,-5.805L-10.523,-5.835C-10.283,-5.888 -10.028,-5.91 -9.773,-5.91C-8.543,-5.91 -7.455,-5.31 -6.773,-4.388C-6.09,-5.31 -5.003,-5.91 -3.773,-5.91C-1.702,-5.91 -0.023,-4.23 -0.023,-2.16L0,-2.07Z" style="fill:rgb(255,227,226);fill-rule:nonzero;"/>
                </g>
                <g transform="matrix(1,0,0,1,5.2275,7.447)">
                    <path d="M0,-2.107L0.023,-2.197C0.023,-4.267 1.702,-5.947 3.773,-5.947C5.003,-5.947 6.09,-5.347 6.773,-4.425C7.455,-5.347 8.543,-5.947 9.773,-5.947C11.843,-5.947 13.523,-4.267 13.523,-2.197L13.545,-2.107C13.778,-2.167 14.025,-2.197 14.273,-2.197C15.93,-2.197 17.273,-0.854 17.273,0.803C17.273,2.461 15.93,3.803 14.273,3.803L10.523,3.803L7.523,-0.697L4.583,3.84L4.523,3.803L-0.727,3.803C-2.385,3.803 -3.727,2.461 -3.727,0.803C-3.727,-0.854 -2.385,-2.197 -0.727,-2.197C-0.48,-2.197 -0.232,-2.167 0,-2.107" style="fill:rgb(255,239,239);fill-rule:nonzero;"/>
                </g>
                <g transform="matrix(1,0,0,1,34.7025,23.25)">
                    <path d="M0,9.75C-0.128,10.042 -0.285,10.327 -0.458,10.598C-1.102,11.587 -2.033,12.39 -3.158,12.893L-6.202,14.25L-9.247,12.893C-11.505,11.895 -12.952,9.66 -12.952,7.2C-12.952,5.932 -12.563,4.695 -11.842,3.645L-6.202,-4.5L-2.895,0.27L-0.562,3.645C0.158,4.695 0.548,5.932 0.548,7.2C0.548,8.1 0.353,8.962 0,9.75" style="fill:rgb(255,204,203);fill-rule:nonzero;"/>
                </g>
                <g transform="matrix(1,0,0,1,12.75,6.75)">
                    <path d="M0,26.25L-3.727,23.88C-6.54,22.087 -8.25,18.975 -8.25,15.637C-8.25,13.755 -7.702,11.91 -6.682,10.327L-2.94,4.537L0,0L3,4.5L6.682,10.327C7.702,11.91 8.25,13.755 8.25,15.637C8.25,17.31 7.822,18.915 7.042,20.34C6.262,21.757 5.13,22.98 3.728,23.88L0,26.25Z" style="fill:rgb(255,204,203);fill-rule:nonzero;"/>
                </g>
                <g transform="matrix(1,0,0,1,37.5,14.25)">
                    <path d="M0,-7.5C2.068,-7.5 3.75,-5.818 3.75,-3.75C3.75,-1.682 2.068,0 0,0C-2.068,0 -3.75,-1.682 -3.75,-3.75C-3.75,-5.818 -2.068,-7.5 0,-7.5M0,1.5C2.895,1.5 5.25,-0.856 5.25,-3.75C5.25,-6.644 2.895,-9 0,-9C-2.895,-9 -5.25,-6.644 -5.25,-3.75C-5.25,-0.856 -2.895,1.5 0,1.5" style="fill:rgb(242,80,76);fill-rule:nonzero;"/>
                </g>
                <g transform="matrix(-1,0,0,1,75,-43.5)">
                    <rect x="36.75" y="44.25" width="1.5" height="3" style="fill:rgb(242,80,76);"/>
                </g>
                <g transform="matrix(-0.707107,0.707107,0.707107,0.707107,33.1654,5.41519)">
                    <rect x="-0.219" y="-3.091" width="1.5" height="3" style="fill:rgb(242,80,76);"/>
                </g>
                <g transform="matrix(-1,0,0,1,58.5,-27)">
                    <rect x="27.75" y="36.75" width="3" height="1.5" style="fill:rgb(242,80,76);"/>
                </g>
                <g transform="matrix(-0.707107,0.707107,0.707107,0.707107,32.4165,17.8335)">
                    <rect x="-2.03" y="-2.341" width="3" height="1.5" style="fill:rgb(242,80,76);"/>
                </g>
                <g transform="matrix(-1,0,0,1,75,-10.5)">
                    <rect x="36.75" y="27.75" width="1.5" height="3" style="fill:rgb(242,80,76);"/>
                </g>
                <g transform="matrix(-0.707107,0.707107,0.707107,0.707107,44.8324,17.084)">
                    <rect x="-0.22" y="-3.091" width="1.5" height="3" style="fill:rgb(242,80,76);"/>
                </g>
                <g transform="matrix(-1,0,0,1,91.5,-27)">
                    <rect x="44.25" y="36.75" width="3" height="1.5" style="fill:rgb(242,80,76);"/>
                </g>
                <g transform="matrix(-0.707107,0.707107,0.707107,0.707107,44.0839,6.16657)">
                    <rect x="-2.03" y="-2.341" width="3" height="1.5" style="fill:rgb(242,80,76);"/>
                </g>
                <g transform="matrix(1,0,0,1,25.758,12.54)">
                    <path d="M0,22.92C-1.979,22.041 -3.258,20.073 -3.258,17.908C-3.258,16.787 -2.921,15.707 -2.282,14.786L2.742,7.528L7.766,14.786C8.405,15.707 8.742,16.787 8.742,17.908C8.742,20.074 7.463,22.042 5.484,22.921L3.492,23.806L3.492,20.771L7.022,17.24L5.962,16.18L3.492,18.65L3.492,10.71L1.992,10.71L1.992,18.65L-0.478,16.18L-1.538,17.24L1.992,20.771L1.992,23.806L0,22.92ZM9.641,12.679L10.242,13.486L10.844,12.679C11.42,11.904 12.295,11.46 13.242,11.46C14.753,11.46 15.995,12.587 16.2,14.042C15.72,14.259 15.286,14.576 14.93,14.98L16.055,15.971C16.481,15.488 17.097,15.21 17.742,15.21C18.983,15.21 19.992,16.22 19.992,17.46C19.992,18.701 18.983,19.71 17.742,19.71L9.993,19.71C10.149,19.13 10.242,18.527 10.242,17.908C10.242,16.481 9.812,15.106 9,13.931L7.296,11.47C8.197,11.492 9.077,11.921 9.641,12.679M16.388,32.917L16.682,33.21L2.332,33.21L1.696,32.483C1.478,32.233 1.25,31.994 1.018,31.761L1.496,31.442C3.442,30.146 5.705,29.46 8.042,29.46C11.195,29.46 14.159,30.688 16.388,32.917M-19.78,32.792C-17.147,30.161 -13.647,28.71 -9.923,28.71C-6.025,28.71 -2.322,30.353 0.314,33.21L-20.197,33.21L-19.78,32.792ZM-16.33,17.457C-18.946,15.792 -20.508,12.947 -20.508,9.846C-20.508,8.103 -20.008,6.408 -19.061,4.945L-12.998,-4.423L-12.132,-3.124L-10.884,-3.955L-13.018,-7.156L-16.327,-2.04L-21.258,-2.04C-22.498,-2.04 -23.508,-3.049 -23.508,-4.29C-23.508,-5.531 -22.498,-6.54 -21.258,-6.54C-20.613,-6.54 -19.997,-6.262 -19.57,-5.778L-18.445,-6.769C-18.802,-7.173 -19.236,-7.491 -19.716,-7.707C-19.51,-9.163 -18.269,-10.29 -16.758,-10.29C-15.811,-10.29 -14.936,-9.846 -14.359,-9.071L-13.758,-8.264L-13.156,-9.071C-12.58,-9.846 -11.705,-10.29 -10.758,-10.29C-9.247,-10.29 -8.005,-9.163 -7.8,-7.708C-8.28,-7.491 -8.714,-7.174 -9.07,-6.77L-7.945,-5.779C-7.519,-6.262 -6.903,-6.54 -6.258,-6.54C-5.018,-6.54 -4.008,-5.531 -4.008,-4.29C-4.008,-3.049 -5.018,-2.04 -6.258,-2.04L-11.369,-2.04L-6.955,4.944C-6.009,6.407 -5.508,8.102 -5.508,9.845C-5.508,12.947 -7.07,15.792 -9.686,17.456L-12.258,19.094L-12.258,15.521L-8.728,11.99L-9.788,10.93L-12.258,13.4L-12.258,8.771L-8.728,5.24L-9.788,4.18L-12.258,6.65L-12.258,-1.29L-13.758,-1.29L-13.758,6.65L-16.228,4.18L-17.288,5.24L-13.758,8.771L-13.758,13.4L-16.228,10.93L-17.288,11.99L-13.758,15.521L-13.758,19.094L-16.33,17.457ZM6.094,24.291C7.536,23.65 8.672,22.547 9.392,21.21L17.742,21.21C19.81,21.21 21.492,19.528 21.492,17.46C21.492,15.392 19.81,13.71 17.742,13.71C17.72,13.71 17.697,13.713 17.674,13.714C17.318,11.587 15.469,9.96 13.242,9.96C12.116,9.96 11.061,10.374 10.242,11.119C9.423,10.374 8.368,9.96 7.242,9.96C6.94,9.96 6.637,9.99 6.379,10.043L6.315,10.053L2.742,4.892L-3.516,13.931C-4.328,15.105 -4.758,16.48 -4.758,17.908C-4.758,20.666 -3.13,23.172 -0.61,24.292L1.992,25.448L1.992,29.425C1.538,29.657 1.092,29.909 0.664,30.194L-0.124,30.719C-2.867,28.468 -6.324,27.21 -9.923,27.21C-10.714,27.21 -11.491,27.287 -12.258,27.403L-12.258,20.872L-8.881,18.722C-5.83,16.781 -4.008,13.463 -4.008,9.846C-4.008,7.814 -4.591,5.837 -5.692,4.137L-8.647,-0.54L-6.258,-0.54C-4.19,-0.54 -2.508,-2.222 -2.508,-4.29C-2.508,-6.358 -4.19,-8.04 -6.258,-8.04C-6.28,-8.04 -6.303,-8.037 -6.326,-8.036C-6.682,-10.163 -8.531,-11.79 -10.758,-11.79C-11.884,-11.79 -12.939,-11.376 -13.758,-10.631C-14.577,-11.376 -15.632,-11.79 -16.758,-11.79C-18.985,-11.79 -20.833,-10.163 -21.19,-8.036C-21.213,-8.037 -21.235,-8.04 -21.258,-8.04C-23.326,-8.04 -25.008,-6.358 -25.008,-4.29C-25.008,-2.222 -23.326,-0.54 -21.258,-0.54L-17.298,-0.54L-20.32,4.13C-21.424,5.837 -22.008,7.814 -22.008,9.846C-22.008,13.463 -20.186,16.781 -17.135,18.723L-13.758,20.872L-13.758,27.706C-16.413,28.382 -18.853,29.744 -20.84,31.732L-22.318,33.21L-25.008,33.21L-25.008,34.71L21.492,34.71L21.492,33.21L18.803,33.21L17.449,31.856C14.936,29.344 11.596,27.96 8.042,27.96C6.476,27.96 4.941,28.24 3.492,28.768L3.492,25.448L6.094,24.291Z" style="fill:rgb(242,80,76);fill-rule:nonzero;"/>
                </g>
            </g>
        </g>
    </g>
</svg>
