<svg xmlns="http://www.w3.org/2000/svg" viewBox="0 0 48 48">
    <path fill="#50b6b1" d="M46.4 45.8a.8.8 0 01-1.6 0V41a2.3 2.3 0 00-4.6 0v4.7a.8.8 0 01-1.5 0V41a2.3 2.3 0 00-4.7 0v4.7a.8.8 0 01-1.5 0v-7c0-1 .7-1.9 1.7-2.2l3.7-1v-26a1.5 1.5 0 013 0v26l3.8 1c1 .3 1.7 1.2 1.7 2.2zM45 35l-2.6-.7V9.5a3 3 0 00-6.2 0v24.9l-2.6.7c-1.6.5-2.8 2-2.8 3.7v7a2.3 2.3 0 004.7 0V41a.8.8 0 011.5 0v4.7a2.3 2.3 0 004.6 0V41a.8.8 0 011.6 0v4.7a2.3 2.3 0 004.6 0v-7c0-1.7-1.1-3.2-2.8-3.7M27.3 44.4a2.3 2.3 0 01-2.3 2.1H7.5c-1.2 0-2.2-.9-2.3-2L5 40H5.5l9.8-1c5.6-.8 10.5-4 13.3-8.7zM3.3 22h20.2a4.6 4.6 0 001.6 5.2c-2 4-6 6.7-10.3 7.2L4.5 35.5zM1.6 18c0-.4.4-.8.8-.8h27.8c.4 0 .7.4.7.8V20a4.6 4.6 0 00-6.5.4h-22a.8.8 0 01-.8-.7zM5 3.7l3.2-1.6 6.2 13.6h-4.2zM21.7 8h1.5v7.7h-1.5zm-3.1 1.5V8c0-2.5 1.3-4.8 3.3-6H23c2 1.2 3.3 3.5 3.3 6v1.6h-1.5v-3H20v3zm9.3 17a3 3 0 110-6.2 3 3 0 010 6.2M3.9 38a2 2 0 01-.6-.8l11.6-1.4c5-.5 9.3-3.6 11.5-8 .5.2 1 .2 1.5.2h.1a16.3 16.3 0 01-12.9 9.4l-9.7 1a2 2 0 01-1.6-.4m28.7-14.6c0-.8-.2-1.6-.6-2.3.4-.4.6-1 .6-1.5V18c0-1.3-1-2.3-2.3-2.3h-5.4v-4.6h3V7.9c0-3-1.6-6-4.2-7.5l-.2-.1h-2.1A8.8 8.8 0 0017 8V11h3v4.6h-4L8.9 0 3 3l5.6 12.7h-6C1 15.7 0 16.7 0 18v1.6c0 1 .7 1.8 1.6 2.1l1.2 14-1.3.2v.6a3.5 3.5 0 001.7 3l.4 5c.2 2 1.8 3.6 3.8 3.6H25c2 0 3.7-1.5 3.9-3.5l1.5-17.3c1.3-.9 2-2.3 2-3.9"/>
</svg>
