<?xml version="1.0" encoding="UTF-8" standalone="no"?>
<!DOCTYPE svg PUBLIC "-//W3C//DTD SVG 1.1//EN" "http://www.w3.org/Graphics/SVG/1.1/DTD/svg11.dtd">
<svg width="100%" height="100%" viewBox="0 0 48 48" version="1.1" xmlns="http://www.w3.org/2000/svg" xmlns:xlink="http://www.w3.org/1999/xlink" xml:space="preserve" xmlns:serif="http://www.serif.com/" style="fill-rule:evenodd;clip-rule:evenodd;stroke-linejoin:round;stroke-miterlimit:2;">
    <g transform="matrix(1,0,0,1,-384,0)">
        <g transform="matrix(1,0,0,1,384,0)">
            <rect id="Artboard1" x="0" y="0" width="48" height="48" style="fill-opacity:0;"/>
            <clipPath id="_clip1">
                <rect id="Artboard11" serif:id="Artboard1" x="0" y="0" width="48" height="48"/>
            </clipPath>
            <g clip-path="url(#_clip1)">
                <g transform="matrix(1,0,0,1,29.6672,47.3117)">
                    <path d="M0,-20.495L-1.565,-2.814C-1.704,-1.218 -3.038,0 -4.634,0L-22.122,0C-23.718,0 -25.052,-1.218 -25.191,-2.814L-25.677,-8.296C-25.238,-8.088 -24.736,-7.996 -24.212,-8.057L-14.465,-9.175C-7.873,-9.947 -2.537,-14.396 -0.362,-20.325L-0.362,-20.333C-0.239,-20.379 -0.116,-20.433 0,-20.495" style="fill:rgb(255,194,192);fill-rule:nonzero;"/>
                </g>
                <g transform="matrix(1,0,0,1,24,34.0655)">
                    <path d="M0,-10.657C0,-9.184 0.825,-7.904 2.043,-7.256C0.077,-2.838 -4.087,0.416 -9.161,1.009L-20.241,2.313L-21.59,-12.97L0.771,-12.97C0.285,-12.33 0,-11.528 0,-10.657" style="fill:rgb(255,194,192);fill-rule:nonzero;"/>
                </g>
                <g transform="matrix(1,0,0,1,31.7108,19.5529)">
                    <path d="M0,-1.542L0,0C0,0.617 -0.363,1.149 -0.887,1.396C-1.596,0.54 -2.66,0 -3.855,0C-5.113,0 -6.238,0.609 -6.932,1.542L-29.301,1.542C-30.149,1.542 -30.843,0.849 -30.843,0L-30.843,-1.542C-30.843,-2.39 -30.149,-3.084 -29.301,-3.084L-1.542,-3.084C-0.694,-3.084 0,-2.39 0,-1.542" style="fill:rgb(255,218,215);fill-rule:nonzero;"/>
                </g>
                <g transform="matrix(1,0,0,1,29.305,39.1384)">
                    <path d="M0,-12.152C-2.175,-6.222 -7.511,-1.773 -14.103,-1.002L-23.85,0.116C-24.374,0.177 -24.875,0.085 -25.315,-0.123C-26.24,-0.555 -26.895,-1.496 -26.895,-2.598L-25.546,-2.76L-14.466,-4.063C-9.392,-4.657 -5.228,-7.911 -3.262,-12.329C-2.722,-12.036 -2.105,-11.874 -1.45,-11.874C-0.941,-11.874 -0.447,-11.975 0,-12.152" style="fill:rgb(255,218,215);fill-rule:nonzero;"/>
                </g>
                <g transform="matrix(1,0,0,1,26.0433,20.0081)">
                    <path d="M0,6.801C-1.218,6.153 -2.043,4.873 -2.043,3.4C-2.043,2.529 -1.758,1.727 -1.272,1.087L-1.265,1.087C-0.571,0.154 0.555,-0.455 1.812,-0.455C3.007,-0.455 4.071,0.085 4.78,0.941C5.336,1.612 5.667,2.467 5.667,3.4C5.667,4.873 4.842,6.153 3.624,6.809C3.508,6.87 3.385,6.925 3.262,6.97L3.262,6.978C2.814,7.156 2.321,7.256 1.812,7.256C1.157,7.256 0.539,7.094 0,6.801" style="fill:rgb(255,168,166);fill-rule:nonzero;"/>
                </g>
                <g transform="matrix(1,0,0,1,47.1325,15.6816)">
                    <path d="M0,23.164L0,30.088C0,30.513 -0.17,30.898 -0.455,31.176C-0.733,31.461 -1.118,31.63 -1.542,31.63C-2.39,31.63 -3.084,30.937 -3.084,30.088L-3.084,25.462C-3.084,25.038 -3.254,24.652 -3.539,24.375C-3.817,24.089 -4.202,23.92 -4.626,23.92C-5.475,23.92 -6.169,24.613 -6.169,25.462L-6.169,30.088C-6.169,30.513 -6.338,30.898 -6.624,31.176C-6.901,31.461 -7.287,31.63 -7.711,31.63C-8.559,31.63 -9.253,30.937 -9.253,30.088L-9.253,25.462C-9.253,25.038 -9.423,24.652 -9.708,24.375C-9.986,24.089 -10.371,23.92 -10.795,23.92C-11.643,23.92 -12.337,24.613 -12.337,25.462L-12.337,30.088C-12.337,30.513 -12.507,30.898 -12.792,31.176C-13.07,31.461 -13.455,31.63 -13.88,31.63C-14.728,31.63 -15.422,30.937 -15.422,30.088L-15.422,23.164C-15.422,21.784 -14.512,20.573 -13.186,20.195L-10.024,19.293L-10.024,-6.153C-10.024,-6.793 -9.762,-7.371 -9.346,-7.787C-8.929,-8.203 -8.351,-8.466 -7.711,-8.466C-6.431,-8.466 -5.398,-7.432 -5.398,-6.153L-5.398,19.293L-2.236,20.195C-0.91,20.573 0,21.784 0,23.164" style="fill:rgb(255,239,239);fill-rule:nonzero;"/>
                </g>
                <g transform="matrix(0.413754,0.910389,0.910389,-0.413754,16.2966,4.48337)">
                    <path d="M-6.322,-5.605L10.618,-5.605L8.162,-11.01L-6.13,-10.774L-6.322,-5.605Z" style="fill:rgb(255,239,239);fill-rule:nonzero;"/>
                </g>
                <g transform="matrix(1,0,0,1,24,13.385)">
                    <rect x="-3.084" y="-6.169" width="3.084" height="9.253" style="fill:rgb(255,199,197);fill-rule:nonzero;"/>
                </g>
                <g transform="matrix(1,0,0,1,27.0843,3.4909)">
                    <path d="M0,4.365L0,6.809L-3.084,6.809L-3.084,3.725L-6.169,3.725L-6.169,6.809L-9.253,6.809L-9.253,4.365C-9.253,1.574 -7.788,-1.01 -5.397,-2.444L-3.855,-2.444C-2.66,-1.726 -1.696,-0.724 -1.033,0.456C-0.37,1.628 0,2.969 0,4.365" style="fill:rgb(255,223,222);fill-rule:nonzero;"/>
                </g>
                <g transform="matrix(1,0,0,1,46.3614,8.758)">
                    <path d="M0,37.012C0,37.438 -0.346,37.783 -0.771,37.783C-1.196,37.783 -1.542,37.438 -1.542,37.012L-1.542,32.386C-1.542,31.11 -2.58,30.072 -3.855,30.072C-5.131,30.072 -6.169,31.11 -6.169,32.386L-6.169,37.012C-6.169,37.438 -6.515,37.783 -6.94,37.783C-7.365,37.783 -7.711,37.438 -7.711,37.012L-7.711,32.386C-7.711,31.11 -8.749,30.072 -10.024,30.072C-11.3,30.072 -12.337,31.11 -12.337,32.386L-12.337,37.012C-12.337,37.438 -12.684,37.783 -13.108,37.783C-13.534,37.783 -13.88,37.438 -13.88,37.012L-13.88,30.086C-13.88,29.059 -13.189,28.144 -12.202,27.862L-8.482,26.798L-8.482,0.771C-8.482,-0.079 -7.79,-0.771 -6.94,-0.771C-6.089,-0.771 -5.398,-0.079 -5.398,0.771L-5.398,26.798L-1.678,27.861C-0.69,28.144 0,29.059 0,30.086L0,37.012ZM-1.254,26.378L-3.855,25.636L-3.855,0.771C-3.855,-0.93 -5.239,-2.313 -6.94,-2.313C-8.641,-2.313 -10.024,-0.93 -10.024,0.771L-10.024,25.636L-12.626,26.379C-14.272,26.849 -15.422,28.374 -15.422,30.086L-15.422,37.012C-15.422,38.288 -14.384,39.325 -13.108,39.325C-11.833,39.325 -10.795,38.288 -10.795,37.012L-10.795,32.386C-10.795,31.96 -10.449,31.614 -10.024,31.614C-9.599,31.614 -9.253,31.96 -9.253,32.386L-9.253,37.012C-9.253,38.288 -8.215,39.325 -6.94,39.325C-5.665,39.325 -4.627,38.288 -4.627,37.012L-4.627,32.386C-4.627,31.96 -4.28,31.614 -3.855,31.614C-3.431,31.614 -3.084,31.96 -3.084,32.386L-3.084,37.012C-3.084,38.288 -2.047,39.325 -0.771,39.325C0.504,39.325 1.542,38.288 1.542,37.012L1.542,30.086C1.542,28.374 0.392,26.849 -1.254,26.378" style="fill:rgb(242,80,76);fill-rule:nonzero;"/>
                </g>
                <g transform="matrix(1,0,0,1,27.3355,3.6525)">
                    <path d="M0,40.779C-0.106,41.981 -1.097,42.889 -2.305,42.889L-19.788,42.889C-20.996,42.889 -21.986,41.981 -22.092,40.779L-22.482,36.363C-22.384,36.371 -22.289,36.389 -22.191,36.389C-22.059,36.389 -21.927,36.381 -21.794,36.367L-12.043,35.253C-6.415,34.59 -1.564,31.371 1.251,26.614L0,40.779ZM-24.084,18.214L-3.837,18.214C-4.008,18.697 -4.107,19.215 -4.107,19.756C-4.107,21.253 -3.389,22.583 -2.282,23.43C-4.283,27.39 -8.17,30.139 -12.583,30.658L-22.879,31.868L-24.084,18.214ZM-25.697,14.358C-25.697,13.933 -25.351,13.587 -24.926,13.587L2.833,13.587C3.258,13.587 3.604,13.933 3.604,14.358L3.604,15.901C3.604,16.021 3.569,16.134 3.518,16.239C2.71,15.549 1.663,15.13 0.52,15.13C-0.846,15.13 -2.071,15.728 -2.919,16.672L-24.926,16.672C-25.351,16.672 -25.697,16.326 -25.697,15.901L-25.697,14.358ZM-22.385,0.071L-19.128,-1.558L-12.945,12.045L-17.179,12.045L-22.385,0.071ZM-5.649,4.334L-4.107,4.334L-4.107,12.045L-5.649,12.045L-5.649,4.334ZM-8.733,5.876L-8.733,4.204C-8.733,1.77 -7.473,-0.525 -5.429,-1.834L-4.326,-1.834C-2.283,-0.525 -1.022,1.77 -1.022,4.204L-1.022,5.876L-2.564,5.876L-2.564,2.792L-7.191,2.792L-7.191,5.876L-8.733,5.876ZM0.52,22.84C-1.181,22.84 -2.564,21.457 -2.564,19.756C-2.564,18.055 -1.181,16.672 0.52,16.672C2.221,16.672 3.604,18.055 3.604,19.756C3.604,21.457 2.221,22.84 0.52,22.84M-23.499,34.35C-23.747,34.128 -23.93,33.858 -24.038,33.558L-12.404,32.19C-7.487,31.611 -3.156,28.557 -0.918,24.151C-0.466,24.299 0.017,24.383 0.52,24.383C0.577,24.383 0.634,24.377 0.691,24.374C-1.699,29.514 -6.527,33.051 -12.222,33.721L-21.97,34.835C-22.535,34.898 -23.076,34.727 -23.499,34.35M5.146,19.756C5.146,18.921 4.921,18.139 4.532,17.462C4.917,17.042 5.146,16.488 5.146,15.901L5.146,14.358C5.146,13.083 4.108,12.045 2.833,12.045L-2.564,12.045L-2.564,7.419L0.52,7.419L0.52,4.204C0.52,1.162 -1.101,-1.701 -3.71,-3.266L-3.893,-3.377L-5.863,-3.377L-6.046,-3.266C-8.655,-1.701 -10.275,1.162 -10.275,4.204L-10.275,7.419L-7.191,7.419L-7.191,12.045L-11.251,12.045L-18.386,-3.652L-24.383,-0.655L-18.861,12.045L-24.926,12.045C-26.201,12.045 -27.239,13.083 -27.239,14.358L-27.239,15.901C-27.239,16.925 -26.566,17.784 -25.643,18.089L-24.412,32.049L-25.697,32.2L-25.697,32.886C-25.697,33.884 -25.27,34.836 -24.526,35.501C-24.386,35.626 -24.233,35.733 -24.077,35.832L-23.628,40.915C-23.452,42.919 -21.801,44.431 -19.788,44.431L-2.304,44.431C-0.292,44.431 1.359,42.919 1.536,40.914L3.062,23.617C4.317,22.789 5.146,21.369 5.146,19.756" style="fill:rgb(242,80,76);fill-rule:nonzero;"/>
                </g>
            </g>
        </g>
    </g>
</svg>
