<svg width="48" height="48" viewBox="0 0 48 48" fill="none" xmlns="http://www.w3.org/2000/svg">
<g style="mix-blend-mode:luminosity" opacity="0.5" clip-path="url(#clip0_3_299)">
<path d="M29.6126 26.8167L28.0474 44.4977C27.9085 46.0938 26.5745 47.3121 24.9785 47.3121H7.4902C5.89419 47.3121 4.56023 46.0938 4.4213 44.4977L3.93561 39.0154C4.37499 39.2237 4.8765 39.3159 5.40059 39.2545L15.1472 38.1363C21.7398 37.3652 27.0757 32.916 29.2504 26.9865V26.9785C29.3739 26.9326 29.497 26.8784 29.6126 26.8167Z" fill="#CF9E76"/>
<path d="M23.9454 23.4085C23.9454 24.8814 24.7703 26.1615 25.9887 26.8091C24.0222 31.2274 19.8584 34.4811 14.7846 35.0749L3.70444 36.3783L2.35504 21.0952H24.7165C24.2304 21.7353 23.9454 22.5372 23.9454 23.4085Z" fill="#CF9E76"/>
<path d="M31.6562 18.0109V19.5531C31.6562 20.1702 31.2937 20.7022 30.7692 20.9488C30.0599 20.093 28.9958 19.5531 27.8008 19.5531C26.5437 19.5531 25.4179 20.1623 24.724 21.0953H2.35503C1.50677 21.0953 0.812866 20.4014 0.812866 19.5531V18.0109C0.812866 17.1627 1.50677 16.4688 2.35503 16.4688H30.1141C30.962 16.4688 31.6562 17.1627 31.6562 18.0109Z" fill="#ECC19C"/>
<path d="M29.2504 26.9864C27.0757 32.916 21.7398 37.3652 15.1472 38.1363L5.4006 39.2545C4.8765 39.3159 4.375 39.2236 3.93561 39.0154C3.01016 38.5836 2.35504 37.6427 2.35504 36.5403L3.70444 36.3784L14.7846 35.0749C19.8584 34.4811 24.0222 31.2274 25.9887 26.8091C26.5282 27.102 27.1453 27.2639 27.8008 27.2639C28.3095 27.2639 28.8031 27.1638 29.2504 26.9864Z" fill="#ECC19C"/>
<path d="M25.9887 26.8091C24.7703 26.1615 23.9454 24.8814 23.9454 23.4085C23.9454 22.5373 24.2304 21.7353 24.7165 21.0953H24.724C25.4179 20.1623 26.5437 19.5531 27.8008 19.5531C28.9959 19.5531 30.0599 20.093 30.7692 20.9488C31.3245 21.6197 31.6562 22.4755 31.6562 23.4085C31.6562 24.8814 30.8309 26.1615 29.6126 26.8167C29.497 26.8784 29.3739 26.9326 29.2504 26.9786V26.9865C28.8031 27.1638 28.3095 27.2639 27.8008 27.2639C27.1453 27.2639 26.5282 27.102 25.9887 26.8091Z" fill="#B27946"/>
<path d="M47.0779 38.8456V45.7699C47.0779 46.1942 46.9081 46.5798 46.6227 46.8573C46.3453 47.1427 45.9597 47.3121 45.5358 47.3121C44.6875 47.3121 43.9936 46.6182 43.9936 45.7699V41.1434C43.9936 40.7195 43.8238 40.3339 43.5384 40.0564C43.2609 39.771 42.8754 39.6012 42.4514 39.6012C41.6032 39.6012 40.9093 40.2951 40.9093 41.1434V45.7699C40.9093 46.1942 40.7395 46.5798 40.4541 46.8573C40.1766 47.1427 39.791 47.3121 39.3671 47.3121C38.5188 47.3121 37.8249 46.6182 37.8249 45.7699V41.1434C37.8249 40.7195 37.6551 40.3339 37.3697 40.0564C37.0922 39.771 36.7067 39.6012 36.2828 39.6012C35.4345 39.6012 34.7406 40.2951 34.7406 41.1434V45.7699C34.7406 46.1942 34.5708 46.5798 34.2854 46.8573C34.0079 47.1427 33.6224 47.3121 33.1984 47.3121C32.3502 47.3121 31.6562 46.6182 31.6562 45.7699V38.8456C31.6562 37.4653 32.5659 36.2549 33.8923 35.8768L37.0538 34.9747V9.52895C37.0538 8.88889 37.3159 8.31058 37.7323 7.89416C38.1487 7.47812 38.727 7.2157 39.3671 7.2157C40.6468 7.2157 41.6803 8.24921 41.6803 9.52895V34.9747L44.8415 35.8768C46.1679 36.2549 47.0779 37.4653 47.0779 38.8456Z" fill="#FFEAA7"/>
<path d="M8.52372 1.04712L15.5328 16.4688H9.59526L3.89722 3.36037L8.52372 1.04712Z" fill="#FCD770"/>
<path d="M23.9454 10.3V16.4687H20.8611V7.2157H23.9454V10.3Z" fill="#AAB2BD"/>
<path d="M27.0297 7.85585V10.3001H23.9454V7.21579H20.8611V10.3001H17.7767V7.85585C17.7767 5.06444 19.2417 2.48123 21.6322 1.04712H23.1743C24.3694 1.76436 25.3332 2.76662 25.9962 3.94659C26.6596 5.11866 27.0297 6.46015 27.0297 7.85585Z" fill="#CCD1D9"/>
<path d="M45.0531 35.136L42.4514 34.3935V9.52904C42.4514 7.82799 41.0678 6.4447 39.3671 6.4447C37.666 6.4447 36.2828 7.82799 36.2828 9.52904V34.3935L33.6811 35.1367C32.0346 35.6074 30.8852 37.1322 30.8852 38.8442V45.77C30.8852 47.0456 31.9228 48.0833 33.1984 48.0833C34.4736 48.0833 35.5117 47.0456 35.5117 45.77V41.1435C35.5117 40.718 35.8577 40.3724 36.2828 40.3724C36.7075 40.3724 37.0538 40.718 37.0538 41.1435V45.77C37.0538 47.0456 38.0915 48.0833 39.3671 48.0833C40.6423 48.0833 41.6803 47.0456 41.6803 45.77V41.1435C41.6803 40.718 42.0264 40.3724 42.4514 40.3724C42.8761 40.3724 43.2225 40.718 43.2225 41.1435V45.77C43.2225 47.0456 44.2602 48.0833 45.5358 48.0833C46.811 48.0833 47.849 47.0456 47.849 45.77V38.8442C47.849 37.1322 46.6992 35.6074 45.0531 35.136ZM46.3068 45.77C46.3068 46.1958 45.9605 46.5411 45.5358 46.5411C45.1107 46.5411 44.7647 46.1958 44.7647 45.77V41.1435C44.7647 39.8683 43.7267 38.8302 42.4514 38.8302C41.1758 38.8302 40.1382 39.8683 40.1382 41.1435V45.77C40.1382 46.1958 39.7918 46.5411 39.3671 46.5411C38.942 46.5411 38.596 46.1958 38.596 45.77V41.1435C38.596 39.8683 37.558 38.8302 36.2828 38.8302C35.0072 38.8302 33.9695 39.8683 33.9695 41.1435V45.77C33.9695 46.1958 33.6231 46.5411 33.1984 46.5411C32.7733 46.5411 32.4273 46.1958 32.4273 45.77V38.8442C32.4273 37.8171 33.1175 36.9018 34.105 36.6198L37.8249 35.5561V9.52904C37.8249 8.67851 38.5166 7.98687 39.3671 7.98687C40.2176 7.98687 40.9093 8.67851 40.9093 9.52904V35.5561L44.6288 36.619C45.6167 36.9018 46.3068 37.8171 46.3068 38.8442V45.77Z" fill="black"/>
<path d="M32.4273 23.4085C32.4273 22.5734 32.2014 21.7918 31.8132 21.1145C32.198 20.6943 32.4273 20.1408 32.4273 19.5531V18.0109C32.4273 16.7357 31.3893 15.6977 30.1141 15.6977H24.7165V11.0712H27.8008V7.85655C27.8008 4.81401 26.18 1.95143 23.5711 0.386295L23.3878 0.275979H21.4183L21.2349 0.386295C18.6261 1.95143 17.0056 4.81401 17.0056 7.85655V11.0712H20.09V15.6977H16.0301L8.89456 0L2.89833 2.99736L8.42017 15.6977H2.35503C1.07943 15.6977 0.0417786 16.7357 0.0417786 18.0109V19.5531C0.0417786 20.5772 0.714595 21.4367 1.63779 21.7413L2.86934 35.7011L1.58395 35.8524V36.5388C1.58395 37.5365 2.01091 38.4887 2.75526 39.1532C2.89532 39.2782 3.04743 39.3855 3.20368 39.4849L3.65247 44.567C3.82905 46.5712 5.48003 48.0832 7.49246 48.0832H24.977C26.9894 48.0832 28.6404 46.5712 28.817 44.5663L30.343 27.2696C31.5975 26.4413 32.4273 25.0211 32.4273 23.4085ZM3.78199 38.0023C3.53387 37.7809 3.35127 37.5102 3.24246 37.2101L14.8772 35.8422C19.7937 35.2639 24.125 32.209 26.3626 27.8038C26.8151 27.9518 27.2978 28.035 27.8008 28.035C27.8584 28.035 27.9149 28.029 27.9718 28.0267C25.5821 33.1668 20.7538 36.7037 15.0591 37.3739L5.3106 38.4879C4.74584 38.5504 4.20481 38.3791 3.78199 38.0023ZM27.8008 26.4928C26.0998 26.4928 24.7165 25.1096 24.7165 23.4085C24.7165 21.7075 26.0998 20.3242 27.8008 20.3242C29.5015 20.3242 30.8852 21.7075 30.8852 23.4085C30.8852 25.1096 29.5015 26.4928 27.8008 26.4928ZM18.5478 9.52899V7.85655C18.5478 5.42244 19.8083 3.12764 21.8516 1.81815H22.9552C24.9977 3.12764 26.2586 5.42244 26.2586 7.85655V9.52899H24.7165V6.44465H20.09V9.52899H18.5478ZM21.6321 7.98682H23.1743V15.6977H21.6321V7.98682ZM4.89569 3.72364L8.15285 2.09488L14.3358 15.6977H10.102L4.89569 3.72364ZM1.58395 18.0109C1.58395 17.5855 1.92996 17.2398 2.35503 17.2398H30.1141C30.5388 17.2398 30.8852 17.5855 30.8852 18.0109V19.5531C30.8852 19.6736 30.8501 19.7869 30.7986 19.8916C29.9906 19.2014 28.9443 18.782 27.8008 18.782C26.4352 18.782 25.2097 19.3803 24.3618 20.3242H2.35503C1.92996 20.3242 1.58395 19.9789 1.58395 19.5531V18.0109ZM3.1969 21.8663H23.4439C23.273 22.3498 23.1743 22.8671 23.1743 23.4085C23.1743 24.9059 23.8919 26.2353 24.9992 27.0821C22.9977 31.0422 19.1107 33.7914 14.6977 34.3102L4.40209 35.5207L3.1969 21.8663ZM27.2809 44.4315C27.1747 45.6337 26.1837 46.541 24.9763 46.541H7.49246C6.285 46.541 5.29441 45.6337 5.18862 44.4315L4.79931 40.0154C4.89645 40.0237 4.99208 40.0418 5.08997 40.0418C5.22175 40.0418 5.35428 40.0339 5.48719 40.0192L15.2383 38.9051C20.8656 38.2428 25.7165 35.0233 28.5316 30.2666L27.2809 44.4315Z" fill="black"/>
</g>
<defs>
<clipPath id="clip0_3_299">
<rect width="48" height="48" fill="white"/>
</clipPath>
</defs>
</svg>
