<svg xmlns="http://www.w3.org/2000/svg" viewBox="0 0 48 48">
    <path fill="#50b6b1" d="m42.8 42-1.4-.8v-3.6l3.1-1.8 1.4.8c-.7 2-1.7 3.8-3.1 5.3M29.5 46v-1.5l3-1.9 3.2 1.9V46a13.8 13.8 0 01-6.2 0m-10.2-9.4 1.3-.8 3.2 1.8-.1 3.6-1.3.7a13.9 13.9 0 01-3.1-5.3m-3.4-10.3 3.2-3.2.7.7c-.6.8-1 1.6-1.4 2.5zM5.9 3.5C6 2.4 7 1.5 8 1.5H40c1.1 0 2 .9 2.3 2l3 20.3L44 22 41 4.4c-.1-.7-.8-1.3-1.5-1.3H8.8c-.8 0-1.4.6-1.6 1.3L3.4 26.3H1.8zm34.7 32.7-3.4-2v-3.5l3.4-2 4 2.2 1.6-1a14 14 0 010 5.1l-1.7-1zm-7.3 1.3 3.2-1.9 3.3 2L40 42l1.7 1a14 14 0 01-4.4 2.5v-2l-3.9-2.3zm-14.6-5c0-.9 0-1.7.2-2.6l1.7 1 4-2.2 3.3 2v3.6l-3.4 2-3.9-2.3-1.7 1a14 14 0 01-.2-2.5m3.7-9.5 1.3.8v3.6l-3 1.7-1.4-.7a14 14 0 013-5.4m1.8-4.9.9 1c-1.6.9-3.1 2-4.3 3.5l-.6-.6zm-9-1 4-4 3.9 4-4 3.9zm-5 5 4-4 3.9 4-4 3.9zm-1 1 3 3.2H6zm-3-3 1.8 2-2.7 2.6zm1.4-8.5.4.4-.5.5zm3.1-7L13 7 9 11 8 9.7l.9-5.1zM14 6l-1.2-1.2h2.5zM10.1 12l4-4 3.9 4-4 4zm-3.2 3.2L9 13l4 4L9 21l-2.6-2.7zM20.7 4.7 23 7l-4 4-3.9-4 2.3-2.3zM24 5.9l-1.3-1.2h2.5zm6.6-1.2L33 7l-3.9 4-4-4 2.4-2.3zm3.4 1.2L33 4.7h2.4zm5 5-3.9-4 2.3-2.2h1.9l.9 5zm1.1 1.1.4-.4.2 1zM35 17.2l4.1-4.1 2.1 2 1 5.3c-2-1.6-4.5-2.7-7.2-3.2m6.4 6.6 1.4-.8a14 14 0 013 5.4l-1.3.7-3.1-1.7zm-7.3-7.9-4-3.9 4-4 4 4zm-1.5 6.4-3.1-1.9V19l3-.3s2.2.1 3.2.3v1.5zM24 15.9 20 12l4-4 3.9 4zm5-2.8 4 4h-.5c-2.2 0-4.3.4-6.2 1.2L25.2 17zm-.5 16.2-3.3-2V23l-1.8-1a14 14 0 014.4-2.5v2l3.9 2.2v3.8zm4 7-3.1-2v-3.7l3-1.9 3.2 1.9v3.8zm7.3-13.4v4.5l-3.4 2-3.2-2v-3.8l4-2.3v-2c1.5.7 3 1.5 4.3 2.6zM28 45.6c-1.6-.6-3-1.5-4.4-2.6l1.7-1 .1-4.4 3.3-2 3.2 2v3.7l-3.9 2.3zM48 30 43.7 3.3A3.8 3.8 0 0040 0H8a3.9 3.9 0 00-3.8 3.2L0 27.8h17.8A15.4 15.4 0 0032.6 48 15.5 15.5 0 0047.8 30"/>
</svg>
