<svg width="48" height="48" viewBox="0 0 48 48" fill="none" xmlns="http://www.w3.org/2000/svg">
<g style="mix-blend-mode:luminosity" opacity="0.5" clip-path="url(#clip0_3_218)">
<path d="M43.045 3.42553L47.0859 30.1124C47.0165 29.648 46.9161 29.193 46.7999 28.7441C46.1744 26.3564 44.9611 24.2086 43.3155 22.4623L43.3231 22.4547L41.9789 14.8125L40.1631 4.53016C40.1012 4.15931 39.7768 3.88919 39.4059 3.88919H8.79401C8.42316 3.88919 8.09872 4.15931 8.03684 4.53016L7.05558 10.0933L6.22107 14.814L5.55671 18.5693L4.07331 27.0064L4.05785 27.0683H0.920898L5.10852 3.34819C5.36355 1.87234 6.6538 0.798645 8.15266 0.798645H39.9854C41.5152 0.798645 42.8134 1.91874 43.045 3.42553Z" fill="#FCD770"/>
<path d="M46.7999 28.7448H46.7845L44.5673 30.0271L40.6268 27.8409L40.7041 23.3363L42.9292 22.0536C43.0684 22.1849 43.1997 22.3162 43.3155 22.4634C44.9611 24.2093 46.1744 26.3571 46.7999 28.7448Z" fill="#969FAA"/>
<path d="M46.7845 36.2082H46.7999C46.128 38.7812 44.768 41.0828 42.9292 42.8994L40.7041 41.6167L40.6268 37.1125L44.5673 34.9259L46.7845 36.2082Z" fill="#969FAA"/>
<path d="M36.4621 46.6234V46.6396C35.2259 46.9791 33.9356 47.1568 32.599 47.1568C31.2623 47.1568 29.9721 46.9791 28.7358 46.6388V44.0663L32.599 41.7484L36.4621 44.0663V46.6234Z" fill="#969FAA"/>
<path d="M24.5712 37.1125L24.4942 41.6167L22.2687 42.8994C20.43 41.0828 19.0703 38.7812 18.398 36.2082H18.4135L20.631 34.9259L24.5712 37.1125Z" fill="#969FAA"/>
<path d="M36.4621 30.1588V34.7946L32.599 37.1125L28.7358 34.7946V30.1588L32.599 27.8409L36.4621 30.1588Z" fill="#969FAA"/>
<path d="M36.4621 18.3297V20.8872L32.599 23.2051L28.7358 20.8872V18.3142C29.9721 17.9743 31.2623 17.7966 32.599 17.7966C32.854 17.7966 33.1011 17.8042 33.3561 17.8121C34.4223 17.8736 35.4654 18.0358 36.4621 18.3142V18.3297Z" fill="#969FAA"/>
<path d="M20.7933 23.7611C21.2335 23.1507 21.7281 22.5799 22.2687 22.0536L24.4942 23.3363L24.5712 27.8409L20.631 30.0271L18.4135 28.7448H18.398C18.5527 28.1729 18.7304 27.6089 18.9545 27.0682C19.4178 25.8783 20.0436 24.7733 20.7933 23.7611Z" fill="#969FAA"/>
<path d="M47.8415 30.0498L47.8608 30.0468L43.8052 3.31046C43.5174 1.40716 41.911 0.026001 39.9862 0.026001H8.14965C6.27163 0.026001 4.67128 1.36793 4.34532 3.21765L0 27.8409H17.8585C17.3975 29.305 17.1463 30.8616 17.1463 32.4767C17.1463 40.9972 24.0785 47.9294 32.599 47.9294C41.1198 47.9294 48.0517 40.9972 48.0517 32.4767C48.0517 31.649 47.9676 30.8424 47.8415 30.0498ZM27.9632 45.5727C26.3424 44.997 24.8579 44.1364 23.5763 43.0393L25.2589 42.0671L25.3348 37.563L28.6539 35.6469L31.8263 37.5498V41.3107L27.9632 43.6286V45.5727ZM39.939 22.8859L39.8636 27.3904L36.544 29.3066L33.3716 27.4033V23.6423L37.2348 21.3244V19.3804C38.8559 19.9561 40.34 20.8166 41.622 21.9137L39.939 22.8859ZM32.599 36.2116L29.5084 34.357V30.5968L32.599 28.7425L35.6895 30.5968V34.357L32.599 36.2116ZM28.6539 29.3066L25.3348 27.3904L25.2589 22.8859L23.5763 21.9137C24.8587 20.8166 26.3424 19.9561 27.9632 19.3804V21.3244L31.8263 23.6423V27.4033L28.6539 29.3066ZM29.1221 13.094L33.0517 17.024L33.0302 17.0455C32.8857 17.0417 32.7442 17.024 32.599 17.024C30.421 17.024 28.3495 17.482 26.4681 18.2988L25.1925 17.024L29.1221 13.094ZM24.1 15.9314L20.1704 12.0019L24.1 8.0719L28.0296 12.0019L24.1 15.9314ZM32.599 22.3042L29.5084 20.4495V18.9277C30.5044 18.7005 31.5358 18.5693 32.599 18.5693C33.6621 18.5693 34.6935 18.7005 35.6895 18.9277V20.4495L32.599 22.3042ZM34.1442 15.9314L30.2147 12.0019L34.1442 8.0719L38.0738 12.0019L34.1442 15.9314ZM41.4688 23.7868L42.7779 23.0319C44.181 24.5432 45.2633 26.3556 45.8877 28.374L44.5601 29.1402L41.4088 27.3912L41.4688 23.7868ZM35.0267 17.2341L39.1664 13.094L41.2594 15.1875L42.1735 20.3699C40.1416 18.7598 37.6977 17.6582 35.0267 17.2341ZM40.2589 12.0019L40.632 11.6284L40.792 12.5342L40.2589 12.0019ZM39.1664 10.9093L35.2368 6.97972L37.5547 4.66182H39.4029L40.3046 9.77185L39.1664 10.9093ZM34.1442 5.88717L32.9189 4.66182H35.3696L34.1442 5.88717ZM30.7338 4.66182L33.0517 6.97972L29.1221 10.9093L25.1925 6.97972L27.5104 4.66182H30.7338ZM24.1 5.88717L22.8746 4.66182H25.3253L24.1 5.88717ZM20.6895 4.66182L23.0074 6.97972L19.0778 10.9093L15.1483 6.97972L17.4662 4.66182H20.6895ZM6.93976 15.1882L9.03358 13.094L12.9632 17.024L9.03358 20.9536L6.38971 18.3093L6.93976 15.1882ZM10.1261 12.0019L14.0557 8.0719L17.9853 12.0019L14.0557 15.9314L10.1261 12.0019ZM14.0557 5.88717L12.8304 4.66182H15.2811L14.0557 5.88717ZM10.6452 4.66182L12.9632 6.97972L9.03358 10.9093L7.89575 9.77185L8.79741 4.66182H10.6452ZM7.56791 11.6291L7.94102 12.0026L7.40795 12.5357L7.56791 11.6291ZM6.06225 20.167L7.94102 22.0461L5.25717 24.73L6.06225 20.167ZM9.03358 23.1383L12.1905 26.2956H5.87663L9.03358 23.1383ZM10.1261 22.0461L14.0557 18.1162L17.9853 22.0461L14.0557 25.9757L10.1261 22.0461ZM15.1483 17.024L19.0778 13.094L23.0074 17.024L19.0778 20.9536L15.1483 17.024ZM24.1 18.1162L25.0133 19.0295C23.3768 19.9561 21.9228 21.166 20.7261 22.6022L20.1704 22.0461L24.1 18.1162ZM22.4204 23.0312L23.7291 23.7861L23.7902 27.3897L20.6386 29.1387L19.3114 28.3725C19.9346 26.3556 21.0174 24.5425 22.4204 23.0312ZM18.6915 32.4767C18.6915 31.6098 18.7821 30.7643 18.9341 29.9407L20.6231 30.916L24.5621 28.7293L27.9632 30.6926V34.2604L24.5621 36.2244L20.6231 34.0382L18.9341 35.0131C18.7821 34.1887 18.6915 33.3433 18.6915 32.4767ZM33.3716 37.5498L36.544 35.6469L39.8636 37.563L39.939 42.0671L41.622 43.0393C40.3393 44.1364 38.8559 44.997 37.2348 45.5727V43.6286L33.3716 41.3107V37.5498ZM40.6362 36.2244L37.2348 34.2604V30.6926L40.6362 28.7286L44.5748 30.9152L46.2638 29.94C46.4162 30.7643 46.5064 31.6098 46.5064 32.4767C46.5064 33.3433 46.4162 34.1887 46.2638 35.0123L44.5748 34.0382L40.6362 36.2244ZM5.86758 3.48664C6.063 2.37635 7.02238 1.57127 8.14965 1.57127H39.9862C41.1413 1.57127 42.1049 2.39937 42.278 3.5421L45.3437 23.7559C44.9536 23.1873 44.5171 22.6546 44.0557 22.1442L40.924 4.39283C40.7935 3.65264 40.154 3.11654 39.4029 3.11654H8.79741C8.04628 3.11654 7.40644 3.65264 7.27515 4.39283L3.41122 26.2956H1.8418L5.86758 3.48664ZM15.9209 26.2956L19.0778 23.1383L19.7863 23.8468C19.2672 24.6157 18.8221 25.437 18.4459 26.2956H15.9209ZM19.3106 36.5802L20.6378 35.8136L23.7895 37.563L23.7284 41.1662L22.4196 41.9211C21.0174 40.4109 19.9346 38.5974 19.3106 36.5802ZM29.5084 46.0254V44.5035L32.599 42.6492L35.6895 44.5035V46.0254C34.6935 46.2525 33.6621 46.3842 32.599 46.3842C31.5358 46.3842 30.5044 46.2525 29.5084 46.0254ZM42.7779 41.9219L41.4688 41.1674L41.4077 37.5637L44.5594 35.8144L45.8869 36.581C45.2633 38.5974 44.181 40.4109 42.7779 41.9219Z" fill="#1E1713"/>
</g>
<defs>
<clipPath id="clip0_3_218">
<rect width="48" height="48" fill="white"/>
</clipPath>
</defs>
</svg>
