<svg enable-background="new 0 0 392.92 353.12"
     viewBox="120 40 150 150"
     xmlns="http://www.w3.org/2000/svg">
    <g fill="#50b6b1">
        <path d="m222.86 136.27c13.85-5.29 30.58-16.13 43.3-38.28-8.28-31.47-36.7-53.38-69.37-53.38-2.26 0-4.53.11-6.79.32 40.99 28.2 39.67 69.75 39.6 71.57-.02 7.22-2.41 14.13-6.74 19.77z"
              opacity=".75"/>
        <path d="m196.74 83.35c7.23.01 14.13 2.4 19.77 6.73-5.29-13.85-16.13-30.57-38.29-43.3-31.47 8.29-53.38 36.7-53.38 69.37 0 2.27.1 4.53.32 6.78 28.39-41.31 69.79-39.65 71.58-39.58z"
              opacity=".75"/>
        <path d="m170.52 96.24c-13.85 5.29-30.58 16.13-43.3 38.29 8.28 31.47 36.7 53.38 69.37 53.38 2.27 0 4.53-.1 6.79-.32-41-28.2-39.68-69.75-39.6-71.56.01-7.24 2.41-14.15 6.74-19.79z"
              opacity=".75"/>
        <path d="m268.34 116.16c0-2.26-.1-4.53-.31-6.78-28.29 41.18-69.77 39.7-71.57 39.6-7.24-.01-14.14-2.4-19.78-6.74 5.29 13.85 16.13 30.58 38.29 43.3 31.46-8.29 53.37-36.71 53.37-69.38z"
              opacity=".75"/>
        <path d="m254.85 158.02c8.53-11.88 13.49-26.37 13.49-41.86 0-2.26-.1-4.53-.31-6.78-28.29 41.18-69.77 39.7-71.57 39.6-7.09-.01-13.85-2.34-19.42-6.51 19.23 23.78 62.52 18.3 77.81 15.55z"/>
        <path d="m222.9 135.72c23.78-19.24 18.31-62.53 15.55-77.82-11.88-8.52-26.37-13.49-41.85-13.49-2.27 0-4.53.1-6.79.32 40.99 28.2 39.67 69.75 39.6 71.57-.02 7.09-2.34 13.85-6.51 19.42z"/>
        <path d="m196.74 83.35c7.08.01 13.84 2.34 19.41 6.5-19.24-23.78-62.53-18.3-77.82-15.55-8.53 11.88-13.49 26.37-13.49 41.86 0 2.26.1 4.53.32 6.78 28.39-41.32 69.79-39.66 71.58-39.59z"/>
        <path d="m170.29 96.6c-23.78 19.24-18.31 62.54-15.55 77.82 11.88 8.53 26.37 13.49 41.85 13.49 2.27 0 4.53-.1 6.79-.32-41-28.2-39.68-69.75-39.6-71.56.01-7.1 2.34-13.86 6.51-19.43z"/>
        <path d="m265.59 88.45c4.12-5.25 4.42-11.9.66-14.85s-10.15-1.09-14.27 4.16-4.42 11.9-.66 14.85c3.76 2.96 10.15 1.09 14.27-4.16z"/>
        <path d="m261.58 92.07c-2.8-10.97-7.2-16.29-7.45-16.53-.76.66-1.5 1.38-2.16 2.23-4.12 5.25-4.42 11.9-.66 14.85 2.69 2.1 6.7 1.72 10.27-.55z"/>
        <path d="m158.02 60.48c5.25 4.12 11.9 4.42 14.85.66s1.09-10.15-4.16-14.27-11.9-4.42-14.85-.66-1.09 10.15 4.16 14.27z"/>
        <path d="m172.87 61.14c2.1-2.68 1.72-6.69-.55-10.26-10.97 2.8-16.29 7.2-16.53 7.45.66.76 1.38 1.5 2.23 2.16 5.25 4.11 11.9 4.41 14.85.65z"/>
        <path d="m126.97 158.69c3.76 2.96 10.15 1.09 14.27-4.16s4.42-11.9.66-14.85-10.14-1.09-14.27 4.16-4.42 11.9-.66 14.85z"/>
        <path d="m141.24 154.53c4.12-5.25 4.42-11.9.66-14.85-2.68-2.1-6.69-1.72-10.26.55 2.8 10.97 7.2 16.29 7.45 16.53.75-.66 1.49-1.38 2.15-2.23z"/>
        <path d="m239.36 186.09c2.95-3.76 1.09-10.15-4.16-14.27s-11.9-4.42-14.85-.66-1.09 10.15 4.16 14.27 11.89 4.42 14.85.66z"/>
        <path d="m235.2 171.82c-5.25-4.12-11.9-4.42-14.85-.66-2.1 2.68-1.72 6.69.55 10.26 10.97-2.8 16.29-7.2 16.53-7.45-.67-.75-1.39-1.49-2.23-2.15z"/>
    </g>
</svg>
