<svg viewBox="0 0 48 48"
     xmlns="http://www.w3.org/2000/svg">
    <path fill="#50b6b1" d="M29.42 23.23H18.58v4.64h10.84zm-9.29 1.55h3.1v1.55h-3.1zm7.74 1.55h-3.1v-1.55h3.1zM48 37.52v-5.53l-13.94-5.42v-1.82l2.32 1.39v-5.68l-10.06-6.04V7.74h3.1V3.1h-3.1V0h-4.65v3.1h-3.1v4.64h3.1v6.68l-10.06 6.04v5.68l2.32-1.39v1.82L0 31.99v5.53l3.1-1.21v10.14H0V48h48v-1.55h-3.1V36.31zm-1.55-4.47v2.21l-12.39-4.82v-2.21zM20.13 6.19V4.64h3.1V1.55h1.55v3.1h3.1v1.55h-3.1v7.74h-1.55V6.19zm-6.97 15.15 9.76-5.86h2.15l9.76 5.86v2.06L24 16.9l-10.84 6.5zM24 18.71l8.52 5.11v22.63h-3.1V36.39c0-2.99-2.43-5.42-5.42-5.42s-5.42 2.43-5.42 5.42v10.06h-3.1V23.82zm-.77 27.74h-3.1V36.39a3.88 3.88 0 013.1-3.79zm1.55-13.86a3.88 3.88 0 013.1 3.79v10.06h-3.1zm-23.23.45 12.39-4.82v2.21L1.55 35.26zm3.1 2.67 9.29-3.61v14.35h-1.55V38.71H6.19v7.74H4.64zm6.19 10.74H7.74v-6.19h3.1zm29.42 0h-3.1v-6.19h3.1zm3.1 0h-1.55V38.71h-6.19v7.74h-1.55V32.1l9.29 3.61z"/>
</svg>
