<svg width="20" height="20" viewBox="0 0 20 20" xmlns="http://www.w3.org/2000/svg">
    <path id="Vector" d="M4.55975 17.1708C4.08082 17.1708 3.67289 17.0024 3.33596 16.6654C2.99903 16.3285 2.83057 15.9206 2.83057 15.4416V4.56122C2.83057 4.08229 2.99903 3.67436 3.33596 3.33743C3.67289 3.0005 4.08082 2.83203 4.55975 2.83203H9.99996V4.56122H4.55975V15.4416H15.4402V10.0014H17.1694V15.4416C17.1694 15.9206 17.0009 16.3285 16.664 16.6654C16.327 17.0024 15.9191 17.1708 15.4402 17.1708H4.55975ZM8.2169 13.0014L6.99996 11.7845L14.2232 4.56122H12V2.83203H17.1694V8.00143H15.4402V5.77816L8.2169 13.0014Z" fill="#cf3942"/>
</svg>
