<svg width="48" height="48" viewBox="0 0 48 48" fill="none" xmlns="http://www.w3.org/2000/svg">
<g opacity="0.5" clip-path="url(#clip0_3_311)">
<path d="M3.37772 34.1504C8.08734 36.339 18.3756 34.771 12.2919 28.7647C14.3538 22.7211 4.34968 24.1615 3.37772 34.1504Z" fill="#9E9C9D" stroke="black" stroke-width="1.8" stroke-linecap="round"/>
<path d="M1.50278 17.0408C3.745 21.7251 12.6808 27.0593 11.807 18.5549C17.2421 15.2022 8.60643 9.95047 1.50278 17.0408Z" fill="#BDBCBC" stroke="black" stroke-width="1.8" stroke-linecap="round"/>
<path d="M12.127 3.07791C10.5721 8.033 13.469 18.0285 18.6304 11.2128C24.8914 12.4678 22.1572 2.7372 12.127 3.07791Z" fill="#5B5859" stroke="black" stroke-width="1.8" stroke-linecap="round"/>
<path d="M46.3962 28.3688C42.2997 31.5606 31.9226 32.3471 36.4989 25.1261C33.1307 19.7009 43.2023 18.854 46.3962 28.3688Z" fill="#B6B5B5" stroke="black" stroke-width="1.8" stroke-linecap="round"/>
<path d="M44.0982 11.7011C42.9669 16.7696 35.4604 23.9773 34.3988 15.4943C28.3485 13.4505 35.5812 6.39063 44.0982 11.7011Z" fill="#D9D8D8" stroke="black" stroke-width="1.8" stroke-linecap="round"/>
<path d="M31.6444 0.935903C34.2737 5.41421 33.699 15.8046 27.137 10.325C21.3193 12.9562 21.794 2.86036 31.6444 0.935903Z" fill="#5A5757" stroke="black" stroke-width="1.8" stroke-linecap="round"/>
<path d="M20.0996 28.5162C21.5782 27.9922 20.9654 22.2397 17.8737 17.8756C22.202 21.0276 23.6241 27.5739 24.1807 27.5739C24.7372 27.5739 24.5206 19.411 29.3126 13.5112C27.231 19.6535 26.952 24.7788 28.0322 25.639C29.164 26.5395 33.5281 25.3431 34.3363 25.634C25.8679 28.7881 23.6038 36.0545 29.6216 45.16C27.8508 44.8876 23.6825 43.9066 19.9606 47.617C27.0248 32.9401 18.4919 29.7233 14.164 30.5642C17.1197 28.9319 19.5431 28.7892 20.0996 28.5162Z" fill="#595959" stroke="black" stroke-width="1.8" stroke-linecap="round"/>
<path d="M30.4294 24.1614C31.1311 24.1614 31.6997 23.5926 31.6997 22.8909C31.6997 22.1889 31.1311 21.6203 30.4294 21.6203C29.7275 21.6203 29.1586 22.1889 29.1586 22.8909C29.1586 23.5926 29.7275 24.1614 30.4294 24.1614Z" fill="#231F20"/>
<path d="M17.7294 27.5098C18.4313 27.5098 19.0002 26.9409 19.0002 26.239C19.0002 25.5376 18.4313 24.9687 17.7294 24.9687C17.0274 24.9687 16.4589 25.5376 16.4589 26.239C16.4589 26.9409 17.0274 27.5098 17.7294 27.5098Z" fill="#231F20"/>
</g>
<defs>
<clipPath id="clip0_3_311">
<rect width="48" height="48" fill="white"/>
</clipPath>
</defs>
</svg>
