<?xml version="1.0" encoding="UTF-8" standalone="no"?>
<svg width="64"
     height="64"
     viewBox="0 0 64 64"
     fill="none"
     opacity="0.85"
     xmlns="http://www.w3.org/2000/svg">
    <path d="M44 17L42.243 17.586C39.5263 18.4912 36.5614 18.2804 34 17V17C31.4387 15.7196 28.4737 15.5088 25.757 16.414L24 17V5.00001L25.757 4.41401C28.4737 3.50884 31.4387 3.71962 34 5.00001V5.00001C36.5614 6.2804 39.5263 6.49118 42.243 5.58601L44 5.00001V17Z"
          fill="#79BD9A"/>
    <path d="M22.485 37C23.4709 38.1943 24.1933 39.5834 24.6049 41.0763C25.0165 42.5692 25.1079 44.1323 24.8733 45.663C24.6387 47.1937 24.0833 48.6576 23.2435 49.9587C22.4036 51.2599 21.2983 52.3688 20 53.213V61H61V37H22.485Z"
          fill="#A8DBA8"/>
    <path d="M24 48.59V61H20V53.22C21.7433 52.0848 23.13 50.4797 24 48.59V48.59Z"
          fill="#CFF09E"/>
    <path d="M61 37V41H24.58C24.4287 40.4556 24.2348 39.924 24 39.41C23.6021 38.5452 23.0946 37.7353 22.49 37H61Z"
          fill="#CFF09E"/>
    <path d="M37 41C37 44.4478 35.6304 47.7544 33.1924 50.1924C30.7544 52.6304 27.4478 54 24 54V54V58C28.5087 58 32.8327 56.2089 36.0208 53.0208C39.209 49.8327 41 45.5087 41 41H37Z"
          fill="#CFF09E"/>
    <path d="M25.757 10.414L24 11V17L25.757 16.414C28.4737 15.5088 31.4387 15.7196 34 17V11C31.4387 9.71962 28.4737 9.50884 25.757 10.414V10.414Z"
          fill="#A8DBA8"/>
    <path d="M42.243 5.586C39.5263 6.49117 36.5614 6.28039 34 5V11C36.5614 12.2804 39.5263 12.4912 42.243 11.586L44 11V5L42.243 5.586Z"
          fill="#A8DBA8"/>
    <path d="M24 34V39.41C23.6021 38.5452 23.0946 37.7353 22.49 37C21.7779 36.1376 20.9382 35.3889 20 34.78V5C20.0016 4.47005 20.2128 3.96227 20.5876 3.58753C20.9623 3.2128 21.4701 3.00158 22 3V32C22.0016 32.5299 22.2128 33.0377 22.5876 33.4125C22.9623 33.7872 23.4701 33.9984 24 34V34Z"
          fill="#CFF09E"/>
    <path d="M24.58 47C24.077 48.7765 23.1348 50.3978 21.8404 51.7145C20.546 53.0312 18.941 54.0008 17.1733 54.5341C15.4056 55.0674 13.5321 55.1472 11.7255 54.766C9.91889 54.3849 8.23728 53.5551 6.83567 52.3532C5.43405 51.1513 4.35753 49.6159 3.70532 47.8886C3.05311 46.1612 2.84619 44.2975 3.10365 42.4691C3.3611 40.6408 4.07464 38.9067 5.17849 37.4266C6.28235 35.9465 7.74101 34.7681 9.42003 34C9.13724 34.9748 8.9958 35.9851 9.00003 37C9.00022 38.8431 9.46352 40.6565 10.3474 42.2739C11.2312 43.8912 12.5072 45.2605 14.0583 46.256C15.6094 47.2516 17.3857 47.8414 19.2242 47.9714C21.0626 48.1014 22.9043 47.7674 24.58 47V47Z"
          fill="#CFF09E"/>
    <path d="M14 38.739L9.47403 42.027L11.203 47.348H16.797L18.526 42.027L14 38.739Z"
          fill="#79BD9A"/>
    <path d="M17.262 33.5L14 35.87L10.738 33.5C12.8622 32.8373 15.1379 32.8373 17.262 33.5V33.5Z"
          fill="#79BD9A"/>
    <path d="M6.72104 41.159L3.00504 43.859C3.03012 41.4103 3.87907 39.0413 5.41504 37.134L6.72104 41.159Z"
          fill="#79BD9A"/>
    <path d="M25 43.857L21.284 41.157L22.59 37.13C24.1264 39.0378 24.9754 41.4076 25 43.857V43.857Z"
          fill="#79BD9A"/>
    <path d="M23.4 49.71C21.9408 52.1134 19.6167 53.8668 16.905 54.61L18.493 49.71H23.4Z"
          fill="#79BD9A"/>
    <path d="M11.092 54.608C8.38181 53.8646 6.0589 52.112 4.60004 49.71H9.50004L11.092 54.608Z"
          fill="#79BD9A"/>
    <path d="M61 38C61.2652 38 61.5196 37.8946 61.7071 37.7071C61.8947 37.5196 62 37.2652 62 37C62 36.7348 61.8947 36.4804 61.7071 36.2929C61.5196 36.1054 61.2652 36 61 36H25V30H61C61.2652 30 61.5196 29.8946 61.7071 29.7071C61.8947 29.5196 62 29.2652 62 29C62 28.7348 61.8947 28.4804 61.7071 28.2929C61.5196 28.1054 61.2652 28 61 28H25V17.721L26.073 17.363C27.293 16.9524 28.5823 16.788 29.8663 16.8793C31.1503 16.9706 32.4034 17.3158 33.553 17.895C35.1864 18.7159 36.9889 19.1443 38.817 19.146C40.0891 19.1447 41.3526 18.9384 42.559 18.535L44.316 17.949C44.5152 17.8826 44.6885 17.7553 44.8113 17.5849C44.934 17.4146 45.0001 17.21 45 17V5C45 4.84155 44.9624 4.68535 44.8903 4.54429C44.8181 4.40323 44.7134 4.28134 44.5849 4.18866C44.4564 4.09598 44.3077 4.03516 44.1511 4.01123C43.9944 3.9873 43.8343 4.00093 43.684 4.051L41.927 4.637C40.707 5.04762 39.4177 5.21203 38.1337 5.12071C36.8497 5.02939 35.5966 4.68415 34.447 4.105C33.0628 3.40807 31.554 2.99265 30.0081 2.88279C28.4622 2.77293 26.9099 2.97082 25.441 3.465L24.698 3.713C24.4069 3.09822 23.915 2.60096 23.3034 2.30313C22.6919 2.00531 21.9971 1.92469 21.3336 2.07455C20.6701 2.22442 20.0774 2.59584 19.6532 3.1276C19.229 3.65937 18.9987 4.31977 19 5V28H3.00001C2.7348 28 2.48044 28.1054 2.29291 28.2929C2.10537 28.4804 2.00001 28.7348 2.00001 29C2.00001 29.2652 2.10537 29.5196 2.29291 29.7071C2.48044 29.8946 2.7348 30 3.00001 30H19V33.1C17.1717 32.2581 15.161 31.8897 13.1529 32.0286C11.1449 32.1675 9.20409 32.8093 7.50909 33.8949C5.8141 34.9804 4.41941 36.4749 3.45338 38.2408C2.48736 40.0067 1.98105 41.9872 1.98105 44C1.98105 46.0128 2.48736 47.9933 3.45338 49.7592C4.41941 51.5251 5.8141 53.0196 7.50909 54.1051C9.20409 55.1907 11.1449 55.8325 13.1529 55.9714C15.161 56.1103 17.1717 55.7419 19 54.9V61C19 61.2652 19.1054 61.5196 19.2929 61.7071C19.4804 61.8946 19.7348 62 20 62C20.2652 62 20.5196 61.8946 20.7071 61.7071C20.8947 61.5196 21 61.2652 21 61V53.727C21.7324 53.1982 22.4032 52.5891 23 51.911V61C23 61.2652 23.1054 61.5196 23.2929 61.7071C23.4804 61.8946 23.7348 62 24 62C24.2652 62 24.5196 61.8946 24.7071 61.7071C24.8947 61.5196 25 61.2652 25 61V58.949C29.4139 58.6993 33.5814 56.8335 36.7074 53.7074C39.8335 50.5813 41.6993 46.4139 41.949 42H61C61.2652 42 61.5196 41.8946 61.7071 41.7071C61.8947 41.5196 62 41.2652 62 41C62 40.7348 61.8947 40.4804 61.7071 40.2929C61.5196 40.1054 61.2652 40 61 40H25.3C25.0547 39.3061 24.7454 38.6366 24.376 38H61ZM4.01801 44.356L6.89801 42.266L8.68901 42.848L10.099 47.189L8.99401 48.71H5.18301C4.46628 47.3671 4.0677 45.8774 4.01801 44.356V44.356ZM5.54501 40.777L4.27801 41.697C4.46313 40.9132 4.7432 40.1549 5.11201 39.439L5.54501 40.777ZM11.929 46.348L10.65 42.409L14 39.975L17.35 42.409L16.071 46.348H11.929ZM21.459 37.363L20.486 40.363L18.724 40.935L15 38.23V36.379L17.423 34.616C18.9742 35.185 20.3607 36.1286 21.459 37.363V37.363ZM19.006 48.71L17.9 47.189L19.31 42.848L21.101 42.266L23.981 44.356C23.9313 45.8774 23.5327 47.3671 22.816 48.71H19.006ZM22.455 40.777L22.888 39.439C23.2568 40.1549 23.5369 40.9132 23.722 41.697L22.455 40.777ZM25.441 15.465L25 15.612V11.721L26.074 11.363C28.3382 10.601 30.8037 10.6993 33 11.639V15.506C31.7729 15.0775 30.4828 14.8571 29.183 14.854C27.911 14.8553 26.6474 15.0616 25.441 15.465ZM41.927 16.637C39.6612 17.3962 37.195 17.2937 35 16.349V12.494C36.2271 12.9225 37.5172 13.1429 38.817 13.146C40.0891 13.1447 41.3526 12.9384 42.559 12.535L43 12.388V16.279L41.927 16.637ZM42.559 6.537L43 6.388V10.279L41.926 10.637C39.662 11.4 37.1961 11.3018 35 10.361V6.49C37.4454 7.3402 40.1036 7.35603 42.559 6.535V6.537ZM26.073 5.363C28.3389 4.6038 30.805 4.70633 33 5.651V9.51C30.5547 8.65904 27.8963 8.64321 25.441 9.465L25 9.612V5.721L26.073 5.363ZM21 5C21 4.73478 21.1054 4.48043 21.2929 4.29289C21.4804 4.10536 21.7348 4 22 4C22.2652 4 22.5196 4.10536 22.7071 4.29289C22.8947 4.48043 23 4.73478 23 5V36.089C22.4032 35.4109 21.7324 34.8018 21 34.273V5ZM14.814 34.041L14 34.633L13.186 34.041C13.455 34.019 13.725 34 14 34C14.275 34 14.545 34.019 14.814 34.041ZM10.577 34.616L13 36.379V38.23L9.27601 40.935L7.51401 40.363L6.54101 37.363C7.63934 36.1286 9.02581 35.185 10.577 34.616V34.616ZM6.60701 50.71H8.77701L9.49201 52.91C8.40461 52.3581 7.42695 51.6126 6.60701 50.71V50.71ZM11.871 53.766L10.612 49.886L11.73 48.348H16.27L17.388 49.886L16.129 53.766C14.7268 54.0781 13.2732 54.0781 11.871 53.766V53.766ZM18.508 52.914L19.223 50.714H21.393C20.5731 51.6166 19.5954 52.3621 18.508 52.914V52.914ZM39.969 42C39.7204 45.8885 38.0635 49.5531 35.3083 52.3083C32.5532 55.0635 28.8885 56.7204 25 56.969V54.969C28.3579 54.7234 31.5154 53.2781 33.8958 50.897C36.2761 48.5159 37.7205 45.358 37.965 42H39.969ZM35.949 42C35.7097 44.8237 34.4792 47.4716 32.4754 49.4754C30.4717 51.4792 27.8237 52.7096 25 52.949V48.781C25.9419 46.6526 26.2271 44.2915 25.819 42H35.949Z"
          fill="#808080"/>
</svg>
