<svg xmlns="http://www.w3.org/2000/svg" viewBox="0 0 48 48">
        <path fill="#50b6b1" d="M45.68 24.77H28.63c.34-.45.6-.97.71-1.55h16.34a.78.78 0 010 1.55m-2.32 8.52c0 1.25-.42 2.42-1.19 3.38a6.16 6.16 0 00-5.78-.6l-9.74-9.75h16.71zm-4.64 13.16c-2.56 0-4.64-2.08-4.64-4.64s2.08-4.64 4.64-4.64 4.64 2.08 4.64 4.64-2.08 4.64-4.64 4.64m-27.87 0c-2.56 0-4.64-2.08-4.64-4.64s2.08-4.64 4.64-4.64 4.65 2.08 4.65 4.64-2.08 4.64-4.65 4.64m-3.1-13.16v-6.97h12.07l.06.07-7.36 9.46a6.13 6.13 0 00-1.68-.24 6.15 6.15 0 00-2.31.45 5.35 5.35 0 01-.78-2.78M4.64 24c0-.43.35-.77.77-.77h11.29l1.55 1.55H5.42A.78.78 0 014.64 24M1.55 5.51A.87.87 0 013.03 4.9l5.17 5.17-1.23 1.23-5.17-5.17a.86.86 0 01-.25-.61m24 14.62a2.33 2.33 0 012.32 2.32c0 1.28-1.04 2.32-2.32 2.32s-2.32-1.04-2.32-2.32a2.33 2.33 0 012.32-2.32m-.77-18.58h1.55v17.11a3.87 3.87 0 00-1.55 0zm8.99 36.54L8.06 12.39 9.29 11.16l12.64 12.64a3.87 3.87 0 002.26 2.26l10.8 10.8c-.47.35-.88.76-1.23 1.23m-10.47-8.28 8.9 8.9H16.38zm-1.1-1.1-6.87 8.84a6.22 6.22 0 00-1.34-1.07l6.99-8.99zm22.71-7.81v.77H29.34a3.86 3.86 0 00-1.47-2.3V3.12c9.46.41 17.03 8.23 17.03 17.79m1.55.92v-.92c0-10.41-8.27-18.93-18.58-19.34v-.02A1.55 1.55 0 0026.32 0h-1.55a1.55 1.55 0 00-1.55 1.55v17.83a3.86 3.86 0 00-1.41 2.12L4.13 3.8A2.42 2.42 0 00.71 7.22l14.46 14.46H5.42A2.33 2.33 0 003.1 24a2.33 2.33 0 002.32 2.32h.77v6.97c0 1.26.34 2.47.97 3.54a6.18 6.18 0 00-2.52 4.97c0 3.42 2.78 6.19 6.19 6.19s6.19-2.78 6.19-6.19c0-.54-.07-1.05-.2-1.55H32.72a6.13 6.13 0 00-.2 1.55c0 3.42 2.78 6.19 6.19 6.19s6.19-2.78 6.19-6.19a6.16 6.16 0 00-1.57-4.11 6.9 6.9 0 001.57-4.41v-6.97h.77A2.33 2.33 0 0048 24a2.32 2.32 0 00-1.55-2.18M38.71 43.35a1.55 1.55 0 01-1.55-1.55c0-.85.69-1.55 1.55-1.55s1.55.7 1.55 1.55a1.55 1.55 0 01-1.55 1.55m0-4.64c-1.71 0-3.1 1.39-3.1 3.1s1.39 3.1 3.1 3.1 3.1-1.39 3.1-3.1a3.1 3.1 0 00-3.1-3.1M10.84 43.35a1.55 1.55 0 01-1.55-1.55c0-.85.69-1.55 1.55-1.55s1.55.7 1.55 1.55a1.55 1.55 0 01-1.55 1.55m0-4.64c-1.71 0-3.1 1.39-3.1 3.1s1.39 3.1 3.1 3.1 3.1-1.39 3.1-3.1a3.1 3.1 0 00-3.1-3.1"/>
</svg>
