<?xml version="1.0" encoding="UTF-8" standalone="no"?>
<!DOCTYPE svg PUBLIC "-//W3C//DTD SVG 1.1//EN" "http://www.w3.org/Graphics/SVG/1.1/DTD/svg11.dtd">
<svg width="100%" height="100%" viewBox="0 0 48 48" version="1.1" xmlns="http://www.w3.org/2000/svg" xmlns:xlink="http://www.w3.org/1999/xlink" xml:space="preserve" xmlns:serif="http://www.serif.com/" style="fill-rule:evenodd;clip-rule:evenodd;stroke-linejoin:round;stroke-miterlimit:2;">
    <g transform="matrix(1,0,0,1,-320,0)">
        <g transform="matrix(1,0,0,1,320,0)">
            <rect id="Artboard1" x="0" y="0" width="48" height="48" style="fill-opacity:0;"/>
            <clipPath id="_clip1">
                <rect id="Artboard11" serif:id="Artboard1" x="0" y="0" width="48" height="48"/>
            </clipPath>
            <g clip-path="url(#_clip1)">
                <g transform="matrix(1,0,0,1,20.1286,37.0455)">
                    <path d="M0,-11.497L0.774,-10.723L-7.339,-0.294C-7.943,-0.534 -8.601,-0.658 -9.29,-0.658C-10.235,-0.658 -11.117,-0.418 -11.891,0C-12.689,-1.045 -13.161,-2.338 -13.161,-3.755L-13.161,-11.497L0,-11.497Z" style="fill:rgb(255,227,226);fill-rule:nonzero;"/>
                </g>
                <g transform="matrix(1,0,0,1,33.8936,28.8164)">
                    <path d="M0,10.497C-0.031,10.551 -0.054,10.613 -0.077,10.668L-18.162,10.668C-18.271,10.42 -18.403,10.187 -18.557,9.971L-18.557,9.963L-10.668,-0.171L0,10.497Z" style="fill:rgb(255,227,226);fill-rule:nonzero;"/>
                </g>
                <g transform="matrix(1,0,0,1,25.548,37.5804)">
                    <path d="M0,-12.032L18.581,-12.032L18.581,-4.29C18.581,-2.556 17.868,-0.984 16.715,0.139C15.762,-0.698 14.524,-1.193 13.161,-1.193C12.263,-1.193 11.412,-0.977 10.668,-0.59L-0.914,-12.171C-0.619,-12.079 -0.318,-12.032 0,-12.032" style="fill:rgb(255,227,226);fill-rule:nonzero;"/>
                </g>
                <g transform="matrix(1,0,0,1,45.677,2.3227)">
                    <path d="M0,20.129L-17.032,20.129C-17.032,18.983 -17.651,17.984 -18.581,17.45L-18.581,0C-8.323,0 0,8.322 0,18.581L0,20.129Z" style="fill:rgb(255,239,239);fill-rule:nonzero;"/>
                </g>
                <g transform="matrix(1,0,0,1,27.0964,18.2246)">
                    <path d="M0,-16.676L0,1.548C-0.457,1.285 -0.983,1.13 -1.548,1.13C-2.114,1.13 -2.64,1.285 -3.097,1.548L-3.097,-16.676C-3.097,-17.102 -2.748,-17.45 -2.323,-17.45L-0.774,-17.45C-0.349,-17.45 0,-17.102 0,-16.676Z" style="fill:rgb(255,223,222);fill-rule:nonzero;"/>
                </g>
                <g transform="matrix(1,0,0,1,20.1286,22.4514)">
                    <path d="M0,3.097L-14.71,3.097C-15.135,3.097 -15.522,2.926 -15.801,2.64C-16.088,2.361 -16.258,1.974 -16.258,1.549C-16.258,0.697 -15.561,0 -14.71,0L-3.097,0L0,3.097Z" style="fill:rgb(255,223,222);fill-rule:nonzero;"/>
                </g>
                <g transform="matrix(1,0,0,1,46.7688,25.0913)">
                    <path d="M0,-2.183C0.286,-1.904 0.457,-1.517 0.457,-1.091C0.457,-0.24 -0.24,0.457 -1.092,0.457L-21.221,0.457C-19.51,0.457 -18.124,-0.929 -18.124,-2.64L-1.092,-2.64C-0.666,-2.64 -0.279,-2.469 0,-2.183" style="fill:rgb(255,223,222);fill-rule:nonzero;"/>
                </g>
                <g transform="matrix(1,0,0,1,27.0964,25.13)">
                    <path d="M0,-5.357C0.929,-4.823 1.548,-3.824 1.548,-2.678C1.548,-0.967 0.163,0.418 -1.548,0.418C-1.866,0.418 -2.168,0.372 -2.462,0.279C-3.437,-0.023 -4.204,-0.789 -4.506,-1.765C-4.599,-2.059 -4.645,-2.361 -4.645,-2.678C-4.645,-3.824 -4.026,-4.823 -3.097,-5.357C-2.64,-5.62 -2.114,-5.775 -1.548,-5.775C-0.983,-5.775 -0.457,-5.62 0,-5.357" style="fill:rgb(255,216,214);fill-rule:nonzero;"/>
                </g>
                <g transform="matrix(1,0,0,1,9.2899,6.1935)">
                    <path d="M0,3.871L-2.323,6.194L-8.036,0.48C-8.346,0.171 -8.516,-0.248 -8.516,-0.681C-8.516,-1.13 -8.33,-1.548 -8.036,-1.842C-7.742,-2.137 -7.324,-2.323 -6.875,-2.323C-6.441,-2.323 -6.023,-2.152 -5.713,-1.842L0,3.871Z" style="fill:rgb(255,227,226);fill-rule:nonzero;"/>
                </g>
                <g transform="matrix(-0.61428,0.789088,0.789088,0.61428,17.8839,39.0672)">
                    <path d="M-11.505,-2.187L1.338,-2.187C0.998,-3.237 0.978,-4.371 1.302,-5.443L-11.911,-5.447L-11.505,-2.187Z" style="fill:rgb(255,207,204);fill-rule:nonzero;"/>
                </g>
                <g transform="matrix(1,0,0,1,24.6343,23.969)">
                    <path d="M0,1.44L11.582,13.022C10.591,13.541 9.778,14.354 9.259,15.344L-17.667,-11.582L-15.344,-13.904L-2.044,-0.604C-1.742,0.372 -0.975,1.138 0,1.44" style="fill:rgb(255,207,204);fill-rule:nonzero;"/>
                </g>
                <g transform="matrix(1,0,0,1,15.7311,44.1289)">
                    <path d="M0,-4.645C0.341,-3.94 0.527,-3.159 0.527,-2.323C0.527,0.674 -1.897,3.097 -4.893,3.097C-7.889,3.097 -10.312,0.674 -10.312,-2.323C-10.312,-4.374 -9.174,-6.162 -7.494,-7.076L-7.494,-7.084C-6.72,-7.502 -5.837,-7.742 -4.893,-7.742C-4.204,-7.742 -3.546,-7.618 -2.942,-7.378C-1.897,-6.975 -1.014,-6.263 -0.395,-5.35L-0.395,-5.342C-0.24,-5.125 -0.108,-4.893 0,-4.645" style="fill:rgb(255,174,171);fill-rule:nonzero;"/>
                </g>
                <g transform="matrix(1,0,0,1,42.2627,45.8939)">
                    <path d="M0,-8.175C1.146,-7.184 1.866,-5.721 1.866,-4.088C1.866,-1.091 -0.557,1.332 -3.553,1.332C-6.55,1.332 -8.973,-1.091 -8.973,-4.088C-8.973,-4.924 -8.787,-5.705 -8.446,-6.41C-8.423,-6.464 -8.4,-6.526 -8.369,-6.581C-7.85,-7.571 -7.037,-8.384 -6.047,-8.903C-5.303,-9.29 -4.452,-9.507 -3.553,-9.507C-2.191,-9.507 -0.952,-9.011 0,-8.175" style="fill:rgb(255,174,171);fill-rule:nonzero;"/>
                </g>
                <g transform="matrix(0,-1,-1,0,10.8389,39.4835)">
                    <path d="M-2.323,-2.322C-3.606,-2.322 -4.645,-1.282 -4.645,0.001C-4.645,1.283 -3.606,2.323 -2.323,2.323C-1.04,2.323 0,1.283 0,0.001C0,-1.282 -1.04,-2.322 -2.323,-2.322" style="fill:rgb(255,223,222);fill-rule:nonzero;"/>
                </g>
                <g transform="matrix(0,-1,-1,0,38.7098,39.4835)">
                    <path d="M-2.323,-2.322C-3.606,-2.322 -4.645,-1.282 -4.645,0C-4.645,1.283 -3.606,2.323 -2.323,2.323C-1.04,2.323 0,1.283 0,0C0,-1.282 -1.04,-2.322 -2.323,-2.322" style="fill:rgb(255,223,222);fill-rule:nonzero;"/>
                </g>
                <g transform="matrix(1,0,0,1,38.7093,40.2579)">
                    <path d="M0,3.097C-0.854,3.097 -1.548,2.402 -1.548,1.549C-1.548,0.695 -0.854,-0 0,-0C0.854,-0 1.548,0.695 1.548,1.549C1.548,2.402 0.854,3.097 0,3.097M0,-1.548C-1.708,-1.548 -3.097,-0.159 -3.097,1.549C-3.097,3.257 -1.708,4.645 0,4.645C1.708,4.645 3.097,3.257 3.097,1.549C3.097,-0.159 1.708,-1.548 0,-1.548" style="fill:rgb(242,80,76);fill-rule:nonzero;"/>
                </g>
                <g transform="matrix(1,0,0,1,10.8383,40.2579)">
                    <path d="M0,3.097C-0.854,3.097 -1.548,2.402 -1.548,1.549C-1.548,0.695 -0.854,-0 0,-0C0.854,-0 1.548,0.695 1.548,1.549C1.548,2.402 0.854,3.097 0,3.097M0,-1.548C-1.708,-1.548 -3.097,-0.159 -3.097,1.549C-3.097,3.257 -1.708,4.645 0,4.645C1.708,4.645 3.097,3.257 3.097,1.549C3.097,-0.159 1.708,-1.548 0,-1.548" style="fill:rgb(242,80,76);fill-rule:nonzero;"/>
                </g>
                <g transform="matrix(1,0,0,1,45.677,23.2262)">
                    <path d="M0,1.548L-17.052,1.548C-16.71,1.096 -16.454,0.575 -16.337,0L0,0C0.427,0 0.774,0.347 0.774,0.774C0.774,1.2 0.427,1.548 0,1.548M-2.323,10.064C-2.323,11.31 -2.743,12.487 -3.51,13.444C-4.498,12.777 -5.688,12.387 -6.968,12.387C-7.788,12.387 -8.571,12.551 -9.289,12.842L-19.034,3.096L-2.323,3.096L-2.323,10.064ZM-6.968,23.225C-9.53,23.225 -11.613,21.142 -11.613,18.58C-11.613,16.018 -9.53,13.935 -6.968,13.935C-4.406,13.935 -2.323,16.018 -2.323,18.58C-2.323,21.142 -4.406,23.225 -6.968,23.225M-34.839,23.225C-37.401,23.225 -39.484,21.142 -39.484,18.58C-39.484,16.018 -37.401,13.935 -34.839,13.935C-32.277,13.935 -30.193,16.018 -30.193,18.58C-30.193,21.142 -32.277,23.225 -34.839,23.225M-37.935,10.064L-37.935,3.096L-25.869,3.096L-25.805,3.161L-33.164,12.623C-33.697,12.472 -34.258,12.387 -34.839,12.387C-35.658,12.387 -36.438,12.55 -37.154,12.84C-37.658,12.003 -37.935,11.058 -37.935,10.064M-41.032,0.774C-41.032,0.347 -40.685,0 -40.258,0L-28.966,0L-27.417,1.548L-40.258,1.548C-40.685,1.548 -41.032,1.2 -41.032,0.774M-44.129,-17.713C-44.129,-18.192 -43.74,-18.581 -43.261,-18.581C-43.033,-18.581 -42.809,-18.488 -42.647,-18.327L-37.482,-13.162L-38.71,-11.934L-43.875,-17.099C-44.039,-17.263 -44.129,-17.481 -44.129,-17.713M-20.129,-3.097C-18.849,-3.097 -17.806,-2.055 -17.806,-0.775C-17.806,0.506 -18.849,1.548 -20.129,1.548C-21.409,1.548 -22.452,0.506 -22.452,-0.775C-22.452,-2.055 -21.409,-3.097 -20.129,-3.097M-20.903,-21.678L-19.355,-21.678L-19.355,-4.567C-19.605,-4.618 -19.864,-4.646 -20.129,-4.646C-20.394,-4.646 -20.653,-4.618 -20.903,-4.567L-20.903,-21.678ZM-11.911,14.865L-37.615,-10.839L-36.387,-12.067L-23.743,0.577C-23.35,1.622 -22.525,2.448 -21.481,2.839L-10.683,13.637C-11.148,13.987 -11.561,14.4 -11.911,14.865M-22.379,6.586L-13.482,15.484L-29.299,15.484L-22.379,6.586ZM-23.482,5.483L-30.355,14.32C-30.749,13.906 -31.198,13.547 -31.693,13.254L-24.701,4.264L-23.482,5.483ZM-0.774,-2.323L-0.774,-1.549L-16.336,-1.549C-16.528,-2.488 -17.068,-3.293 -17.806,-3.851L-17.806,-20.109C-8.346,-19.703 -0.774,-11.882 -0.774,-2.323M0.774,-1.406L0.774,-2.323C0.774,-12.736 -7.492,-21.25 -17.806,-21.659L-17.806,-21.678C-17.806,-22.532 -18.501,-23.226 -19.355,-23.226L-20.903,-23.226C-21.757,-23.226 -22.452,-22.532 -22.452,-21.678L-22.452,-3.851C-23.139,-3.331 -23.644,-2.593 -23.865,-1.734L-41.552,-19.422C-42.002,-19.872 -42.625,-20.129 -43.261,-20.129C-44.594,-20.129 -45.677,-19.046 -45.677,-17.713C-45.677,-17.067 -45.426,-16.461 -44.97,-16.004L-30.514,-1.549L-40.258,-1.549C-41.538,-1.549 -42.581,-0.507 -42.581,0.774C-42.581,2.054 -41.538,3.096 -40.258,3.096L-39.484,3.096L-39.484,10.064C-39.484,11.329 -39.147,12.537 -38.512,13.605C-40.037,14.735 -41.032,16.541 -41.032,18.58C-41.032,21.995 -38.254,24.774 -34.839,24.774C-31.424,24.774 -28.645,21.995 -28.645,18.58C-28.645,18.045 -28.72,17.528 -28.849,17.032L-12.957,17.032C-13.086,17.528 -13.161,18.045 -13.161,18.58C-13.161,21.995 -10.383,24.774 -6.968,24.774C-3.553,24.774 -0.774,21.995 -0.774,18.58C-0.774,17.002 -1.372,15.565 -2.348,14.47C-1.33,13.23 -0.774,11.692 -0.774,10.064L-0.774,3.096L0,3.096C1.28,3.096 2.323,2.054 2.323,0.774C2.323,-0.234 1.673,-1.086 0.774,-1.406" style="fill:rgb(242,80,76);fill-rule:nonzero;"/>
                </g>
                <g transform="matrix(0.969223,-0.246183,-0.246183,-0.969223,42.4482,16.6515)">
                    <path d="M-1.215,-0.34L0.333,-0.34C0.334,3.343 -0.946,6.964 -3.269,9.855L-4.477,8.884C-2.374,6.268 -1.215,2.992 -1.215,-0.34" style="fill:rgb(242,80,76);fill-rule:nonzero;"/>
                </g>
                <g transform="matrix(0.998919,-0.0464914,-0.0464914,-0.998919,41.8314,20.238)">
                    <path d="M-0.04,0.033L1.509,0.033C1.509,0.594 1.48,1.163 1.42,1.723L-0.12,1.562C-0.068,1.055 -0.04,0.541 -0.04,0.033" style="fill:rgb(242,80,76);fill-rule:nonzero;"/>
                </g>
                <g transform="matrix(1,0,0,1,-0.0004,9.29)">
                    <rect x="9.29" y="18.581" width="1.548" height="1.548" style="fill:rgb(242,80,76);"/>
                </g>
                <g transform="matrix(1,0,0,1,-0.0004,15.484)">
                    <rect x="9.29" y="15.484" width="1.548" height="1.548" style="fill:rgb(242,80,76);"/>
                </g>
            </g>
        </g>
    </g>
</svg>
