<?xml version="1.0" encoding="UTF-8" standalone="no"?>
<!DOCTYPE svg PUBLIC "-//W3C//DTD SVG 1.1//EN" "http://www.w3.org/Graphics/SVG/1.1/DTD/svg11.dtd">
<svg width="100%" height="100%" viewBox="0 0 48 48" version="1.1" xmlns="http://www.w3.org/2000/svg" xmlns:xlink="http://www.w3.org/1999/xlink" xml:space="preserve" xmlns:serif="http://www.serif.com/" style="fill-rule:evenodd;clip-rule:evenodd;stroke-linejoin:round;stroke-miterlimit:2;">
    <g transform="matrix(1,0,0,1,-192,0)">
        <g transform="matrix(1,0,0,1,192,0)">
            <rect id="Artboard1" x="0" y="0" width="48" height="48" style="fill:none;"/>
            <g id="Artboard11" serif:id="Artboard1">
                <g transform="matrix(1,0,0,1,42,26.648)">
                    <path d="M4.5,15.143L-3,15.143L-3,9.083C-3,6.938 -4.515,5.093 -6.615,4.673L-11.94,3.608L-13.17,3.36L-13.163,3.323L-9.75,2.393L-9.75,0.143L-9.66,0.008C-8.827,0.571 -7.83,0.893 -6.75,0.893C-5.655,0.893 -4.65,0.563 -3.818,0L-3.75,0.143L-3.75,2.393L2.288,4.043C3.592,4.396 4.5,5.58 4.5,6.938L4.5,15.143Z" style="fill:rgb(255,174,171);fill-rule:nonzero;"/>
                </g>
                <g transform="matrix(1,0,0,1,9.8175,41.7915)">
                    <path d="M0,-15.143C2.212,-14.288 2.572,-14.25 2.932,-14.25C4.005,-14.25 5.01,-14.573 5.842,-15.135L5.932,-15L5.932,-12.75L9.42,-11.798L8.122,-11.536L2.798,-10.47C0.697,-10.051 -0.818,-8.206 -0.818,-6.06L-0.818,0L-8.318,0L-8.318,-8.206C-8.318,-9.563 -7.41,-10.748 -6.105,-11.101L-0.068,-12.75L-0.068,-15L0,-15.143Z" style="fill:rgb(255,174,171);fill-rule:nonzero;"/>
                </g>
                <g transform="matrix(1,0,0,1,43.5,11.791)">
                    <path d="M0,3.75L0,8.25C0,6.592 -1.342,5.25 -3,5.25C-3,4.425 -3.675,3.75 -4.5,3.75L-9.75,3.75L-9.75,-0.57C-9.75,-1.823 -10.057,-3.053 -10.635,-4.148C-9.885,-4.38 -9.083,-4.5 -8.25,-4.5C-3.69,-4.5 0,-0.81 0,3.75" style="fill:rgb(255,168,166);fill-rule:nonzero;"/>
                </g>
                <g transform="matrix(1,0,0,1,7.5,10.291)">
                    <path d="M0,6.75C-1.658,6.75 -3,8.092 -3,9.75L-3,5.25C-3,2.97 -2.077,0.908 -0.585,-0.585C0.908,-2.077 2.97,-3 5.25,-3C6.202,-3 7.118,-2.842 7.965,-2.542C7.17,-1.178 6.75,0.367 6.75,1.958L6.75,5.25L1.5,5.25C0.675,5.25 0,5.925 0,6.75" style="fill:rgb(255,168,166);fill-rule:nonzero;"/>
                </g>
                <g transform="matrix(1,0,0,1,35.385,45.226)">
                    <path d="M0,-13.905L-5.325,-14.97L-5.385,-14.685L-5.505,-14.272C-6.382,-11.19 -8.52,-8.617 -11.385,-7.185C-14.25,-8.617 -16.387,-11.19 -17.265,-14.272L-17.385,-14.685L-17.445,-14.97L-22.77,-13.905C-24.87,-13.485 -26.385,-11.64 -26.385,-9.495L-26.385,1.065L3.615,1.065L3.615,-9.495C3.615,-11.64 2.1,-13.485 0,-13.905" style="fill:rgb(255,239,239);fill-rule:nonzero;"/>
                </g>
                <g transform="matrix(1,0,0,1,28.83,37.8245)">
                    <path d="M0,-7.816L1.23,-7.569L1.17,-7.283L1.05,-6.871C0.173,-3.789 -1.965,-1.216 -4.83,0.217C-7.695,-1.216 -9.833,-3.789 -10.71,-6.871L-10.83,-7.283L-10.89,-7.569L-9.592,-7.831L-8.58,-8.033C-8.58,-8.033 -7.08,-5.783 -4.83,-5.783C-2.58,-5.783 -1.08,-8.033 -1.08,-8.033L0,-7.816Z" style="fill:rgb(255,227,226);fill-rule:nonzero;"/>
                </g>
                <g transform="matrix(1,0,0,1,40.5,26.791)">
                    <path d="M0,-9.75C0,-10.575 -0.675,-11.25 -1.5,-11.25L-6.75,-11.25L-6.75,-7.5C-6.75,-9.158 -8.092,-10.5 -9.75,-10.5L-9.75,-12.878C-9.75,-13.463 -9.99,-13.995 -10.372,-14.378C-10.755,-14.76 -11.288,-15 -11.872,-15C-12.435,-15 -12.975,-14.775 -13.372,-14.378L-14.122,-13.628C-14.685,-13.065 -15.45,-12.75 -16.245,-12.75L-20.25,-12.75C-21.652,-12.75 -22.837,-11.783 -23.16,-10.478L-23.25,-10.5C-24.908,-10.5 -26.25,-9.158 -26.25,-7.5L-26.25,-11.25L-31.5,-11.25C-32.325,-11.25 -33,-10.575 -33,-9.75C-34.658,-9.75 -36,-8.408 -36,-6.75C-36,-5.092 -34.658,-3.75 -33,-3.75L-32.94,-3.758C-32.783,-2.603 -32.25,-1.575 -31.462,-0.788C-31.223,-0.548 -30.967,-0.337 -30.682,-0.143C-28.47,0.712 -28.11,0.75 -27.75,0.75C-26.678,0.75 -25.673,0.428 -24.84,-0.135C-23.835,-0.803 -23.07,-1.815 -22.717,-3L-22.583,-3.068C-22.245,-2.378 -21.803,-1.762 -21.27,-1.23C-20.91,-0.87 -20.505,-0.548 -20.07,-0.277L-20.25,0L-20.25,3C-20.25,3 -18.75,5.25 -16.5,5.25C-14.25,5.25 -12.75,3 -12.75,3L-12.75,0L-12.93,-0.277C-11.85,-0.945 -10.98,-1.913 -10.417,-3.068L-10.283,-3C-9.93,-1.815 -9.165,-0.803 -8.16,-0.135C-7.327,0.428 -6.33,0.75 -5.25,0.75C-4.155,0.75 -3.15,0.42 -2.318,-0.143C-2.033,-0.337 -1.777,-0.548 -1.537,-0.788C-0.75,-1.575 -0.217,-2.603 -0.06,-3.758L0,-3.75C1.658,-3.75 3,-5.092 3,-6.75C3,-8.408 1.658,-9.75 0,-9.75" style="fill:rgb(255,227,226);fill-rule:nonzero;"/>
                </g>
                <g transform="matrix(1,0,0,1,33.75,5.791)">
                    <path d="M0,5.43L0,13.5C0,11.842 -1.342,10.5 -3,10.5L-3,8.122C-3,7.537 -3.24,7.005 -3.622,6.622C-4.005,6.24 -4.538,6 -5.122,6C-5.685,6 -6.225,6.225 -6.622,6.622L-7.372,7.372C-7.935,7.935 -8.7,8.25 -9.495,8.25L-13.5,8.25C-14.902,8.25 -16.087,9.217 -16.41,10.522L-16.5,10.5C-18.158,10.5 -19.5,11.842 -19.5,13.5L-19.5,6.458C-19.5,4.867 -19.08,3.322 -18.285,1.958C-18.195,1.8 -18.098,1.65 -18,1.5C-18.96,0.54 -19.5,-0.765 -19.5,-2.122L-19.5,-3.75C-16.522,-2.76 -13.395,-2.25 -10.26,-2.25L-7.68,-2.25C-6.66,-2.25 -5.67,-2.048 -4.74,-1.665C-3.818,-1.283 -2.97,-0.72 -2.25,0C-1.702,0.548 -1.245,1.177 -0.885,1.852C-0.307,2.947 0,4.177 0,5.43Z" style="fill:rgb(255,227,226);fill-rule:nonzero;"/>
                </g>
                <g transform="matrix(1,0,0,1,27.75,16.291)">
                    <path d="M0,1.5C0.414,1.5 0.75,1.164 0.75,0.75C0.75,0.336 0.414,0 0,0C-0.414,0 -0.75,0.336 -0.75,0.75C-0.75,1.164 -0.414,1.5 0,1.5" style="fill:rgb(242,80,76);fill-rule:nonzero;"/>
                </g>
                <g transform="matrix(1,0,0,1,20.25,16.291)">
                    <path d="M0,1.5C0.414,1.5 0.75,1.164 0.75,0.75C0.75,0.336 0.414,0 0,0C-0.414,0 -0.75,0.336 -0.75,0.75C-0.75,1.164 -0.414,1.5 0,1.5" style="fill:rgb(242,80,76);fill-rule:nonzero;"/>
                </g>
                <g transform="matrix(1,0,0,1,24,23.041)">
                    <path d="M0,0C-0.827,0 -1.5,-0.673 -1.5,-1.5L-3,-1.5C-3,0.154 -1.654,1.5 0,1.5C1.654,1.5 3,0.154 3,-1.5L1.5,-1.5C1.5,-0.673 0.827,0 0,0" style="fill:rgb(242,80,76);fill-rule:nonzero;"/>
                </g>
                <g transform="matrix(1,0,0,1,45.75,7)">
                    <path d="M0,34.041L-3,34.041L-3,25.791L-4.5,25.791L-4.5,34.041L-6,34.041L-6,28.73C-6,26.237 -7.775,24.071 -10.22,23.582L-13.729,22.881L-12.75,22.614L-12.75,20.828C-12.046,21.117 -11.289,21.291 -10.5,21.291C-9.704,21.291 -8.945,21.132 -8.25,20.849L-8.25,22.614L-1.658,24.412C-0.682,24.677 0,25.57 0,26.583L0,34.041ZM-7.5,38.541L-12,38.541L-12,28.791L-13.5,28.791L-13.5,38.541L-30,38.541L-30,28.791L-31.5,28.791L-31.5,38.541L-36,38.541L-36,28.73C-36,26.949 -34.732,25.402 -32.985,25.053L-28.362,24.128L-28.353,24.16C-27.46,27.283 -25.335,29.917 -22.499,31.477L-22.499,32.541L-23.999,32.541L-23.999,34.041L-22.499,34.041L-22.499,37.041L-20.999,37.041L-20.999,34.041L-19.499,34.041L-19.499,32.541L-20.999,32.541L-20.999,31.477C-18.163,29.916 -16.038,27.282 -15.145,24.16L-15.137,24.128L-10.514,25.053C-8.768,25.402 -7.5,26.949 -7.5,28.73L-7.5,38.541ZM-39,34.041L-39,25.791L-40.5,25.791L-40.5,34.041L-43.5,34.041L-43.5,26.583C-43.5,25.57 -42.818,24.678 -41.842,24.412L-35.25,22.614L-35.25,20.849C-34.555,21.132 -33.796,21.291 -33,21.291C-32.211,21.291 -31.454,21.117 -30.75,20.828L-30.75,22.613L-29.772,22.881L-33.28,23.582C-35.725,24.071 -37.5,26.237 -37.5,28.73L-37.5,34.041L-39,34.041ZM-37.5,15.291L-37.5,10.041C-37.5,9.627 -37.164,9.291 -36.75,9.291L-32.25,9.291L-32.25,12.291C-32.25,14.215 -30.787,15.788 -28.917,15.999C-28.853,16.206 -28.777,16.407 -28.697,16.606C-29.27,18.482 -31.033,19.791 -33,19.791C-35.482,19.791 -37.5,17.773 -37.5,15.291M-40.5,13.041C-40.5,12.064 -39.871,11.24 -39,10.929L-39,15.152C-39.871,14.842 -40.5,14.018 -40.5,13.041M-33,1.041C-32.448,1.041 -31.904,1.106 -31.372,1.225C-31.947,2.481 -32.25,3.846 -32.25,5.245L-32.25,7.791L-36.75,7.791C-37.75,7.791 -38.59,8.451 -38.882,9.355C-39.484,9.458 -40.032,9.706 -40.5,10.061L-40.5,8.541C-40.5,4.406 -37.135,1.041 -33,1.041M-30.75,-3.938C-27.991,-3.122 -25.139,-2.709 -22.257,-2.709L-19.682,-2.709C-17.83,-2.709 -16.09,-1.988 -14.78,-0.679C-13.471,0.631 -12.75,2.371 -12.75,4.223L-12.75,9.31C-13.188,8.978 -13.693,8.73 -14.25,8.617L-14.25,6.912C-14.25,5.329 -15.538,4.041 -17.121,4.041C-17.887,4.041 -18.609,4.339 -19.151,4.882L-19.901,5.632C-20.326,6.057 -20.891,6.291 -21.493,6.291L-25.5,6.291C-27.053,6.291 -28.387,7.24 -28.956,8.587C-29.625,8.67 -30.237,8.922 -30.75,9.311L-30.75,5.245C-30.75,3.907 -30.421,2.605 -29.801,1.431C-28.808,2.14 -27.605,2.541 -26.379,2.541L-24,2.541L-24,1.041L-26.379,1.041C-27.529,1.041 -28.656,0.574 -29.47,-0.239C-30.283,-1.053 -30.75,-2.18 -30.75,-3.33L-30.75,-3.938ZM-10.5,1.041C-6.365,1.041 -3,4.406 -3,8.541L-3,10.061C-3.468,9.706 -4.016,9.458 -4.618,9.355C-4.91,8.451 -5.75,7.791 -6.75,7.791L-11.25,7.791L-11.25,4.223C-11.25,3.16 -11.452,2.131 -11.824,1.171C-11.389,1.093 -10.948,1.041 -10.5,1.041M-4.5,15.153L-4.5,10.93C-3.629,11.24 -3,12.065 -3,13.042C-3,14.018 -3.629,14.842 -4.5,15.153M-17.018,22.223L-17.25,22.177L-17.25,19.791L-17.27,19.791C-16.676,19.347 -16.153,18.819 -15.713,18.223C-15.335,18.89 -14.839,19.475 -14.25,19.948L-14.25,21.468L-17.018,22.223ZM-29.219,14.413C-30.106,14.111 -30.75,13.279 -30.75,12.291C-30.75,11.314 -30.121,10.49 -29.25,10.179L-29.25,13.791C-29.25,14.001 -29.236,14.207 -29.219,14.413M-18.75,22.544C-19.118,23.012 -20.262,24.291 -21.75,24.291C-23.238,24.291 -24.382,23.012 -24.75,22.544L-24.75,20.66C-23.831,21.064 -22.816,21.291 -21.75,21.291C-20.684,21.291 -19.669,21.064 -18.75,20.66L-18.75,22.544ZM-15.75,13.791C-15.75,17.099 -18.442,19.791 -21.75,19.791C-25.058,19.791 -27.75,17.099 -27.75,13.791L-27.75,10.041C-27.75,8.801 -26.74,7.791 -25.5,7.791L-21.493,7.791C-20.491,7.791 -19.549,7.4 -18.841,6.692L-18.091,5.942C-17.836,5.687 -17.482,5.541 -17.121,5.541C-16.365,5.541 -15.75,6.156 -15.75,6.912L-15.75,13.791ZM-14.25,13.791L-14.25,10.179C-13.379,10.49 -12.75,11.314 -12.75,12.291C-12.75,13.279 -13.394,14.111 -14.281,14.413C-14.264,14.207 -14.25,14.001 -14.25,13.791M-29.25,21.469L-29.25,19.948C-28.66,19.474 -28.165,18.889 -27.787,18.223C-27.347,18.82 -26.824,19.348 -26.23,19.791L-26.25,19.791L-26.25,22.177L-26.488,22.224L-29.25,21.469ZM-21.75,30.18C-24.224,28.828 -26.082,26.543 -26.882,23.832L-25.811,23.617C-25.204,24.348 -23.753,25.791 -21.75,25.791C-19.747,25.791 -18.296,24.348 -17.689,23.617L-16.618,23.832C-17.417,26.542 -19.276,28.828 -21.75,30.18M-6,15.291C-6,17.773 -8.018,19.791 -10.5,19.791C-12.466,19.791 -14.23,18.482 -14.803,16.606C-14.722,16.407 -14.646,16.206 -14.582,15.999C-12.713,15.788 -11.25,14.215 -11.25,12.291L-11.25,9.291L-6.75,9.291C-6.336,9.291 -6,9.627 -6,10.041L-6,15.291ZM1.5,26.583C1.5,24.896 0.364,23.409 -1.264,22.965L-6.75,21.468L-6.75,19.967C-5.741,19.156 -5.004,18.027 -4.683,16.733C-2.885,16.457 -1.5,14.915 -1.5,13.041L-1.5,8.541C-1.5,3.578 -5.537,-0.459 -10.5,-0.459C-11.186,-0.459 -11.866,-0.38 -12.527,-0.227C-12.864,-0.768 -13.258,-1.277 -13.72,-1.739C-15.312,-3.332 -17.429,-4.209 -19.682,-4.209L-22.257,-4.209C-25.323,-4.209 -28.353,-4.7 -31.263,-5.67L-32.25,-6L-32.25,-3.33C-32.25,-2.267 -31.947,-1.221 -31.406,-0.314C-31.929,-0.409 -32.462,-0.459 -33,-0.459C-37.963,-0.459 -42,3.578 -42,8.541L-42,13.041C-42,14.915 -40.615,16.457 -38.817,16.734C-38.496,18.028 -37.759,19.157 -36.75,19.968L-36.75,21.469L-42.236,22.965C-43.864,23.408 -45,24.896 -45,26.583L-45,35.541L-37.5,35.541L-37.5,40.041L-6,40.041L-6,35.541L1.5,35.541L1.5,26.583Z" style="fill:rgb(242,80,76);fill-rule:nonzero;"/>
                </g>
            </g>
        </g>
    </g>
</svg>
