<svg width="48" height="48" viewBox="0 0 48 48" fill="none" xmlns="http://www.w3.org/2000/svg">
<g style="mix-blend-mode:luminosity" opacity="0.5">
<path d="M42 42H39V35.94C39 33.795 37.485 31.95 35.385 31.53L30.06 30.465L28.83 30.2175L28.8375 30.18L32.25 29.25V27L32.34 26.865C33.1725 27.4275 34.17 27.75 35.25 27.75C36.345 27.75 37.35 27.42 38.1825 26.8575L38.25 27V29.25L44.2875 30.9C45.5925 31.2525 46.5 32.4375 46.5 33.795V42H42Z" fill="#838F9B"/>
<path d="M9.8175 26.8575C12.03 27.7125 12.39 27.75 12.75 27.75C13.8225 27.75 14.8275 27.4275 15.66 26.865L15.75 27V29.25L19.2375 30.2025L17.94 30.465L12.615 31.53C10.515 31.95 9 33.795 9 35.94V42H6H1.5V33.795C1.5 32.4375 2.4075 31.2525 3.7125 30.9L9.75 29.25V27L9.8175 26.8575Z" fill="#838F9B"/>
<path d="M43.5 15.75V20.25C43.5 18.5925 42.1575 17.25 40.5 17.25C40.5 16.425 39.825 15.75 39 15.75H33.75V11.43C33.75 10.1775 33.4425 8.9475 32.865 7.8525C33.615 7.62 34.4175 7.5 35.25 7.5C39.81 7.5 43.5 11.19 43.5 15.75Z" fill="#B27946"/>
<path d="M7.5 17.25C5.8425 17.25 4.5 18.5925 4.5 20.25V15.75C4.5 13.47 5.4225 11.4075 6.915 9.915C8.4075 8.4225 10.47 7.5 12.75 7.5C13.7025 7.5 14.6175 7.6575 15.465 7.9575C14.67 9.3225 14.25 10.8675 14.25 12.4575V15.75H9C8.175 15.75 7.5 16.425 7.5 17.25Z" fill="#B27946"/>
<path d="M35.385 31.53L30.06 30.465L30 30.75L29.88 31.1625C29.0025 34.245 26.865 36.8175 24 38.25C21.135 36.8175 18.9975 34.245 18.12 31.1625L18 30.75L17.94 30.465L12.615 31.53C10.515 31.95 9 33.795 9 35.94V42V46.5H15H24H33H39V42V35.94C39 33.795 37.485 31.95 35.385 31.53Z" fill="#E6E9ED"/>
<path d="M28.83 30.2175L30.06 30.465L30 30.75L29.88 31.1625C29.0025 34.245 26.865 36.8175 24 38.25C21.135 36.8175 18.9975 34.245 18.12 31.1625L18 30.75L17.94 30.465L19.2375 30.2025L20.25 30C20.25 30 21.75 32.25 24 32.25C26.25 32.25 27.75 30 27.75 30L28.83 30.2175Z" fill="#FCD770"/>
<path d="M40.5 17.25C40.5 16.425 39.825 15.75 39 15.75H33.75V19.5C33.75 17.8425 32.4075 16.5 30.75 16.5V14.1225C30.75 13.5375 30.51 13.005 30.1275 12.6225C29.745 12.24 29.2125 12 28.6275 12C28.065 12 27.525 12.225 27.1275 12.6225L26.3775 13.3725C25.815 13.935 25.05 14.25 24.255 14.25H20.25C18.8475 14.25 17.6625 15.2175 17.34 16.5225L17.25 16.5C15.5925 16.5 14.25 17.8425 14.25 19.5V15.75H9C8.175 15.75 7.5 16.425 7.5 17.25C5.8425 17.25 4.5 18.5925 4.5 20.25C4.5 21.9075 5.8425 23.25 7.5 23.25L7.56 23.2425C7.7175 24.3975 8.25 25.425 9.0375 26.2125C9.2775 26.4525 9.5325 26.6625 9.8175 26.8575C12.03 27.7125 12.39 27.75 12.75 27.75C13.8225 27.75 14.8275 27.4275 15.66 26.865C16.665 26.1975 17.43 25.185 17.7825 24L17.9175 23.9325C18.255 24.6225 18.6975 25.2375 19.23 25.77C19.59 26.13 19.995 26.4525 20.43 26.7225L20.25 27V30C20.25 30 21.75 32.25 24 32.25C26.25 32.25 27.75 30 27.75 30V27L27.57 26.7225C28.65 26.055 29.52 25.0875 30.0825 23.9325L30.2175 24C30.57 25.185 31.335 26.1975 32.34 26.865C33.1725 27.4275 34.17 27.75 35.25 27.75C36.345 27.75 37.35 27.42 38.1825 26.8575C38.4675 26.6625 38.7225 26.4525 38.9625 26.2125C39.75 25.425 40.2825 24.3975 40.44 23.2425L40.5 23.25C42.1575 23.25 43.5 21.9075 43.5 20.25C43.5 18.5925 42.1575 17.25 40.5 17.25Z" fill="#F0D0B4"/>
<path d="M33.75 15.75V19.5C33.75 17.8425 32.4075 16.5 30.75 16.5V14.1225C30.75 13.5375 30.51 13.005 30.1275 12.6225C29.745 12.24 29.2125 12 28.6275 12C28.065 12 27.525 12.225 27.1275 12.6225L26.3775 13.3725C25.815 13.935 25.05 14.25 24.255 14.25H20.25C18.8475 14.25 17.6625 15.2175 17.34 16.5225L17.25 16.5C15.5925 16.5 14.25 17.8425 14.25 19.5V15.75V12.4575C14.25 10.8675 14.67 9.3225 15.465 7.9575C15.555 7.8 15.6525 7.65 15.75 7.5C14.79 6.54 14.25 5.235 14.25 3.8775V2.25C17.2275 3.24 20.355 3.75 23.49 3.75H26.07C27.09 3.75 28.08 3.9525 29.01 4.335C29.9325 4.7175 30.78 5.28 31.5 6C32.0475 6.5475 32.505 7.1775 32.865 7.8525C33.4425 8.9475 33.75 10.1775 33.75 11.43V15.75Z" fill="#FCD770"/>
<path d="M27.75 18C28.1642 18 28.5 17.6642 28.5 17.25C28.5 16.8358 28.1642 16.5 27.75 16.5C27.3358 16.5 27 16.8358 27 17.25C27 17.6642 27.3358 18 27.75 18Z" fill="black"/>
<path d="M20.25 18C20.6642 18 21 17.6642 21 17.25C21 16.8358 20.6642 16.5 20.25 16.5C19.8358 16.5 19.5 16.8358 19.5 17.25C19.5 17.6642 19.8358 18 20.25 18Z" fill="black"/>
<path d="M24 23.25C23.1727 23.25 22.5 22.5773 22.5 21.75H21C21 23.4045 22.3455 24.75 24 24.75C25.6545 24.75 27 23.4045 27 21.75H25.5C25.5 22.5773 24.8273 23.25 24 23.25Z" fill="black"/>
<path d="M47.25 33.792C47.25 32.1052 46.1138 30.618 44.4862 30.174L39 28.677V27.1762C40.0088 26.3655 40.746 25.236 41.067 23.9422C42.8647 23.6662 44.25 22.1235 44.25 20.25V15.75C44.25 10.7872 40.2127 6.74998 35.25 6.74998C34.5638 6.74998 33.8843 6.82873 33.2235 6.98173C32.886 6.44098 32.4923 5.93173 32.0303 5.46973C30.438 3.87748 28.3207 2.99998 26.0685 2.99998H23.493C20.427 2.99998 17.397 2.50873 14.487 1.53898L13.5 1.20898V3.87898C13.5 4.94248 13.803 5.98798 14.3445 6.89473C13.821 6.80023 13.2885 6.74998 12.75 6.74998C7.78725 6.74998 3.75 10.7872 3.75 15.75V20.25C3.75 22.1235 5.13525 23.6662 6.933 23.943C7.254 25.2367 7.99125 26.3662 9 27.177V28.6777L3.51375 30.174C1.88625 30.6172 0.75 32.1052 0.75 33.792V42.75H8.25V47.25H39.75V42.75H47.25V33.792ZM39.75 22.5C39.75 24.9817 37.7318 27 35.25 27C33.2835 27 31.5195 25.6912 30.9473 23.8147C31.0282 23.616 31.104 23.415 31.1677 23.208C33.0368 22.9972 34.5 21.4245 34.5 19.5V16.5H39C39.414 16.5 39.75 16.836 39.75 17.25V22.5ZM24 37.389C21.5257 36.0375 19.668 33.7522 18.8685 31.041L19.9395 30.8265C20.5462 31.557 21.9975 33 24 33C26.0025 33 27.4538 31.557 28.0605 30.8265L29.1315 31.041C28.3327 33.7515 26.4743 36.0367 24 37.389ZM16.5 28.6777V27.1567C17.0895 26.6827 17.5845 26.0985 17.9632 25.4317C18.4028 26.0287 18.9262 26.5567 19.5195 27H19.5V29.3857L19.2615 29.433L16.5 28.6777ZM31.5 21V17.388C32.3708 17.6985 33 18.5235 33 19.5C33 20.4877 32.3558 21.3202 31.4685 21.6217C31.4858 21.4162 31.5 21.21 31.5 21ZM30 21C30 24.3082 27.3083 27 24 27C20.6917 27 18 24.3082 18 21V17.25C18 16.0095 19.0095 15 20.25 15H24.2572C25.2592 15 26.2013 14.6092 26.9093 13.9012L27.6593 13.1512C27.9143 12.8962 28.2675 12.75 28.629 12.75C29.385 12.75 30 13.365 30 14.121V21ZM27 29.7525C26.6318 30.2205 25.488 31.5 24 31.5C22.512 31.5 21.3682 30.2205 21 29.7525V27.8692C21.9195 28.2727 22.9335 28.5 24 28.5C25.0665 28.5 26.0805 28.2727 27 27.8692V29.7525ZM16.5315 21.6217C15.6442 21.3202 15 20.4877 15 19.5C15 18.5235 15.6292 17.6985 16.5 17.388V21C16.5 21.21 16.5142 21.4162 16.5315 21.6217ZM28.7325 29.4322L28.5 29.3857V27H28.4805C29.0737 26.556 29.5972 26.028 30.0368 25.4317C30.4147 26.0992 30.9105 26.6835 31.5 27.1567V28.677L28.7325 29.4322ZM41.25 22.362V18.1387C42.1208 18.4492 42.75 19.2742 42.75 20.2507C42.75 21.2272 42.1208 22.0515 41.25 22.362ZM35.25 8.24998C39.3855 8.24998 42.75 11.6145 42.75 15.75V17.2695C42.282 16.9147 41.7337 16.6672 41.1315 16.5645C40.8397 15.66 39.9997 15 39 15H34.5V11.4315C34.5 10.3695 34.2983 9.34048 33.9255 8.37973C34.3613 8.30248 34.8022 8.24998 35.25 8.24998ZM15 3.27148C17.7593 4.08673 20.6108 4.49998 23.493 4.49998H26.0685C27.9202 4.49998 29.6602 5.22073 30.9697 6.53023C32.2792 7.83973 33 9.57973 33 11.4315V16.5187C32.562 16.1872 32.0572 15.939 31.5 15.8257V14.121C31.5 12.5385 30.2115 11.25 28.629 11.25C27.8625 11.25 27.141 11.5485 26.5988 12.0907L25.8488 12.8407C25.4235 13.266 24.8587 13.5 24.2572 13.5H20.25C18.6975 13.5 17.3633 14.4487 16.794 15.7965C16.125 15.879 15.513 16.131 15 16.5195V12.4545C15 11.1157 15.3293 9.81374 15.9495 8.63999C16.9417 9.34949 18.1447 9.74998 19.371 9.74998H21.75V8.24998H19.371C18.2205 8.24998 17.094 7.78348 16.2803 6.96973C15.4665 6.15598 15 5.02948 15 3.87898V3.27148ZM12.75 8.24998C13.302 8.24998 13.8457 8.31523 14.3775 8.43373C13.803 9.68998 13.5 11.055 13.5 12.4537V15H9C8.00025 15 7.16025 15.66 6.8685 16.5637C6.26625 16.6672 5.718 16.9147 5.25 17.2695V15.75C5.25 11.6145 8.6145 8.24998 12.75 8.24998ZM5.25 20.25C5.25 19.2735 5.87925 18.4485 6.75 18.138V22.3612C5.87925 22.0515 5.25 21.2265 5.25 20.25ZM8.25 22.5V17.25C8.25 16.836 8.586 16.5 9 16.5H13.5V19.5C13.5 21.4245 14.9633 22.9972 16.833 23.208C16.8967 23.415 16.9725 23.616 17.0535 23.8147C16.4805 25.6912 14.7165 27 12.75 27C10.2682 27 8.25 24.9817 8.25 22.5ZM6.75 41.25V33H5.25V41.25H2.25V33.792C2.25 32.7795 2.93175 31.887 3.9075 31.6207L10.5 29.823V28.0582C11.1952 28.341 11.9543 28.5 12.75 28.5C13.539 28.5 14.2957 28.326 15 28.0372V29.8222L15.978 30.09L12.4703 30.7912C10.0245 31.2802 8.25 33.4462 8.25 35.9392V41.25H6.75ZM38.25 45.75H33.75V36H32.25V45.75H15.75V36H14.25V45.75H9.75V35.9392C9.75 34.158 11.0175 32.6115 12.765 32.262L17.388 31.3372L17.397 31.3687C18.2895 34.4917 20.415 37.1257 23.2507 38.6865V39.75H21.7507V41.25H23.2507V44.25H24.7507V41.25H26.2507V39.75H24.7507V38.6857C27.5865 37.125 29.712 34.491 30.6045 31.3687L30.6135 31.3372L35.2365 32.262C36.9825 32.6115 38.25 34.158 38.25 35.9392V45.75ZM45.75 41.25H42.75V33H41.25V41.25H39.75V35.9392C39.75 33.4462 37.9755 31.2802 35.5298 30.7912L32.0212 30.09L33 29.823V28.0372C33.7043 28.326 34.461 28.5 35.25 28.5C36.0457 28.5 36.8047 28.341 37.5 28.0582V29.823L44.0925 31.6207C45.0683 31.8862 45.75 32.7795 45.75 33.792V41.25Z" fill="black"/>
</g>
</svg>
