<svg xmlns="http://www.w3.org/2000/svg" viewBox="0 0 48 48">
    <path fill="#50b6b1"
          d="M27.75 17.79a.75.75 0 100-1.5.75.75 0 000 1.5M20.25 17.79a.75.75 0 100-1.5.75.75 0 000 1.5M24 23.04c-.83 0-1.5-.67-1.5-1.5H21c0 1.65 1.35 3 3 3s3-1.35 3-3h-1.5c0 .83-.67 1.5-1.5 1.5M45.75 41.04h-3v-8.25h-1.5v8.25h-1.5V35.73a5.26 5.26 0 00-4.22-5.15l-3.51-.7.98-.27v-1.79a5.92 5.92 0 002.25.46c.8 0 1.55-.16 2.25-.44v1.76l6.59 1.8a2.25 2.25 0 011.66 2.17zm-7.5 4.5h-4.5v-9.75h-1.5v9.75h-16.5v-9.75h-1.5v9.75h-4.5V35.73a3.76 3.76 0 013.02-3.68l4.62-.93.01.03a12.21 12.21 0 005.85 7.32v1.06h-1.5v1.5h1.5v3h1.5v-3h1.5v-1.5h-1.5v-1.06a12.21 12.21 0 005.85-7.32l.01-.03 4.62.93a3.76 3.76 0 013.01 3.68zm-31.5-4.5v-8.25h-1.5v8.25h-3v-7.46c0-1.01.68-1.91 1.66-2.17l6.59-1.8v-1.76a5.95 5.95 0 002.25.44c.79 0 1.55-.17 2.25-.46v1.78l.98.27-3.51.7a5.26 5.26 0 00-4.22 5.15v5.31zm1.5-18.75v-5.25a.75.75 0 01.75-.75h4.5v3c0 1.92 1.46 3.5 3.33 3.71.06.21.14.41.22.61a4.53 4.53 0 01-4.3 3.19 4.5 4.5 0 01-4.5-4.5m-3-2.25c0-.98.63-1.8 1.5-2.11v4.22a2.24 2.24 0 01-1.5-2.11m7.5-12c.55 0 1.1.07 1.63.18a9.64 9.64 0 00-.88 4.02v2.55H9c-1 0-1.84.66-2.13 1.56a3.7 3.7 0 00-1.62.71v-1.52c0-4.13 3.37-7.5 7.5-7.5M15 3.06a29.9 29.9 0 008.49 1.23h2.58c1.85 0 3.59.72 4.9 2.03A6.89 6.89 0 0133 11.22v5.09a3.71 3.71 0 00-1.5-.69v-1.71a2.87 2.87 0 00-2.87-2.87 2.85 2.85 0 00-2.03.84l-.75.75c-.42.42-.99.66-1.59.66H20.25a3.75 3.75 0 00-3.46 2.3 3.71 3.71 0 00-1.79.72v-4.07c0-1.34.33-2.64.95-3.81a5.92 5.92 0 003.42 1.11h2.38v-1.5h-2.38a4.41 4.41 0 01-3.09-1.28A4.41 4.41 0 0115 3.67zm20.25 4.98c4.13 0 7.5 3.37 7.5 7.5v1.52a3.7 3.7 0 00-1.62-.71A2.25 2.25 0 0039 14.79h-4.5v-3.57a8.43 8.43 0 00-.57-3.05c.43-.08.88-.13 1.32-.13m6 14.11V17.93c.87.31 1.5 1.14 1.5 2.11 0 .98-.63 1.8-1.5 2.11m-12.52 7.07-.23-.05v-2.39h-.02a7.56 7.56 0 001.56-1.57 6.01 6.01 0 001.46 1.73v1.52zm-12.2-7.81A2.25 2.25 0 0115 19.29c0-.98.63-1.8 1.5-2.11v3.61c0 .21.01.42.03.62M27 29.54c-.37.47-1.51 1.75-3 1.75s-2.63-1.28-3-1.75V27.66a7.44 7.44 0 006 0zm3-8.75c0 3.31-2.69 6-6 6s-6-2.69-6-6v-3.75c0-1.24 1.01-2.25 2.25-2.25h4.01a3.73 3.73 0 002.65-1.1l.75-.75a1.37 1.37 0 012.34.97zm1.5 0v-3.61a2.25 2.25 0 011.5 2.11c0 .99-.64 1.82-1.53 2.12a7.53 7.53 0 00.03-.62m-15 7.68v-1.52a6.02 6.02 0 001.46-1.73c.44.6.96 1.13 1.56 1.57h-.02v2.39l-.24.05zM24 37.18a10.71 10.71 0 01-5.13-6.35l1.07-.21c.61.73 2.06 2.17 4.06 2.17s3.45-1.44 4.06-2.17l1.07.21A10.71 10.71 0 0124 37.18m15.75-14.89c0 2.48-2.02 4.5-4.5 4.5a4.53 4.53 0 01-4.3-3.19c.08-.2.16-.4.22-.61 1.87-.21 3.33-1.78 3.33-3.71v-3H39a.75.75 0 01.75.75zm7.5 11.29a3.76 3.76 0 00-2.76-3.62L39 28.47v-1.5a6 6 0 002.07-3.23c1.8-.28 3.18-1.82 3.18-3.69v-4.5c0-4.96-4.04-9-9-9a8.99 8.99 0 00-2.03.23 8.37 8.37 0 00-7.16-3.98h-2.58c-3.07 0-6.1-.49-9.01-1.46L13.5 1v2.67c0 1.06.3 2.11.84 3.02a8.92 8.92 0 00-1.59-.14c-4.96 0-9 4.04-9 9v4.5c0 1.87 1.39 3.42 3.18 3.69A6 6 0 009 26.97v1.5l-5.49 1.5A3.76 3.76 0 00.75 33.58v8.96h7.5v4.5h31.5v-4.5h7.5z"/>
</svg>
