<svg xmlns="http://www.w3.org/2000/svg" viewBox="0 0 48 48">
    <path fill="#50b6b1" d="m25.8 35.5a5.5 5.5 0 01-3.3-5c0-1.1.3-2.2 1-3.1l5-7.3 5 7.3c.6.9 1 2 1 3.1a5.5 5.5 0 01-3.3 5l-2 .9v-3l3.5-3.5-1.1-1.1-2.5 2.5v-7.9h-1.5v7.9l-2.5-2.5-1.1 1.1 3.5 3.5v3zm9.6-10.2.6.8.6-.8a3 3 0 012.4-1.3 3 3 0 013 2.6 3.8 3.8 0 00-1.3.9l1.1 1a2.3 2.3 0 011.7-.8c1.2 0 2.3 1 2.3 2.3a2.3 2.3 0 01-2.3 2.3h-7.7a6.9 6.9 0 00.2-1.9c0-1.4-.4-2.8-1.2-4l-1.7-2.5a3 3 0 012.3 1.2m6.7 20.2.3.3h-14.3l-.6-.7c-.2-.3-.4-.5-.7-.7l.5-.3a11.8 11.8 0 016.5-1.9c3.2 0 6.1 1.2 8.3 3.5m-36.2-.1a13.9 13.9 0 019.9-4.1c3.9 0 7.6 1.6 10.2 4.5h-20.4zm3.5-15.3a9 9 0 01-4.2-7.6 9 9 0 011.4-4.9l6.1-9.4.9 1.3 1.2-.8-2.1-3.2-3.3 5h-4.9c-1.2 0-2.3-1-2.3-2.3s1.1-2.2 2.3-2.2c.6 0 1.3.3 1.7.8l1.1-1a3.8 3.8 0 00-1.3-.9 3 3 0 013-2.6c.9 0 1.8.4 2.4 1.2l.6.8.6-.8a3 3 0 012.4-1.2 3 3 0 013 2.6 3.8 3.8 0 00-1.3.9l1.1 1a2.3 2.3 0 011.7-.8c1.2 0 2.3 1 2.3 2.3s-1 2.3-2.3 2.3h-5.1l4.4 7a9 9 0 011.4 4.9 9 9 0 01-4.2 7.6l-2.5 1.5v-3.6l3.5-3.5-1.1-1.1-2.5 2.5v-4.6l3.5-3.5-1.1-1.1-2.5 2.5v-7.9h-1.3v7.9l-2.5-2.5-1.1 1.1 3.6 3.5v4.6l-2.5-2.5-1.1 1.1 3.6 3.6v3.6zm22.4 6.8a7 7 0 003.3-3.1h8.3c2.1 0 3.8-1.7 3.8-3.8s-1.7-3.8-3.8-3.8c0 0 0 0-.1 0a4.5 4.5 0 00-4.3-3.7 4.4 4.4 0 00-3 1.2 4.4 4.4 0 00-3-1.2c-.3 0-.6 0-.9.1l-.1 0-3.6-5.2-6.3 9a7 7 0 002.9 10.4l2.6 1.2v4c-.5.2-.9.5-1.3.8l-.8.5a15.4 15.4 0 00-9.8-3.5c-.8 0-1.6.1-2.3.2v-6.5l3.4-2.1a10.5 10.5 0 004.9-8.9c0-2-.6-4-1.7-5.7l-2.9-4.8h2.4c2.1 0 3.8-1.7 3.8-3.8s-1.7-3.7-3.8-3.7c0 0 0 0-.1 0a4.5 4.5 0 00-4.4-3.7 4.4 4.4 0 00-3 1.2 4.4 4.4 0 00-3-1.2 4.5 4.5 0 00-4.4 3.8c-.1-.1-.1-.1-.1-.1-2.1 0-3.7 1.7-3.7 3.8s1.6 3.7 3.7 3.7h4l-3 4.7a10.5 10.5 0 00-1.7 5.7c0 3.6 1.8 6.9 4.9 8.9l3.3 2.1v6.8a15.3 15.3 0 00-7.1 4l-1.5 1.6h-2.6v1.5h46.5v-1.5h-2.7l-1.4-1.4a13.2 13.2 0 00-9.4-3.9c-1.6 0-3.1.3-4.5.8v-3.3zm5.7-30.1c2.1 0 3.8 1.7 3.8 3.8s-1.7 3.8-3.8 3.8-3.8-1.7-3.8-3.8 1.7-3.8 3.8-3.8m0 9c2.9 0 5.3-2.4 5.3-5.3s-2.4-5.3-5.3-5.3-5.3 2.4-5.3 5.3 2.4 5.3 5.3 5.3m.8-15h-1.5v3h1.5zm-7.2 2.3-1.1 1.1 2.1 2.1 1.1-1.1zm-.3 6.7h-3v1.5h3zm1.4 4.9-2.1 2.1 1.1 1.1 2.1-2.1zm6.1 2.6h-1.5v3h1.5zm4.5-2.6-1.1 1.1 2.1 2.1 1.1-1.1zm4.5-4.9h-3v1.5h3zm-3.4-6.7-2.1 2.1 1.1 1.1 2.1-2.1z"/>
</svg>
