<svg width="48" height="48" viewBox="0 0 48 48" fill="none" xmlns="http://www.w3.org/2000/svg">
<g style="mix-blend-mode:luminosity" opacity="0.5" clip-path="url(#clip0_3_229)">
<path d="M28.5 42.4275C29.04 42.1725 29.595 41.9625 30.165 41.79C31.335 41.43 32.565 41.25 33.8025 41.25C37.1325 41.25 40.32 42.57 42.675 44.925L44.25 46.5H27.75L26.8875 45.5175C26.475 45.045 26.04 44.6025 25.575 44.1975L26.835 43.3575C27.3675 43.005 27.9225 42.69 28.5 42.4275Z" fill="#CF9E76"/>
<path d="M27.75 46.5H3.75L5.445 44.805C6.825 43.425 8.445 42.345 10.215 41.6175C11.9775 40.89 13.89 40.5 15.8325 40.5C19.4475 40.5 22.905 41.8275 25.575 44.1975C26.04 44.6025 26.475 45.045 26.8875 45.5175L27.75 46.5Z" fill="#CF9E76"/>
<path d="M37.5 15C39.9853 15 42 12.9853 42 10.5C42 8.01472 39.9853 6 37.5 6C35.0147 6 33 8.01472 33 10.5C33 12.9853 35.0147 15 37.5 15Z" fill="#FCD770"/>
<path d="M42.7725 27.09C43.005 27.03 43.2525 27 43.5 27C45.1575 27 46.5 28.3425 46.5 30C46.5 31.6575 45.1575 33 43.5 33H34.7025C35.055 32.2125 35.25 31.35 35.25 30.45C35.25 29.1825 34.86 27.945 34.14 26.895L31.8075 23.52L32.0475 23.355L32.25 23.325C32.49 23.2725 32.745 23.25 33 23.25C34.23 23.25 35.3175 23.85 36 24.7725C36.6825 23.85 37.77 23.25 39 23.25C41.07 23.25 42.75 24.93 42.75 27L42.7725 27.09Z" fill="#E6E9ED"/>
<path d="M5.2275 5.34L5.25 5.25C5.25 3.18 6.93 1.5 9 1.5C10.23 1.5 11.3175 2.1 12 3.0225C12.6825 2.1 13.77 1.5 15 1.5C17.07 1.5 18.75 3.18 18.75 5.25L18.7725 5.34C19.005 5.28 19.2525 5.25 19.5 5.25C21.1575 5.25 22.5 6.5925 22.5 8.25C22.5 9.9075 21.1575 11.25 19.5 11.25H15.75L12.75 6.75L9.81 11.2875L9.75 11.25H4.5C2.8425 11.25 1.5 9.9075 1.5 8.25C1.5 6.5925 2.8425 5.25 4.5 5.25C4.7475 5.25 4.995 5.28 5.2275 5.34Z" fill="#E6E9ED"/>
<path d="M34.7025 33C34.575 33.2925 34.4175 33.5775 34.245 33.8475C33.6 34.8375 32.67 35.64 31.545 36.1425L28.5 37.5L25.455 36.1425C23.1975 35.145 21.75 32.91 21.75 30.45C21.75 29.1825 22.14 27.945 22.86 26.895L28.5 18.75L31.8075 23.52L34.14 26.895C34.86 27.945 35.25 29.1825 35.25 30.45C35.25 31.35 35.055 32.2125 34.7025 33Z" fill="#A0D468"/>
<path d="M12.75 33L9.0225 30.63C6.21 28.8375 4.5 25.725 4.5 22.3875C4.5 20.505 5.0475 18.66 6.0675 17.0775L9.81 11.2875L12.75 6.75L15.75 11.25L19.4325 17.0775C20.4525 18.66 21 20.505 21 22.3875C21 24.06 20.5725 25.665 19.7925 27.09C19.0125 28.5075 17.88 29.73 16.4775 30.63L12.75 33Z" fill="#A0D468"/>
<path d="M37.5 15.75C40.395 15.75 42.75 13.3942 42.75 10.5C42.75 7.60575 40.395 5.25 37.5 5.25C34.605 5.25 32.25 7.60575 32.25 10.5C32.25 13.3942 34.605 15.75 37.5 15.75ZM37.5 6.75C39.5677 6.75 41.25 8.43225 41.25 10.5C41.25 12.5677 39.5677 14.25 37.5 14.25C35.4323 14.25 33.75 12.5677 33.75 10.5C33.75 8.43225 35.4323 6.75 37.5 6.75Z" fill="black"/>
<path d="M38.25 0.75H36.75V3.75H38.25V0.75Z" fill="black"/>
<path d="M31.1348 3.07427L30.0743 4.13507L32.1959 6.25607L33.2564 5.19527L31.1348 3.07427Z" fill="black"/>
<path d="M30.75 9.75H27.75V11.25H30.75V9.75Z" fill="black"/>
<path d="M32.1963 14.7427L30.075 16.864L31.1357 17.9246L33.257 15.8033L32.1963 14.7427Z" fill="black"/>
<path d="M38.25 17.25H36.75V20.25H38.25V17.25Z" fill="black"/>
<path d="M42.8026 14.7428L41.742 15.8035L43.8633 17.9248L44.9239 16.8641L42.8026 14.7428Z" fill="black"/>
<path d="M47.25 9.75H44.25V11.25H47.25V9.75Z" fill="black"/>
<path d="M43.8637 3.07578L41.7424 5.19708L42.803 6.25773L44.9243 4.13643L43.8637 3.07578Z" fill="black"/>
<path d="M31.8518 36.831C33.294 36.1898 34.4295 35.0865 35.1495 33.75H43.5C45.5677 33.75 47.25 32.0677 47.25 30C47.25 27.9323 45.5677 26.25 43.5 26.25C43.4775 26.25 43.455 26.253 43.4325 26.2537C43.0755 24.1268 41.2267 22.5 39 22.5C37.8742 22.5 36.819 22.914 36 23.6588C35.181 22.914 34.1258 22.5 33 22.5C32.6978 22.5 32.3947 22.53 32.1367 22.5833L32.073 22.593L28.5 17.4323L22.242 26.4712C21.4298 27.645 21 29.0198 21 30.4478C21 33.2062 22.6282 35.712 25.1482 36.8317L27.75 37.9875V41.9647C27.2962 42.1973 26.85 42.4485 26.4217 42.7335L25.6335 43.2593C22.8915 41.0078 19.434 39.75 15.8348 39.75C15.0443 39.75 14.2673 39.8273 13.5 39.9427V33.4118L16.8773 31.2622C19.9282 29.3212 21.75 26.0025 21.75 22.386C21.75 20.3535 21.1665 18.3765 20.0662 16.677L17.1112 12H19.5C21.5677 12 23.25 10.3177 23.25 8.25C23.25 6.18225 21.5677 4.5 19.5 4.5C19.4775 4.5 19.455 4.503 19.4325 4.50375C19.0755 2.37675 17.2267 0.75 15 0.75C13.8743 0.75 12.819 1.164 12 1.90875C11.181 1.164 10.1257 0.75 9 0.75C6.77325 0.75 4.9245 2.37675 4.5675 4.50375C4.545 4.503 4.5225 4.5 4.5 4.5C2.43225 4.5 0.75 6.18225 0.75 8.25C0.75 10.3177 2.43225 12 4.5 12H8.46L5.43825 16.6702C4.3335 18.3765 3.75 20.3535 3.75 22.386C3.75 26.0025 5.57175 29.3212 8.62275 31.263L12 33.4118V40.2458C9.345 40.9222 6.90525 42.2835 4.91775 44.2718L3.4395 45.75H0.75V47.25H47.25V45.75H44.5605L43.2067 44.3962C40.6943 41.8838 37.3538 40.5 33.8003 40.5C32.2343 40.5 30.699 40.7798 29.25 41.3078V37.9875L31.8518 36.831ZM9.42825 29.997C6.81225 28.332 5.25 25.4865 5.25 22.386C5.25 20.643 5.75025 18.948 6.6975 17.4847L12.7598 8.1165L13.626 9.41625L14.874 8.5845L12.7402 5.38425L9.4305 10.5H4.5C3.2595 10.5 2.25 9.4905 2.25 8.25C2.25 7.0095 3.2595 6 4.5 6C5.145 6 5.76075 6.2775 6.1875 6.762L7.3125 5.7705C6.95625 5.367 6.522 5.049 6.042 4.833C6.2475 3.3765 7.48875 2.25 9 2.25C9.94725 2.25 10.8217 2.694 11.3985 3.46875L12 4.27575L12.6015 3.46875C13.1783 2.694 14.0527 2.25 15 2.25C16.5113 2.25 17.7525 3.3765 17.958 4.83225C17.478 5.049 17.0438 5.36625 16.6875 5.76975L17.8125 6.76125C18.2393 6.2775 18.855 6 19.5 6C20.7405 6 21.75 7.0095 21.75 8.25C21.75 9.4905 20.7405 10.5 19.5 10.5H14.3888L18.8025 17.484C19.749 18.9473 20.25 20.6423 20.25 22.3853C20.25 25.4865 18.6877 28.332 16.0718 29.9963L13.5 31.6335V28.0605L17.0303 24.5303L15.9697 23.4697L13.5 25.9395V21.3105L17.0303 17.7803L15.9697 16.7197L13.5 19.1895V11.25H12V19.1895L9.53025 16.7197L8.46975 17.7803L12 21.3105V25.9395L9.53025 23.4697L8.46975 24.5303L12 28.0605V31.6335L9.42825 29.997ZM5.97825 45.3323C8.61075 42.7005 12.111 41.25 15.8348 41.25C19.7325 41.25 23.436 42.8932 26.0715 45.75H5.5605L5.97825 45.3323ZM42.1462 45.4567L42.4395 45.75H28.0897L27.4538 45.0225C27.2355 44.7728 27.0075 44.5343 26.7757 44.301L27.2542 43.9823C29.1998 42.6855 31.4633 42 33.8003 42C36.9533 42 39.9165 43.2278 42.1462 45.4567ZM35.3985 25.2188L36 26.0257L36.6015 25.2188C37.1782 24.444 38.0527 24 39 24C40.5112 24 41.7525 25.1265 41.958 26.5823C41.478 26.799 41.0438 27.1163 40.6875 27.5198L41.8125 28.5112C42.2393 28.0275 42.855 27.75 43.5 27.75C44.7405 27.75 45.75 28.7595 45.75 30C45.75 31.2405 44.7405 32.25 43.5 32.25H35.751C35.907 31.6695 36 31.0665 36 30.4478C36 29.0205 35.5703 27.6457 34.758 26.4712L33.054 24.0098C33.9548 24.0315 34.8345 24.4613 35.3985 25.2188ZM25.758 35.46C23.7788 34.581 22.5 32.613 22.5 30.4478C22.5 29.3265 22.8375 28.2465 23.4757 27.3255L28.5 20.0677L33.5243 27.3255C34.1625 28.2465 34.5 29.3265 34.5 30.4478C34.5 32.6138 33.2212 34.5817 31.242 35.4607L29.25 36.3457V33.3105L32.7803 29.7803L31.7197 28.7197L29.25 31.1895V23.25H27.75V31.1895L25.2803 28.7197L24.2197 29.7803L27.75 33.3105V36.3457L25.758 35.46Z" fill="black"/>
</g>
<defs>
<clipPath id="clip0_3_229">
<rect width="48" height="48" fill="white"/>
</clipPath>
</defs>
</svg>
