<?xml version="1.0" encoding="UTF-8" standalone="no"?>
<!DOCTYPE svg PUBLIC "-//W3C//DTD SVG 1.1//EN" "http://www.w3.org/Graphics/SVG/1.1/DTD/svg11.dtd">
<svg width="100%" height="100%" viewBox="0 0 48 48" version="1.1" xmlns="http://www.w3.org/2000/svg" xmlns:xlink="http://www.w3.org/1999/xlink" xml:space="preserve" xmlns:serif="http://www.serif.com/" style="fill-rule:evenodd;clip-rule:evenodd;stroke-linejoin:round;stroke-miterlimit:2;">
    <g transform="matrix(1,0,0,1,-64,0)">
        <g transform="matrix(1,0,0,1,64,0)">
            <rect id="Artboard1" x="0" y="0" width="48" height="48" style="fill:none;"/>
            <clipPath id="_clip1">
                <rect id="Artboard11" serif:id="Artboard1" x="0" y="0" width="48" height="48"/>
            </clipPath>
            <g clip-path="url(#_clip1)">
                <g transform="matrix(1,0,0,1,43.0191,27.4855)">
                    <path d="M0,-24.06L4.041,2.627C3.971,2.162 3.871,1.707 3.755,1.259C3.129,-1.129 1.916,-3.277 0.271,-5.023L0.278,-5.031L-1.066,-12.673L-2.882,-22.955C-2.944,-23.326 -3.268,-23.596 -3.639,-23.596L-34.251,-23.596C-34.622,-23.596 -34.946,-23.326 -35.008,-22.955L-35.989,-17.392L-36.824,-12.672L-37.488,-8.916L-38.972,-0.479L-38.987,-0.417L-42.124,-0.417L-37.936,-24.137C-37.681,-25.613 -36.391,-26.687 -34.892,-26.687L-3.06,-26.687C-1.53,-26.687 -0.232,-25.567 0,-24.06" style="fill:rgb(255,227,226);fill-rule:nonzero;"/>
                </g>
                <g transform="matrix(1,0,0,1,46.774,23.3358)">
                    <path d="M0,5.409L-0.015,5.409L-2.233,6.691L-6.173,4.505L-6.096,0.001L-3.871,-1.282C-3.731,-1.151 -3.6,-1.02 -3.484,-0.872C-1.839,0.874 -0.625,3.021 0,5.409" style="fill:rgb(255,185,183);fill-rule:nonzero;"/>
                </g>
                <g transform="matrix(1,0,0,1,46.7586,41.6172)">
                    <path d="M0,-5.409L0.015,-5.409C-0.656,-2.836 -2.016,-0.534 -3.855,1.282L-6.08,0L-6.158,-4.505L-2.217,-6.691L0,-5.409Z" style="fill:rgb(255,185,183);fill-rule:nonzero;"/>
                </g>
                <g transform="matrix(1,0,0,1,36.4362,42.2814)">
                    <path d="M0,1.785L0,4.358C-1.236,4.698 -2.526,4.875 -3.863,4.875C-5.2,4.875 -6.49,4.698 -7.726,4.357L-7.726,1.785L-3.863,-0.533L0,1.785Z" style="fill:rgb(255,185,183);fill-rule:nonzero;"/>
                </g>
                <g transform="matrix(1,0,0,1,24.5453,40.7125)">
                    <path d="M0,-3.6L-0.077,0.904L-2.302,2.187C-4.141,0.37 -5.501,-1.931 -6.173,-4.504L-6.158,-4.504L-3.94,-5.787L0,-3.6Z" style="fill:rgb(255,185,183);fill-rule:nonzero;"/>
                </g>
                <g transform="matrix(1,0,0,1,36.4362,34.7948)">
                    <path d="M0,-4.636L0,-0L-3.863,2.318L-7.726,-0L-7.726,-4.636L-3.863,-6.954L0,-4.636Z" style="fill:rgb(255,185,183);fill-rule:nonzero;"/>
                </g>
                <g transform="matrix(1,0,0,1,36.4362,22.6717)">
                    <path d="M0,-4.358L0,-1.785L-3.863,0.533L-7.726,-1.785L-7.726,-4.358C-6.49,-4.697 -5.2,-4.875 -3.863,-4.875C-3.608,-4.875 -3.361,-4.867 -3.106,-4.86C-2.04,-4.798 -0.997,-4.636 0,-4.358Z" style="fill:rgb(255,185,183);fill-rule:nonzero;"/>
                </g>
                <g transform="matrix(1,0,0,1,20.7674,28.3201)">
                    <path d="M0,-4.559C0.44,-5.169 0.935,-5.74 1.475,-6.266L3.701,-4.984L3.778,-0.479L-0.162,1.707L-2.38,0.425L-2.395,0.425C-2.241,-0.147 -2.063,-0.711 -1.839,-1.252C-1.376,-2.442 -0.75,-3.547 0,-4.559" style="fill:rgb(255,185,183);fill-rule:nonzero;"/>
                </g>
                <g transform="matrix(1,0,0,1,42.752,6.0329)">
                    <path d="M0,35.889L-1.309,35.134L-1.37,31.531L1.781,29.781L3.109,30.548C2.485,32.564 1.403,34.378 0,35.889M-13.27,39.992L-13.27,38.471L-10.179,36.616L-7.088,38.471L-7.088,39.992C-8.084,40.22 -9.116,40.351 -10.179,40.351C-11.242,40.351 -12.274,40.22 -13.27,39.992M-23.467,30.547L-22.14,29.781L-18.988,31.53L-19.05,35.133L-20.358,35.888C-21.761,34.378 -22.843,32.564 -23.467,30.547M-26.857,20.263L-23.7,17.105L-22.992,17.814C-23.511,18.583 -23.956,19.404 -24.332,20.263L-26.857,20.263ZM-36.91,-2.546C-36.715,-3.657 -35.756,-4.462 -34.628,-4.462L-2.792,-4.462C-1.637,-4.462 -0.673,-3.634 -0.5,-2.491L2.566,17.723C2.176,17.154 1.739,16.622 1.278,16.111L-1.854,-1.64C-1.984,-2.38 -2.624,-2.916 -3.375,-2.916L-33.98,-2.916C-34.732,-2.916 -35.371,-2.38 -35.503,-1.64L-39.367,20.263L-40.936,20.263L-36.91,-2.546ZM-2.142,30.191L-5.543,28.227L-5.543,24.66L-2.142,22.696L1.797,24.882L3.486,23.907C3.638,24.731 3.729,25.577 3.729,26.444C3.729,27.31 3.638,28.156 3.486,28.979L1.797,28.005L-2.142,30.191ZM-9.406,31.517L-6.234,29.614L-2.914,31.53L-2.839,36.034L-1.156,37.006C-2.439,38.103 -3.922,38.964 -5.543,39.54L-5.543,37.596L-9.406,35.278L-9.406,31.517ZM-24.086,26.444C-24.086,25.577 -23.996,24.731 -23.844,23.908L-22.155,24.883L-18.216,22.696L-14.815,24.66L-14.815,28.227L-18.216,30.191L-22.155,28.005L-23.844,28.98C-23.996,28.156 -24.086,27.31 -24.086,26.444M-20.358,16.998L-19.049,17.753L-18.988,21.357L-22.139,23.106L-23.467,22.34C-22.843,20.323 -21.761,18.51 -20.358,16.998M-18.678,12.083L-17.765,12.997C-19.401,13.923 -20.855,15.133 -22.052,16.569L-22.608,16.013L-18.678,12.083ZM-27.63,10.991L-23.7,7.061L-19.771,10.991L-23.7,14.921L-27.63,10.991ZM-32.652,16.013L-28.722,12.083L-24.793,16.013L-28.722,19.943L-32.652,16.013ZM-33.744,17.105L-30.587,20.263L-36.901,20.263L-33.744,17.105ZM-36.716,14.134L-34.837,16.013L-37.521,18.697L-36.716,14.134ZM-35.21,5.596L-34.837,5.97L-35.37,6.503L-35.21,5.596ZM-32.133,-1.371L-29.815,0.947L-33.744,4.876L-34.882,3.739L-33.98,-1.371L-32.133,-1.371ZM-28.722,-0.146L-29.948,-1.371L-27.497,-1.371L-28.722,-0.146ZM-32.652,5.969L-28.722,2.039L-24.793,5.969L-28.722,9.898L-32.652,5.969ZM-35.838,9.155L-33.744,7.061L-29.815,10.991L-33.744,14.921L-36.388,12.276L-35.838,9.155ZM-22.088,-1.371L-19.771,0.947L-23.7,4.876L-27.63,0.947L-25.312,-1.371L-22.088,-1.371ZM-18.678,-0.146L-19.903,-1.371L-17.453,-1.371L-18.678,-0.146ZM-12.044,-1.371L-9.726,0.947L-13.656,4.876L-17.585,0.947L-15.268,-1.371L-12.044,-1.371ZM-8.634,-0.146L-9.859,-1.371L-7.408,-1.371L-8.634,-0.146ZM-3.612,4.876L-7.541,0.947L-5.223,-1.371L-3.375,-1.371L-2.473,3.739L-3.612,4.876ZM-2.519,5.969L-2.146,5.595L-1.986,6.501L-2.519,5.969ZM-7.751,11.201L-3.612,7.061L-1.519,9.155L-0.604,14.337C-2.636,12.727 -5.08,11.625 -7.751,11.201M-1.309,17.754L0,16.999C1.403,18.51 2.485,20.323 3.11,22.341L1.782,23.107L-1.369,21.358L-1.309,17.754ZM-8.634,9.898L-12.563,5.969L-8.634,2.039L-4.704,5.969L-8.634,9.898ZM-10.179,16.271L-13.27,14.417L-13.27,12.895C-12.274,12.668 -11.242,12.536 -10.179,12.536C-9.116,12.536 -8.084,12.668 -7.088,12.895L-7.088,14.417L-10.179,16.271ZM-18.678,9.898L-22.608,5.969L-18.678,2.039L-14.748,5.969L-18.678,9.898ZM-13.656,7.061L-9.726,10.991L-9.748,11.013C-9.892,11.009 -10.034,10.991 -10.179,10.991C-12.357,10.991 -14.428,11.449 -16.31,12.266L-17.585,10.991L-13.656,7.061ZM-14.124,23.274L-17.443,21.357L-17.519,16.853L-19.202,15.881C-17.919,14.784 -16.436,13.923 -14.815,13.347L-14.815,15.291L-10.952,17.609L-10.952,21.37L-14.124,23.274ZM-10.179,30.179L-13.27,28.324L-13.27,24.564L-10.179,22.71L-7.088,24.564L-7.088,28.324L-10.179,30.179ZM-2.839,16.853L-2.914,21.357L-6.234,23.274L-9.406,21.37L-9.406,17.609L-5.543,15.291L-5.543,13.347C-3.922,13.923 -2.438,14.784 -1.156,15.881L-2.839,16.853ZM-14.815,39.54C-16.436,38.964 -17.92,38.103 -19.202,37.006L-17.519,36.034L-17.443,31.53L-14.124,29.614L-10.952,31.517L-10.952,35.278L-14.815,37.596L-14.815,39.54ZM5.064,24.017L5.083,24.014L1.027,-2.722C0.739,-4.626 -0.867,-6.007 -2.792,-6.007L-34.628,-6.007C-36.506,-6.007 -38.107,-4.665 -38.433,-2.815L-42.778,21.808L-24.919,21.808C-25.38,23.272 -25.632,24.829 -25.632,26.444C-25.632,34.964 -18.699,41.896 -10.179,41.896C-1.658,41.896 5.274,34.964 5.274,26.444C5.274,25.616 5.19,24.809 5.064,24.017" style="fill:rgb(254,92,87);fill-rule:nonzero;"/>
                </g>
            </g>
        </g>
    </g>
</svg>
