<svg xmlns="http://www.w3.org/2000/svg" fill="none" viewBox="0 0 42 42"><path fill="#0059FF" d="M9.81 18.71a7.23 7.23 0 0 0-.29-2.6 12.9 12.9 0 0 0-1.51-2.9c-.73-1.1-1.22-2.1-1.47-2.98a8.22 8.22 0 0 1-.25-2.96h1.6a7 7 0 0 0 .29 2.64c.25.78.76 1.75 1.54 2.9a11.1 11.1 0 0 1 1.44 2.93c.26.88.35 1.87.27 2.97H9.81Zm6.89 0a7.47 7.47 0 0 0-.3-2.6 12.5 12.5 0 0 0-1.54-2.9 11.6 11.6 0 0 1-1.45-2.98 8.22 8.22 0 0 1-.25-2.96h1.62c-.06.97.03 1.85.27 2.64.25.78.76 1.75 1.54 2.9.71 1.06 1.2 2.04 1.45 2.93.25.88.34 1.87.26 2.97h-1.6Zm6.98 0a7.02 7.02 0 0 0-.3-2.6c-.26-.76-.77-1.73-1.55-2.9a11.2 11.2 0 0 1-1.44-2.98 8.46 8.46 0 0 1-.24-2.96h1.61c-.07.97.03 1.85.28 2.64.26.78.77 1.75 1.55 2.9.71 1.06 1.2 2.04 1.44 2.93.26.88.35 1.87.27 2.97h-1.62ZM8.96 32.98c-.97 0-1.78-.33-2.45-1a3.31 3.31 0 0 1-.99-2.44v-6.73h22.75a3.94 3.94 0 0 1 2.74-3.78l7.38-2.5.5 1.5-7.32 2.48a2.45 2.45 0 0 0-1.68 2.32v6.71c0 .95-.34 1.76-1 2.43a3.28 3.28 0 0 1-2.43 1.01H8.96Zm0-1.61h17.5a1.8 1.8 0 0 0 1.81-1.83v-5.12H7.14v5.12a1.78 1.78 0 0 0 1.82 1.83Z"/></svg>