<svg xmlns="http://www.w3.org/2000/svg" fill="none" viewBox="0 0 42 42"><path fill="#0059FF" d="M25.18 20.02a1.6 1.6 0 0 1-1.17-.47c-.33-.32-.49-.7-.49-1.17 0-.46.16-.85.48-1.17.32-.32.7-.48 1.17-.48.46 0 .85.15 1.17.47.32.32.48.7.48 1.17a1.62 1.62 0 0 1-1.64 1.65Zm-8.35 0a1.6 1.6 0 0 1-1.17-.47c-.32-.32-.48-.7-.48-1.17a1.62 1.62 0 0 1 1.64-1.65c.46 0 .85.15 1.17.47.33.32.49.7.49 1.17 0 .46-.16.85-.48 1.17-.32.32-.7.48-1.17.48ZM21 28.4a7.44 7.44 0 0 1-3.89-1.05 8.14 8.14 0 0 1-2.84-2.85h13.46a8.14 8.14 0 0 1-2.84 2.85A7.44 7.44 0 0 1 21 28.4Zm0 6.6a14.12 14.12 0 0 1-12.9-8.54C7.37 24.76 7 22.94 7 21s.37-3.76 1.1-5.46a14.12 14.12 0 0 1 7.44-7.44C17.24 7.37 19.06 7 21 7s3.76.37 5.46 1.1a14.12 14.12 0 0 1 7.44 7.44c.73 1.7 1.1 3.52 1.1 5.46s-.37 3.76-1.1 5.46a14.12 14.12 0 0 1-7.44 7.44A13.7 13.7 0 0 1 21 35Zm0-1.75c3.38 0 6.27-1.2 8.66-3.59A11.8 11.8 0 0 0 33.25 21c0-3.38-1.2-6.27-3.59-8.66a11.8 11.8 0 0 0-9.61-3.56c-.32.03-.62.07-.9.12-.1.22-.14.41-.16.57l-.02.6c0 .74.27 1.38.8 1.92a2.63 2.63 0 0 0 2.7.67c.19-.09.4-.13.63-.13.2 0 .36.07.49.23s.2.34.2.55c0 .4-.23.66-.67.8-.45.15-.92.23-1.42.23a4.12 4.12 0 0 1-3.02-1.26 4.12 4.12 0 0 1-1.25-3.02v-.35c0-.11.02-.25.07-.43a12.06 12.06 0 0 0-6.27 4.3A11.75 11.75 0 0 0 8.75 21c0 3.38 1.2 6.27 3.59 8.66A11.8 11.8 0 0 0 21 33.25Z"/></svg>