<svg xmlns="http://www.w3.org/2000/svg" fill="none" viewBox="0 0 42 42"><mask id="a" width="17" height="31" x="12" y="5" fill="#000" maskUnits="userSpaceOnUse"><path fill="#fff" d="M12 5h17v31H12z"/><path d="M28.7 31.8V11.07c0-.63-1.01-2.42-1.5-3.27v-.45a.69.69 0 0 0-.36-1.26c-.16-.01-1.52-.1-6.05-.1-4.44 0-5.58.08-5.75.1a.69.69 0 0 0-.53 1.08v.63C14 8.66 13 10.45 13 11.08v20.96l.02.04.01.04.02.04.02.04.03.03.03.04.03.03.03.02.05.03.02.01c.06.03.38.17.91.36a.45.45 0 0 0-.06.23v.74c0 .2.13.38.33.43.2.06 3.3.88 6.84.88 2.09 0 4.33-.28 6.24-1.17a.45.45 0 0 0 .26-.41v-.57a.44.44 0 0 0-.06-.21l.72-.26a.45.45 0 0 0 .26-.59ZM13.9 17.08l.5-.07c.17-.02.34-.07.52-.1l.55-.12.55-.18c.18-.06.37-.11.55-.18l.55-.24.55-.25.53-.3c.18-.1.36-.2.54-.32l.5-.36.5-.38.47-.4.85-.8.2-.2.17-.14c.1-.1.21-.19.35-.28.12-.1.25-.2.38-.28.13-.08.25-.17.4-.25l.4-.22c.14-.07.27-.14.42-.2l.42-.16.22-.08.22-.06a10.4 10.4 0 0 1 3.5-.35h.06v12.38a9.15 9.15 0 0 0-5.04.06c-.43.12-.86.3-1.26.5-.2.1-.4.2-.6.32-.2.1-.38.24-.57.37a6.7 6.7 0 0 0-.55.42l-.28.22-.21.2-.8.77-.38.36-.39.32-.39.32-.4.3-.4.28-.43.26-.41.26-.43.22-.41.22-.43.18-.42.19-.1.04V17.09Zm1.44-8.93a.45.45 0 0 0 .06-.23v-.45h10.9v.45c0 .08.01.16.05.23.23.38.46.8.67 1.19a9.35 9.35 0 0 0-3.33-.15c-.2.03-.42.06-.63.12a7.22 7.22 0 0 0-1.87.67c-.2.1-.4.2-.59.32-.2.1-.37.24-.56.37-.18.12-.36.27-.54.42l-.27.23-.2.2-.8.76-.36.36-.38.32-.39.32-.4.3-.4.28c-.13.1-.26.18-.4.26l-.4.26-.42.22-.41.22c-.15.06-.29.12-.42.19l-.35.15v-4.09c.01-.31.76-1.76 1.44-2.92Zm-1.44 23.5v-.44l.14-.01.53-.07.54-.1.56-.13.55-.17c.19-.06.38-.11.57-.19l.56-.23.56-.25.54-.3.55-.32.5-.37.52-.37c.17-.13.32-.27.48-.41l.86-.8.21-.2.17-.13c.1-.1.22-.2.36-.28.13-.1.25-.2.39-.28.13-.08.26-.18.4-.25.13-.07.27-.16.41-.22l.43-.2c.14-.06.28-.12.43-.16l.22-.08.23-.07c1.05-.3 2.17-.38 3.19-.36v6.38a20.3 20.3 0 0 1-13.9 0Z"/></mask><path fill="#0059FF" d="M28.7 31.8V11.07c0-.63-1.01-2.42-1.5-3.27v-.45a.69.69 0 0 0-.36-1.26c-.16-.01-1.52-.1-6.05-.1-4.44 0-5.58.08-5.75.1a.69.69 0 0 0-.53 1.08v.63C14 8.66 13 10.45 13 11.08v20.96l.02.04.01.04.02.04.02.04.03.03.03.04.03.03.03.02.05.03.02.01c.06.03.38.17.91.36a.45.45 0 0 0-.06.23v.74c0 .2.13.38.33.43.2.06 3.3.88 6.84.88 2.09 0 4.33-.28 6.24-1.17a.45.45 0 0 0 .26-.41v-.57a.44.44 0 0 0-.06-.21l.72-.26a.45.45 0 0 0 .26-.59ZM13.9 17.08l.5-.07c.17-.02.34-.07.52-.1l.55-.12.55-.18c.18-.06.37-.11.55-.18l.55-.24.55-.25.53-.3c.18-.1.36-.2.54-.32l.5-.36.5-.38.47-.4.85-.8.2-.2.17-.14c.1-.1.21-.19.35-.28.12-.1.25-.2.38-.28.13-.08.25-.17.4-.25l.4-.22c.14-.07.27-.14.42-.2l.42-.16.22-.08.22-.06a10.4 10.4 0 0 1 3.5-.35h.06v12.38a9.15 9.15 0 0 0-5.04.06c-.43.12-.86.3-1.26.5-.2.1-.4.2-.6.32-.2.1-.38.24-.57.37a6.7 6.7 0 0 0-.55.42l-.28.22-.21.2-.8.77-.38.36-.39.32-.39.32-.4.3-.4.28-.43.26-.41.26-.43.22-.41.22-.43.18-.42.19-.1.04V17.09Zm1.44-8.93a.45.45 0 0 0 .06-.23v-.45h10.9v.45c0 .08.01.16.05.23.23.38.46.8.67 1.19a9.35 9.35 0 0 0-3.33-.15c-.2.03-.42.06-.63.12a7.22 7.22 0 0 0-1.87.67c-.2.1-.4.2-.59.32-.2.1-.37.24-.56.37-.18.12-.36.27-.54.42l-.27.23-.2.2-.8.76-.36.36-.38.32-.39.32-.4.3-.4.28c-.13.1-.26.18-.4.26l-.4.26-.42.22-.41.22c-.15.06-.29.12-.42.19l-.35.15v-4.09c.01-.31.76-1.76 1.44-2.92Zm-1.44 23.5v-.44l.14-.01.53-.07.54-.1.56-.13.55-.17c.19-.06.38-.11.57-.19l.56-.23.56-.25.54-.3.55-.32.5-.37.52-.37c.17-.13.32-.27.48-.41l.86-.8.21-.2.17-.13c.1-.1.22-.2.36-.28.13-.1.25-.2.39-.28.13-.08.26-.18.4-.25.13-.07.27-.16.41-.22l.43-.2c.14-.06.28-.12.43-.16l.22-.08.23-.07c1.05-.3 2.17-.38 3.19-.36v6.38a20.3 20.3 0 0 1-13.9 0Z"/><path stroke="#0059FF" stroke-width=".4" d="M28.7 31.8V11.07c0-.63-1.01-2.42-1.5-3.27v-.45a.69.69 0 0 0-.36-1.26c-.16-.01-1.52-.1-6.05-.1-4.44 0-5.58.08-5.75.1a.69.69 0 0 0-.53 1.08v.63C14 8.66 13 10.45 13 11.08v20.96l.02.04.01.04.02.04.02.04.03.03.03.04.03.03.03.02.05.03.02.01c.06.03.38.17.91.36a.45.45 0 0 0-.06.23v.74c0 .2.13.38.33.43.2.06 3.3.88 6.84.88 2.09 0 4.33-.28 6.24-1.17a.45.45 0 0 0 .26-.41v-.57a.44.44 0 0 0-.06-.21l.72-.26a.45.45 0 0 0 .26-.59ZM13.9 17.08l.5-.07c.17-.02.34-.07.52-.1l.55-.12.55-.18c.18-.06.37-.11.55-.18l.55-.24.55-.25.53-.3c.18-.1.36-.2.54-.32l.5-.36.5-.38.47-.4.85-.8.2-.2.17-.14c.1-.1.21-.19.35-.28.12-.1.25-.2.38-.28.13-.08.25-.17.4-.25l.4-.22c.14-.07.27-.14.42-.2l.42-.16.22-.08.22-.06a10.4 10.4 0 0 1 3.5-.35h.06v12.38a9.15 9.15 0 0 0-5.04.06c-.43.12-.86.3-1.26.5-.2.1-.4.2-.6.32-.2.1-.38.24-.57.37a6.7 6.7 0 0 0-.55.42l-.28.22-.21.2-.8.77-.38.36-.39.32-.39.32-.4.3-.4.28-.43.26-.41.26-.43.22-.41.22-.43.18-.42.19-.1.04V17.09Zm1.44-8.93a.45.45 0 0 0 .06-.23v-.45h10.9v.45c0 .08.01.16.05.23.23.38.46.8.67 1.19a9.35 9.35 0 0 0-3.33-.15c-.2.03-.42.06-.63.12a7.22 7.22 0 0 0-1.87.67c-.2.1-.4.2-.59.32-.2.1-.37.24-.56.37-.18.12-.36.27-.54.42l-.27.23-.2.2-.8.76-.36.36-.38.32-.39.32-.4.3-.4.28c-.13.1-.26.18-.4.26l-.4.26-.42.22-.41.22c-.15.06-.29.12-.42.19l-.35.15v-4.09c.01-.31.76-1.76 1.44-2.92Zm-1.44 23.5v-.44l.14-.01.53-.07.54-.1.56-.13.55-.17c.19-.06.38-.11.57-.19l.56-.23.56-.25.54-.3.55-.32.5-.37.52-.37c.17-.13.32-.27.48-.41l.86-.8.21-.2.17-.13c.1-.1.22-.2.36-.28.13-.1.25-.2.39-.28.13-.08.26-.18.4-.25.13-.07.27-.16.41-.22l.43-.2c.14-.06.28-.12.43-.16l.22-.08.23-.07c1.05-.3 2.17-.38 3.19-.36v6.38a20.3 20.3 0 0 1-13.9 0Z" mask="url(#a)"/></svg>