<svg xmlns="http://www.w3.org/2000/svg" fill="none" viewBox="0 0 42 42"><path fill="#0059FF" d="M14.04 33.12h13.28V15.8h-3.67c-1 0-1.81.23-2.4.67-.6.44-1.31 1.1-2.13 1.99-1 1.1-1.88 1.93-2.68 2.46-.8.53-1.6.85-2.4.97v11.23Zm-1.61 1.61V21.85a7.07 7.07 0 0 1-3.7-2.04 5.54 5.54 0 0 1-1.46-3.96c0-1.35.4-2.54 1.2-3.59a6.44 6.44 0 0 1 3.27-2.23 8.11 8.11 0 0 1 2.64-3.26 7.2 7.2 0 0 1 6.62-.8 8.2 8.2 0 0 1 2.48 1.55 3.42 3.42 0 0 1 1.42-.28c1.61 0 2.94.6 4 1.8a6.15 6.15 0 0 1 1.6 4.2 8.7 8.7 0 0 1-.11 1.42c-.07.41-.18.8-.32 1.14h1.58c.84 0 1.56.3 2.17.9.6.6.91 1.33.91 2.17v8.98a3 3 0 0 1-.91 2.2c-.61.6-1.34.9-2.19.9h-2.7v3.78h-16.5Zm-3.54-18.9c0 1.22.42 2.26 1.28 3.12a4.2 4.2 0 0 0 3.09 1.29c1.05 0 1.92-.3 2.62-.87.7-.59 1.4-1.25 2.1-2a16.5 16.5 0 0 1 2.47-2.26 5.34 5.34 0 0 1 3.24-.92h5.19a5.24 5.24 0 0 0-.97-3.8 3.61 3.61 0 0 0-3-1.54 3.74 3.74 0 0 0-1.87.41l-.95-.8a7.56 7.56 0 0 0-1.48-.9 4.96 4.96 0 0 0-2.15-.44 5.5 5.5 0 0 0-3 .86 5.71 5.71 0 0 0-2.1 2.4l-.47.98-1.03.32a4.33 4.33 0 0 0-2.98 4.16Zm20.05 13.51h2.76a1.37 1.37 0 0 0 1.41-1.41V18.8c0-.4-.13-.74-.4-1a1.4 1.4 0 0 0-1-.38h-2.77v11.92Z"/><path fill="#0059FF" fill-rule="evenodd" d="M16 25.09v9.26h7.34v-9.26H16Zm1.62 7.64h4.1V26.7h-4.1v6.03Z" clip-rule="evenodd"/></svg>