<svg xmlns="http://www.w3.org/2000/svg"
     fill="none"
     viewBox="0 0 42 42">
    <path fill="#0059FF"
          d="M33.82 21.15a.5.5 0 0 1 .98 0v.33a15.2 15.2 0 0 1-.25 2.37 6.8 6.8 0 0 1-.65 1.94c-.32.58-.8 1.1-1.52 1.23-1.32.23-2.19-.63-2.67-1.38a5.87 5.87 0 0 1-.69-1.52v-.04H29l-.02-.1a.5.5 0 0 1 .99-.16v.02l.03.08a5.16 5.16 0 0 0 .54 1.18c.4.63.94 1.06 1.65.94.3-.06.57-.28.82-.73.25-.45.43-1.04.55-1.65a13.38 13.38 0 0 0 .23-2.21v-.2l.02-.1Zm-20.65 7.5a.5.5 0 0 1 .66-.26h.02l.05.03.21.09a27.36 27.36 0 0 0 3.28 1.1c.95.25 1.93.43 2.77.43.87.01 1.46-.16 1.79-.5.3-.3.4-.85.37-1.42a4.83 4.83 0 0 0-.13-.91l-.01-.06v-.01a.5.5 0 0 1 .95-.28v.01l.01.03.02.07a5.36 5.36 0 0 1 .16 1.1c.03.64-.05 1.55-.66 2.17-.61.64-1.57.81-2.5.8-.97 0-2.04-.2-3.02-.46a27.05 27.05 0 0 1-3.4-1.15l-.23-.1-.06-.02h-.02a.5.5 0 0 1-.26-.67Zm7.01-18.73a1 1 0 0 1 .69-.02c.73.28 1.58.88 2.22 1.38.33.26.6.5.8.68.02 0 .03.02.04.03a24.28 24.28 0 0 1 3.25-1.8 14.67 14.67 0 0 1 7.35-1.15c2.28.24 4.33 1.08 5.3 2.53a.5.5 0 0 1-.84.56c-.72-1.09-2.4-1.86-4.57-2.1-2.14-.22-4.64.1-6.83 1.08-1.05.47-2.2 1.1-3.43 1.92-3.81 2.54-8.22 6.79-11.82 13l-.41.72-.14.25h-.32l-.08.01h-.33a141.17 141.17 0 0 0-4.63.22c-1.26.09-2.49.2-3.37.34-.34.06-.6.12-.8.17l.26.3c.25.24.56.51.93.82.71.61 1.6 1.34 2.38 2.2.37.4.5.87.54 1.3.03.42-.02.86-.05 1.19-.04.37-.05.58 0 .69v.02s.03.02.12.02l.05-.01c.06-.03.14-.07.25-.15.21-.14.48-.35.78-.62a32.4 32.4 0 0 0 2-2.03 78.55 78.55 0 0 0 2.55-2.93l.04-.05.01-.01.08-.08a.5.5 0 0 1 .7.7v.01l-.02.01c0 .02-.02.03-.04.06-.04.04-.1.1-.16.19a89.32 89.32 0 0 1-2.42 2.77 34.6 34.6 0 0 1-2.07 2.1 8.1 8.1 0 0 1-.9.72c-.13.09-.27.17-.4.23-.14.05-.3.1-.48.1a1.24 1.24 0 0 1-.67-.21c-.2-.14-.32-.34-.38-.53a2.93 2.93 0 0 1-.04-1.1c.04-.36.08-.7.05-1-.02-.3-.1-.54-.27-.72-.73-.8-1.56-1.48-2.3-2.1-.36-.31-.7-.61-.99-.9a3.19 3.19 0 0 1-.66-.88.62.62 0 0 1-.04-.42.68.68 0 0 1 .19-.3c.13-.13.3-.21.43-.26.3-.12.7-.2 1.17-.28.93-.15 2.2-.27 3.46-.35a118.75 118.75 0 0 1 4.68-.22h.16l.15-.27c-.6-1.47-.41-3.2.17-4.89.62-1.8 1.71-3.65 2.9-5.3 1.2-1.64 2.52-3.1 3.64-4.12.55-.51 1.07-.93 1.5-1.2.22-.14.43-.25.62-.32Zm.33.95c-.1.03-.23.1-.41.21-.37.23-.83.6-1.37 1.1a27.88 27.88 0 0 0-3.5 3.98 20.09 20.09 0 0 0-2.76 5.03 6.95 6.95 0 0 0-.42 3.38c3.4-5.55 7.42-9.5 11.02-12l-.6-.5a8.83 8.83 0 0 0-1.9-1.22c-.02 0-.04 0-.06.02Z"/>
    <path fill="#0059FF"
          d="M12.55 29.3c9.09-.74 14.44-3.69 19.72-6.6a16.08 16.08 0 0 0 5.89-5.45c1.23-1.96 1.8-3.94 1.75-5.41a.5.5 0 1 0-1 .04c.05 1.21-.43 3-1.6 4.84a15.08 15.08 0 0 1-5.52 5.11c-5.26 2.9-10.45 5.75-19.32 6.47a.5.5 0 1 0 .08 1Zm20.26-16.35a.8.8 0 1 0-.4 1.06l.49 1.1a2 2 0 1 1-1.63-3.66 2 2 0 0 1 1.63 3.65l-.5-1.1a.8.8 0 0 0 .41-1.05Z"/>
    <path fill="#0059FF"
          d="M23.17 27a.15.15 0 1 0-.08-.28l.04.14.04.15Zm-.56-.14a.15.15 0 0 0 .08.29l-.04-.15-.04-.14Zm.52 0-.04-.14-.48.14.04.14.04.15.48-.14-.04-.15Zm9.28-12.85-.14.06.49 1.1.14-.07.13-.06-.49-1.1-.13.07Zm1.4 7.14-.29-.06v.03l.3.03Zm.5-.4v-.3.3Zm.48.4.3-.03v-.03l-.3.06Zm.02.1.3.01v-.04l-.3.03Zm0 0-.3-.01v.01h.3Zm0 0h.3-.3Zm0 .02h.3-.3Zm0 .04h.3-.3Zm0 .17h.3-.3Zm-.04.58.3.02-.3-.02Zm-.22 1.79.3.06-.3-.06Zm-.65 1.94.26.15-.26-.15Zm-1.52 1.23.05.3-.05-.3Zm-2.67-1.38-.25.17.25-.17Zm-.53-1.06-.28.1.28-.1Zm-.13-.36-.28.09.28-.09Zm-.03-.1-.29.08.3-.08Zm0-.03-.3.07.3-.07Zm0-.01-.3.07.3-.07Zm0 0 .28-.08v-.03l-.02-.02-.27.12Zm-.01 0-.3.04.01.04.02.04.27-.13Zm-.02-.1h-.3v.04l.3-.05Zm.38-.52-.08-.29.08.3Zm.6.36-.28.08.29-.08Zm0 0-.28.08.29-.08Zm.01.02-.29.08.3-.08Zm.03.08-.29.1.29-.1Zm.1.3-.28.1.28-.1Zm.44.88-.25.16.25-.16Zm1.65.94.05.3-.05-.3Zm.82-.73.26.14-.26-.14Zm.55-1.65.3.06-.3-.06Zm.2-1.67.3.02-.3-.02Zm.03-.54h.3-.3Zm0-.15h.3-.3Zm0-.04h.3-.3Zm0 0-.3-.02v.01h.3Zm0-.01-.3-.03v.02l.3.01Zm-20.63 7.4-.27-.13.27.12Zm.66-.26-.12.27h.01l.11-.27Zm0 0 .12-.28-.12.28Zm.02 0-.12.28.12-.27Zm.05.03-.12.27.12-.27Zm.21.09-.11.28.11-.28Zm.79.3-.11.28.1-.28Zm2.49.8-.08.3.08-.3Zm2.77.43v.3-.3Zm1.79-.5-.22-.2.21.2Zm.37-1.42.3-.02-.3.02Zm-.08-.7.29-.06-.3.06Zm-.05-.21.3-.07-.3.07Zm-.01-.06.29-.07-.3.07Zm0 0 .28-.09v-.02l-.01-.02-.28.12Zm0-.01-.3.08.01.02v.02l.28-.12Zm.33-.62-.08-.29.08.3Zm.62.34.3-.05v-.03l-.3.08Zm0 0-.3.06.01.02v.01l.3-.08Zm0 .01.3-.08-.3.08Zm.01.03.3-.08-.3.08Zm.02.07.3-.07-.3.07Zm.06.26.3-.06-.3.06Zm.1.84h.3-.3Zm-.66 2.17.22.21-.22-.2Zm-2.5.8v.3-.3Zm-5.61-1.3-.1.29.1-.28Zm-.81-.3-.12.27.12-.28Zm-.23-.1-.12.27.12-.27Zm-.06-.03-.12.28.12-.28Zm-.01 0-.12.27.12-.27Zm0 0 .11-.28h-.01l-.1.27Zm-.01 0-.12.27h.01l.1-.28Zm6.75-19.39-.1-.28.1.28Zm.69-.02.1-.28-.1.28Zm2.22 1.38.19-.23-.19.23Zm.8.68.2-.23-.2.23Zm.04.03-.2.22.17.15.2-.12-.17-.25Zm3.25-1.8-.12-.26.12.27Zm7.35-1.15.03-.3-.03.3Zm5.3 2.53.24-.16-.25.16Zm-.15.7.17.25-.17-.25Zm-.69-.14.25-.17-.25.17Zm-4.57-2.1.04-.3-.04.3Zm-6.83 1.08-.12-.27.12.27Zm-3.43 1.92-.17-.25.17.25Zm-11.82 13-.26-.15.26.15Zm-.41.72.26.15-.26-.15Zm-.14.25v.3h.18l.08-.15-.26-.15Zm-.29 0-.1.29.05.02h.06V27Zm0 0 .1-.27-.05-.02h-.06l.01.3Zm0 0-.01-.3v.3Zm-.03 0v-.3.3Zm-.08.01-.01-.3v.3Zm-.33 0v-.3.3Zm-1.15.05-.01-.3v.3Zm-3.48.17-.02-.3.02.3Zm-3.37.34-.05-.3.05.3Zm-.8.17-.08-.29-.44.13.29.35.23-.19Zm.26.3-.21.2.21-.2Zm.93.82-.2.23.2-.23Zm2.38 2.2.22-.21-.22.2Zm.54 1.3.3-.02-.3.02Zm-.05 1.19-.3-.03.3.03Zm0 .69-.3.1.3-.1Zm0 .02.16-.25-.34.5.18-.25Zm.12.02-.02.3h.1l-.08-.3Zm.05-.01.12.27-.12-.27Zm.25-.15.17.25-.17-.25Zm.78-.62.2.22-.2-.22Zm2-2.03.22.2-.22-.2Zm1.82-2.06.23.2-.23-.2Zm.57-.68.23.2-.23-.2Zm.16-.2.23.2-.23-.2Zm.04-.04.23.19-.23-.2Zm.01-.01.23.19-.23-.2Zm0 0 .23.18.04-.03.01-.05-.28-.1Zm0 0-.2-.22-.05.05-.03.05.28.11Zm.08-.08-.2-.23-.02.02.21.21Zm.63 0 .19-.23-.2.23Zm.07.7.23.2-.23-.2Zm0 .01.22.2-.23-.2Zm-.02.01.23.2-.23-.2Zm-.04.06.23.19-.23-.2Zm-.16.19.23.2-.23-.2Zm-.58.69.23.2-.23-.2Zm-1.84 2.08.22.2-.22-.2Zm-2.07 2.1.2.22-.2-.22Zm-.9.72.17.25-.17-.25Zm-.4.23.11.27-.12-.27Zm-.48.1-.01.3.01-.3Zm-.67-.21-.17.24.17-.24Zm-.38-.53-.29.09.29-.1Zm-.04-1.1.3.03-.3-.03Zm.05-1 .3-.03-.3.02Zm-.27-.72.22-.2-.22.2Zm-2.3-2.1-.2.22.2-.23Zm-.99-.9-.21.22.21-.22Zm-.66-.88-.28.12.28-.12Zm-.04-.42-.28-.08.28.08Zm.19-.3-.21-.22.2.21Zm.43-.26-.1-.28.1.28Zm1.17-.28-.05-.3.05.3Zm3.46-.35-.02-.3.02.3Zm3.51-.18-.01-.3.01.3Zm1.17-.04-.01-.3v.3Zm.16 0v.3h.17l.09-.16-.26-.14Zm.15-.27.26.15.07-.13-.05-.14-.28.12Zm.17-4.89-.28-.1.28.1Zm2.9-5.3-.24-.17.24.18Zm3.64-4.12-.2-.22.2.22Zm1.5-1.2-.16-.25.16.25Zm.95.63-.1-.29.1.29Zm-.41.21-.16-.25.16.25Zm-1.37 1.1-.2-.23.2.22Zm-3.5 3.98-.24-.18.24.18Zm-2.76 5.03-.29-.1.29.1Zm-.42 3.38-.3.05.14.78.41-.67-.25-.16Zm11.02-12 .17.24.32-.22-.3-.25-.19.22Zm-.6-.5.19-.24-.19.24Zm-1.9-1.22.1-.28-.09-.03-.09.02.07.3ZM12.54 29.3l.03.3-.03-.3Zm19.72-6.58-.15-.26.15.26Zm5.89-5.46.25.16-.25-.16Zm1.75-5.41.3-.01h-.3Zm-.52-.48-.01-.3.01.3Zm-.48.52.3-.01h-.3Zm-1.6 4.84.26.16-.26-.16Zm-5.52 5.11.14.27-.14-.27ZM12.47 28.3l-.02-.3.02.3Zm-.45.54-.3.02.3-.02Zm21.8-7.69.3.06a.2.2 0 0 1 .19-.16v-.6a.8.8 0 0 0-.79.64l.3.06Zm.49-.4v.3c.1 0 .17.07.2.16l.29-.06.29-.06a.8.8 0 0 0-.79-.64v.3Zm.48.4-.3.03.02.1.3-.03.3-.03-.02-.1-.3.03Zm.02.1-.3-.01.3.01.3.01-.3-.01Zm0 0h-.3a.28.28 0 0 0 0 .04v-.04h.6a.3.3 0 0 0 0-.03v-.01.04h-.3Zm0 0h-.3v.01h.6-.3Zm0 .02h-.3v.04h.6v-.04h-.3Zm0 .04h-.3v.16h.3l.3.01v-.17h-.3Zm0 .17-.3-.01-.03.57.3.02.3.02.02-.6h-.3Zm-.04.58-.3-.02c-.03.47-.09 1.1-.22 1.75l.3.06.3.06c.13-.68.2-1.35.22-1.83l-.3-.02Zm-.22 1.79-.3-.06a6.51 6.51 0 0 1-.62 1.86l.27.14.26.15a7.1 7.1 0 0 0 .68-2.03l-.3-.06Zm-.65 1.94-.27-.14c-.3.54-.72.97-1.3 1.07l.05.3.05.3c.84-.15 1.39-.77 1.73-1.38l-.26-.15Zm-1.52 1.23-.06-.3c-1.13.2-1.9-.53-2.36-1.24l-.25.16-.25.17c.5.77 1.47 1.77 2.97 1.5l-.05-.29Zm-2.67-1.38.25-.16c-.23-.36-.4-.73-.5-1l-.28.1-.28.1c.11.3.3.72.56 1.13l.25-.17Zm-.53-1.06.28-.1-.12-.35-.29.1-.28.08.13.38.28-.11Zm-.13-.36.29-.09a4.74 4.74 0 0 1-.03-.1l-.29.09-.29.08.04.11.28-.09Zm-.03-.1.3-.09h-.01V24l-.3.08-.29.07.01.04.3-.08Zm0-.03.28-.08a.35.35 0 0 0 0-.03V24l-.29.08-.29.07v.02c0 .01 0 0 0 0l.3-.08Zm0-.01.28-.08a.3.3 0 0 1 .01.05v.01a.31.31 0 0 0 0-.06l-.3.07-.29.08a.3.3 0 0 1 0-.06.49.49 0 0 0 0 .06l.3-.07Zm0 0 .26-.13-.27.12-.27.13.27-.13Zm-.01 0 .3-.05-.02-.1-.3.04-.3.05.02.1.3-.05Zm-.02-.1.3-.02c0-.1.06-.18.15-.2l-.07-.3-.08-.29a.8.8 0 0 0-.6.82l.3-.02Zm.38-.52.07.3a.2.2 0 0 1 .25.14l.29-.08.29-.08a.8.8 0 0 0-.98-.57l.08.3Zm.6.36-.28.08.29-.08.29-.08a.31.31 0 0 0-.03-.06.27.27 0 0 1 .03.06l-.3.08Zm0 0-.28.08v.02l.3-.08.28-.08v-.02l-.3.08Zm.01.02-.29.08.03.1.29-.1.28-.09-.02-.07-.29.08Zm.03.08-.29.1.11.3.28-.1.28-.1a4.81 4.81 0 0 1-.1-.29l-.28.1Zm.1.3-.28.1c.1.27.26.61.47.94l.25-.16.25-.16a4.58 4.58 0 0 1-.4-.83l-.29.11Zm.44.88-.25.16c.43.67 1.06 1.23 1.95 1.07l-.05-.3-.05-.29c-.53.1-.96-.2-1.35-.8l-.25.16Zm1.65.94.05.3c.42-.08.76-.4 1.03-.89l-.26-.14-.26-.15c-.23.41-.44.55-.61.58l.05.3Zm.82-.73.26.14c.27-.48.46-1.1.58-1.73l-.3-.06-.29-.06c-.12.6-.28 1.16-.51 1.56l.26.15Zm.55-1.65.3.06c.12-.63.18-1.25.2-1.7l-.3-.03-.3-.02a13.1 13.1 0 0 1-.2 1.63l.3.06Zm.2-1.67.3.02.03-.55-.3-.01-.3-.01c0 .13 0 .31-.02.53l.3.02Zm.03-.54h.3v-.15h-.6v.14h.3Zm0-.15h.3v-.04h-.6v.03h.3Zm0-.04h.3v-.03.02h-.6v.03-.02h.3Zm0 0h.3l-.3-.01-.3-.01.3.01Zm0-.01.3.03.02-.1-.3-.03-.3-.03-.01.1.3.03Zm-20.63 7.4.28.12a.2.2 0 0 1 .26-.1l.12-.28.12-.28a.8.8 0 0 0-1.05.41l.27.12Zm.66-.26-.1.28.1-.28.11-.28-.11.28Zm0 0-.12.27.02.01.12-.27.12-.28a.14.14 0 0 1-.02 0l-.12.27Zm.02 0-.12.28.05.02.12-.27.12-.28c-.03 0-.04-.01-.05-.02l-.12.28Zm.05.03-.12.27.22.1.11-.28.12-.28-.21-.09-.12.28Zm.21.09-.11.28.79.3.1-.28.11-.28-.77-.3-.12.28Zm.79.3-.11.28c.66.25 1.57.56 2.52.81l.08-.29.08-.29c-.94-.24-1.82-.55-2.47-.79l-.1.28Zm2.49.8-.08.3c.96.24 1.97.43 2.85.43v-.6c-.8 0-1.76-.18-2.7-.42l-.07.29Zm2.77.43v.3c.89.01 1.6-.16 2-.58l-.21-.21-.22-.21c-.23.24-.72.41-1.57.4v.3Zm1.79-.5.21.22c.4-.41.49-1.06.46-1.66l-.3.02-.3.01c.03.56-.08.99-.29 1.2l.21.22Zm.37-1.42.3-.02a4.4 4.4 0 0 0-.09-.74l-.3.06-.29.05c.03.18.07.4.08.66l.3-.01Zm-.08-.7.29-.06-.05-.22-.29.07-.3.07.05.2.3-.06Zm-.05-.21.3-.07-.02-.06-.3.07-.28.08v.05l.3-.07Zm-.01-.06.29-.07v-.01l-.3.07-.29.08v.01l.3-.08Zm0 0 .27-.13-.28.12-.27.12.27-.12Zm0-.01.28-.08a.2.2 0 0 1 .14-.25l-.09-.29-.08-.29a.8.8 0 0 0-.55 1l.3-.09Zm.33-.62.09.3a.2.2 0 0 1 .24.13l.3-.09.28-.08a.8.8 0 0 0-.99-.55l.08.3Zm.62.34-.3.06.3-.05.3-.05-.3.04Zm0 0-.29.09.3-.08.28-.08-.29.08Zm0 .01-.28.08v.02l.3-.07.28-.08v-.02l-.3.07Zm.01.03-.29.07.02.07.29-.07.3-.07-.03-.08-.29.08Zm.02.07-.3.07.06.24.3-.05.3-.06-.07-.27-.29.07Zm.06.26-.3.05c.04.2.08.5.1.8h.3l.3-.02a6.16 6.16 0 0 0-.1-.89l-.3.06Zm.1.84-.3.02c.03.61-.06 1.41-.57 1.94l.21.21.22.21c.7-.72.77-1.73.74-2.39l-.3.01Zm-.66 2.17-.21-.2c-.53.54-1.38.71-2.3.7v.6c.96.01 2.02-.16 2.73-.89l-.22-.2Zm-2.5.8v-.3c-.93 0-1.97-.2-2.95-.45l-.07.29-.08.29c1 .26 2.1.47 3.1.47v-.3Zm-3.02-.46.07-.3a26.4 26.4 0 0 1-2.56-.81l-.1.28-.1.28c.67.25 1.61.58 2.61.84l.08-.3Zm-2.6-.83.11-.28-.8-.32-.11.28-.12.28c.2.08.48.2.82.32l.1-.28Zm-.8-.32.11-.28-.22-.09-.12.28-.12.27.23.1.12-.28Zm-.23-.1.12-.27-.06-.02-.12.27-.12.28.06.02.12-.27Zm-.06-.02.12-.27h-.02l-.11.27-.12.27a.37.37 0 0 0 .01 0l.12-.27Zm-.01 0 .11-.28a.29.29 0 0 1 .04.02l-.02-.01-.02-.01-.12.27-.12.28a.27.27 0 0 1-.03-.02.26.26 0 0 0 .04.02l.12-.27Zm-.01 0 .12-.28a.2.2 0 0 1-.1-.26l-.28-.13-.27-.12a.8.8 0 0 0 .4 1.06l.13-.28Zm6.75-19.39.1.29c.16-.06.33-.09.48-.03l.1-.28.11-.28a1.3 1.3 0 0 0-.89.02l.1.28Zm.69-.02-.11.28c.69.26 1.51.84 2.14 1.34l.19-.24.19-.23a9.72 9.72 0 0 0-2.3-1.43l-.11.28Zm2.22 1.38-.19.24c.32.25.6.49.8.66l.2-.22.2-.23c-.2-.18-.5-.42-.82-.68l-.19.23Zm.8.68-.19.22.01.01.02.02.2-.22.2-.23h-.01l-.02-.03-.2.23Zm.04.03.16.25a23.97 23.97 0 0 1 3.21-1.77l-.12-.27-.12-.27a24.57 24.57 0 0 0-3.3 1.8l.17.26Zm3.25-1.8.12.28a14.37 14.37 0 0 1 7.2-1.13l.03-.3.03-.3c-2.36-.25-5.08.1-7.5 1.19l.12.27Zm7.35-1.15-.03.3c2.24.24 4.18 1.06 5.07 2.4l.25-.17.25-.16c-1.03-1.57-3.2-2.42-5.5-2.67l-.04.3Zm5.3 2.53-.26.17a.2.2 0 0 1-.05.28l.16.25.17.25a.8.8 0 0 0 .22-1.11l-.25.16Zm-.15.7-.16-.25a.2.2 0 0 1-.28-.06l-.25.17-.25.16a.8.8 0 0 0 1.1.23l-.16-.25Zm-.69-.14.25-.17c-.79-1.2-2.58-1.99-4.78-2.22l-.04.3-.03.3c2.14.22 3.7.98 4.35 1.95l.25-.16Zm-4.57-2.1.04-.3c-2.2-.23-4.75.1-7 1.1l.13.28.12.28a13.37 13.37 0 0 1 6.68-1.06l.03-.3Zm-6.83 1.08-.12-.27a24.02 24.02 0 0 0-3.48 1.94l.17.25.17.25c1.2-.8 2.35-1.43 3.38-1.9l-.12-.27Zm-3.43 1.92-.17-.25c-3.85 2.56-8.3 6.85-11.91 13.1l.26.15.26.15c3.57-6.17 7.95-10.39 11.73-12.9l-.17-.25Zm-11.82 13-.26-.15-.41.73.26.14.26.15.4-.72-.25-.15Zm-.41.72-.26-.14-.14.25.26.14.26.15.14-.25-.26-.15Zm-.14.25v-.3h-.3l.01.3v.3h.3l-.01-.3Zm-.29 0 .1-.27-.1.28-.1.28.1-.28Zm0 0v-.3h-.01v.3l.01.3h.01l-.01-.3Zm0 0-.01-.3a.43.43 0 0 0-.02 0v.3l.01.3a.53.53 0 0 0 .03 0l-.02-.3Zm-.03 0v-.3l-.09.01v.3l.01.3h.09V27Zm-.08.01-.01-.3h-.33l.01.3.01.3h.32v-.3Zm-.33 0v-.3l-1.16.05v.3l.02.3 1.15-.04v-.3Zm-1.15.05-.01-.3c-.96.03-2.23.09-3.5.17l.03.3.02.3c1.25-.08 2.51-.14 3.47-.17l-.01-.3Zm-3.48.17-.02-.3c-1.26.09-2.5.2-3.4.35l.05.3.05.29c.86-.14 2.08-.25 3.34-.34l-.02-.3Zm-3.37.34-.05-.3c-.34.06-.62.12-.83.18l.08.3.08.28c.18-.05.44-.1.77-.16l-.05-.3Zm-.8.17-.23.2.28.3.21-.2.22-.22-.25-.27-.23.2Zm.26.3-.21.2c.26.26.58.54.94.85l.2-.23.2-.23c-.37-.3-.68-.57-.91-.81l-.22.21Zm.93.82-.2.23c.73.61 1.6 1.33 2.36 2.16l.22-.2.22-.2c-.79-.87-1.7-1.61-2.4-2.22l-.2.23Zm2.38 2.2-.22.2c.3.33.42.73.46 1.13l.3-.03.3-.02a2.44 2.44 0 0 0-.62-1.5l-.22.21Zm.54 1.3-.3.03c.03.39-.02.79-.05 1.13l.3.03.3.03c.03-.32.08-.79.04-1.24l-.3.02Zm-.05 1.19-.3-.03a5.6 5.6 0 0 0-.03.47c0 .12 0 .24.04.34l.28-.1.29-.08a5.04 5.04 0 0 1 .02-.57l-.3-.03Zm0 .69-.3.1.05.08v.02l.03.02s0 .02.03.03l.06.05.14.03c.07-.02.2-.09.25-.15a.53.53 0 0 0 .04-.16v-.07l-.02-.04a.3.3 0 0 0-.02-.03l-.03-.05a.33.33 0 0 0-.06-.06l-.17.25-.18.25a.27.27 0 0 1-.05-.05l-.03-.05a.3.3 0 0 1-.04-.13.4.4 0 0 1 .05-.17.51.51 0 0 1 .24-.14l.14.02.07.05a.3.3 0 0 1 .03.03l.02.02v.02l.03.04-.29.09Zm0 .02-.17.25c.07.04.16.07.27.07l.02-.3.02-.3h-.04.01a.23.23 0 0 1 .05.03l-.16.25Zm.12.02.08.3.03-.02c.02 0 .04 0 .06-.02l-.12-.27-.12-.28h-.01l.08.3Zm.05-.01.12.27c.08-.03.18-.09.3-.17l-.17-.25-.16-.25-.2.12.11.28Zm.25-.15.17.25c.23-.15.5-.37.81-.65l-.2-.22-.2-.23c-.3.27-.55.48-.74.6l.16.25Zm.78-.62.2.22c.62-.55 1.34-1.3 2.02-2.05l-.22-.2-.22-.2c-.68.74-1.39 1.47-1.98 2l.2.23Zm2-2.03.22.2c.7-.75 1.34-1.5 1.83-2.07l-.23-.2-.23-.19c-.48.57-1.13 1.31-1.8 2.05l.21.2Zm1.82-2.06.23.2.57-.69-.23-.2-.23-.18-.57.67.23.2Zm.57-.68.23.2.16-.2-.23-.2-.23-.18c-.04.04-.1.1-.16.19l.23.19Zm.16-.2.23.2.04-.05-.23-.2-.23-.18-.04.05.23.19Zm.04-.04.23.19.01-.01-.23-.2-.23-.18h-.01l.23.2Zm.01-.01.23.19-.23-.2-.23-.19.23.2Zm0 0 .28.1-.28-.1-.28-.12.28.11Zm0 0 .22.2.07-.07-.21-.2-.22-.22-.07.07.21.21Zm.08-.08.18.23a.2.2 0 0 1 .26 0l.19-.23.19-.23a.8.8 0 0 0-1.01 0l.19.23Zm.63 0-.2.23c.1.07.1.2.03.29l.24.19.23.19a.8.8 0 0 0-.11-1.13l-.2.23Zm.07.7-.24-.18.23.2.23.18-.22-.2Zm0 .01-.24-.19v.01h-.01l.23.2.23.18.02-.01-.24-.19Zm-.02.01-.23-.19-.02.02-.02.03.23.2.23.19.02-.03.02-.03-.23-.19Zm-.04.06-.23-.2-.16.2.23.19.23.2.16-.2-.23-.2Zm-.16.19-.23-.2-.58.7.23.19.23.2.58-.7-.23-.2Zm-.58.69-.23-.2c-.48.57-1.14 1.33-1.83 2.08l.22.2.22.2c.7-.76 1.36-1.52 1.85-2.09l-.23-.2Zm-1.84 2.08-.22-.2a37.1 37.1 0 0 1-2.05 2.08l.2.22.2.22c.65-.58 1.4-1.36 2.1-2.11l-.23-.2Zm-2.07 2.1-.2-.22c-.32.28-.6.52-.86.69l.16.25.17.25c.29-.2.6-.46.93-.75l-.2-.22Zm-.9.72-.16-.25-.36.2.11.28.12.27c.16-.07.31-.16.46-.25l-.17-.25Zm-.4.23-.12-.28a.8.8 0 0 1-.34.07l-.02.3-.01.3c.24.01.45-.06.6-.12l-.12-.27Zm-.48.1.02-.3a.95.95 0 0 1-.51-.16l-.18.25-.17.24c.26.18.55.25.83.26l.01-.3Zm-.67-.21.18-.25a.72.72 0 0 1-.27-.38l-.29.1-.29.09c.08.24.23.5.5.68l.17-.24Zm-.38-.53.29-.1a2.57 2.57 0 0 1-.03-.97l-.3-.03-.3-.03c-.03.3-.08.8.05 1.22l.29-.1Zm-.04-1.1.3.03c.03-.35.08-.72.05-1.06l-.3.02-.3.03c.02.28-.01.58-.05.95l.3.03Zm.05-1 .3-.03a1.44 1.44 0 0 0-.35-.9l-.22.2-.22.2c.1.13.17.29.2.55l.29-.03Zm-.27-.72.22-.2c-.74-.81-1.6-1.51-2.33-2.13l-.19.22-.2.23c.75.63 1.57 1.3 2.28 2.08l.22-.2Zm-2.3-2.1.2-.23c-.37-.31-.7-.6-.97-.88l-.22.21-.21.22c.3.29.64.6 1 .9l.2-.23Zm-.99-.9.22-.2a2.9 2.9 0 0 1-.6-.8l-.28.12-.28.12c.17.36.45.7.73.98l.21-.22Zm-.66-.88.27-.13a.32.32 0 0 1-.02-.21l-.29-.08-.28-.08a.92.92 0 0 0 .04.62l.28-.12Zm-.04-.42.3.08a.38.38 0 0 1 .1-.17l-.21-.22-.21-.21c-.1.09-.2.23-.26.44l.28.08Zm.19-.3.2.2c.09-.07.21-.13.34-.18l-.1-.28-.12-.28c-.14.05-.36.15-.53.32l.2.21Zm.43-.26.11.28c.26-.1.65-.19 1.1-.27l-.04-.3-.05-.29c-.47.08-.9.17-1.23.3l.11.28Zm1.17-.28.04.3a34.8 34.8 0 0 1 3.44-.35l-.02-.3-.02-.3a40 40 0 0 0-3.5.35l.06.3Zm3.46-.35.02.3c1.27-.09 2.54-.15 3.5-.18v-.3l-.02-.3c-.96.03-2.25.1-3.52.18l.02.3Zm3.51-.18.01.3 1.16-.04v-.3l-.01-.3-1.17.04.01.3Zm1.17-.04v.3h.16v-.3l-.01-.3h-.16v.3Zm.16 0 .26.14.15-.26-.26-.15-.26-.15-.16.27.27.15Zm.15-.27.28-.12c-.57-1.37-.4-3 .18-4.67l-.29-.1-.28-.1c-.6 1.73-.81 3.53-.17 5.1l.28-.11Zm.17-4.89.29.1c.6-1.76 1.67-3.59 2.86-5.22l-.25-.17-.24-.18a21.37 21.37 0 0 0-2.94 5.37l.28.1Zm2.9-5.3.25.18a28.56 28.56 0 0 1 3.6-4.08l-.21-.22-.2-.22a29.16 29.16 0 0 0-3.68 4.17l.24.18Zm3.64-4.12.2.22c.55-.5 1.05-.9 1.46-1.17l-.16-.25-.16-.25c-.45.28-.98.7-1.54 1.23l.2.22Zm1.5-1.2.16.25c.2-.13.4-.22.56-.28l-.1-.29-.1-.28c-.22.08-.45.2-.68.35l.16.25Zm.95.63-.1-.29a2.5 2.5 0 0 0-.47.25l.16.25.16.26c.17-.11.29-.17.35-.19l-.1-.28Zm-.41.21-.16-.25c-.39.24-.87.63-1.4 1.12l.2.22.2.22a10 10 0 0 1 1.32-1.05l-.16-.26Zm-1.37 1.1-.2-.23c-1.08 1-2.37 2.42-3.54 4.03l.24.18.24.17a27.57 27.57 0 0 1 3.47-3.94l-.2-.22Zm-3.5 3.98-.24-.18a20.39 20.39 0 0 0-2.8 5.1l.28.1.28.1a19.8 19.8 0 0 1 2.72-4.95l-.24-.17Zm-2.76 5.03-.29-.1a7.24 7.24 0 0 0-.43 3.53l.3-.05.3-.05a6.53 6.53 0 0 1 .4-3.24l-.28-.1Zm-.42 3.38.25.16A39.86 39.86 0 0 1 23.24 12.8l-.17-.25-.17-.24a40.45 40.45 0 0 0-11.11 12.1l.26.15Zm11.02-12 .2-.23a9.16 9.16 0 0 0-.61-.5l-.19.23-.19.23.6.5.2-.24Zm-.6-.5.19-.24a9.1 9.1 0 0 0-1.99-1.26l-.1.28-.12.28c.53.21 1.22.69 1.83 1.17l.2-.23Zm-1.9-1.22-.08-.29-.08.02.1.29.1.28h.03l-.08-.3ZM12.54 29.3l.03.3c9.15-.74 14.54-3.71 19.83-6.62l-.14-.26-.15-.26c-5.27 2.9-10.57 5.82-19.59 6.55l.02.3Zm19.72-6.58.14.26a16.38 16.38 0 0 0 6-5.56l-.25-.16-.26-.16a15.78 15.78 0 0 1-5.78 5.36l.15.26Zm5.89-5.46.25.16c1.26-2 1.86-4.03 1.8-5.58h-.3l-.3.02c.05 1.4-.5 3.31-1.7 5.24l.25.16Zm1.75-5.41.3-.01a.8.8 0 0 0-.83-.77l.01.3.01.3c.11 0 .2.08.21.19l.3-.01Zm-.52-.48-.01-.3a.8.8 0 0 0-.77.83l.3-.01.3-.01c0-.11.08-.2.2-.21l-.02-.3Zm-.48.52-.3.01c.05 1.14-.41 2.86-1.55 4.67l.25.16.26.16c1.18-1.88 1.7-3.72 1.64-5.01h-.3Zm-1.6 4.84-.25-.16a14.78 14.78 0 0 1-5.42 5l.15.27.14.27a15.38 15.38 0 0 0 5.64-5.22l-.26-.16Zm-5.52 5.11-.15-.26c-5.25 2.89-10.4 5.72-19.2 6.43l.03.3.03.3c8.93-.72 14.17-3.6 19.43-6.5l-.14-.27ZM12.47 28.3l-.02-.3a.8.8 0 0 0-.73.86l.3-.02.3-.03a.2.2 0 0 1 .18-.21l-.03-.3Zm-.45.54-.3.02a.8.8 0 0 0 .86.73l-.03-.3-.02-.3a.2.2 0 0 1-.22-.18l-.3.03Zm20.8-15.89.27-.12a1.1 1.1 0 0 0-1.46-.56l.13.28.12.27a.5.5 0 0 1 .66.25l.27-.12Zm-1.06-.4-.13-.28c-.55.25-.8.9-.55 1.45l.27-.12.28-.12a.5.5 0 0 1 .25-.66l-.12-.27Zm-.4 1.05-.28.12c.25.56.9.8 1.45.56l-.12-.27-.12-.28a.5.5 0 0 1-.66-.25l-.28.12Zm1.54 1.5-.13-.27a1.7 1.7 0 0 1-2.24-.86l-.27.12-.28.12a2.3 2.3 0 0 0 3.04 1.16l-.12-.27Zm-2.64-1 .27-.13a1.7 1.7 0 0 1 .86-2.24l-.12-.28-.13-.27a2.3 2.3 0 0 0-1.16 3.03l.28-.12Zm1-2.65.13.28a1.7 1.7 0 0 1 2.24.85l.28-.12.27-.12a2.3 2.3 0 0 0-3.04-1.16l.13.27Zm2.65 1.01-.28.12c.38.86 0 1.86-.86 2.25l.13.27.12.27a2.3 2.3 0 0 0 1.16-3.03l-.27.12Zm-1.5 1.55.12.27c.55-.25.8-.9.56-1.45l-.28.12-.27.12a.5.5 0 0 1-.25.66l.12.28ZM13.43 29.3l.1-.29-.1.28-.1.28.1-.28Z"
          mask="url(#a)"/>
</svg>
