<svg xmlns="http://www.w3.org/2000/svg" fill="none" viewBox="0 0 42 42"><path fill="#0059FF" d="M10.35 35.66V18.52a3.51 3.51 0 0 1-2.35-1 3.07 3.07 0 0 1-.96-2.3v-8.2a.71.71 0 0 1 .73-.73.7.7 0 0 1 .72.72v6.22h1.96V7.02a.71.71 0 0 1 .72-.73.7.7 0 0 1 .73.72v6.22h1.95V7.02a.71.71 0 0 1 .73-.73.7.7 0 0 1 .73.72v8.21c0 .92-.33 1.69-.97 2.3a3.5 3.5 0 0 1-2.37 1v17.14h-1.62Zm11.44 0V18.48a5.4 5.4 0 0 1-2.59-2.42 7.46 7.46 0 0 1-.88-3.57 8.6 8.6 0 0 1 1.08-4.3 3.46 3.46 0 0 1 3.19-1.9c1.4 0 2.46.63 3.18 1.91a8.56 8.56 0 0 1 1.09 4.29c0 1.28-.3 2.47-.87 3.57a5.33 5.33 0 0 1-2.58 2.42v17.18h-1.62Zm8.51 0V6.36a5.4 5.4 0 0 1 3.38 2.07 6.2 6.2 0 0 1 1.28 3.87v9.5h-3.04v13.86H30.3Z"/></svg>