<svg xmlns="http://www.w3.org/2000/svg"
     fill="none"
     viewBox="0 0 42 42">
    <path fill="#0059FF"
          d="M28 18.77c.34 0 .64-.13.9-.38s.39-.55.39-.89c0-.34-.13-.64-.4-.9a1.23 1.23 0 0 0-.89-.39c-.34 0-.64.13-.89.4a1.25 1.25 0 0 0 0 1.78c.25.25.55.38.89.38ZM9.23 34.92a565.7 565.7 0 0 0-2.59-9.05 32.7 32.7 0 0 1-1.31-9.25c0-2.17.75-4.01 2.27-5.53a7.51 7.51 0 0 1 5.53-2.28h9.67c.75-1 1.63-1.83 2.66-2.5 1.02-.67 2.16-1 3.42-1 .21 0 .4.08.57.24.16.16.24.35.24.57a.4.4 0 0 1-.04.18 25.56 25.56 0 0 0-.88 3.48l5.16 5.15h2.76V24l-4.6 1.51-2.83 9.41h-6.43v-3.5h-7.14v3.5H9.23Zm1.22-1.61h3.63v-3.5h10.36v3.5h3.61l2.73-9.02 4.3-1.44v-6.3h-1.8l-6.08-6.08c0-.58.04-1.15.12-1.7.07-.57.21-1.12.41-1.66-.87.23-1.63.64-2.28 1.23a7.15 7.15 0 0 0-1.57 2.08H13.13c-1.71 0-3.17.61-4.38 1.82a5.99 5.99 0 0 0-1.8 4.39c0 2.87.39 5.68 1.17 8.41.8 2.73 1.57 5.5 2.33 8.27Z"/>
</svg>
