<svg xmlns="http://www.w3.org/2000/svg" fill="none" viewBox="0 0 42 42"><path fill="#0059FF" d="M11.4 34.86h19.4a2.47 2.47 0 0 0 2.52-2.5v-.84H8.89v.83a2.46 2.46 0 0 0 2.52 2.51Zm9.73-21.47a3.56 3.56 0 0 1-2.66-1.12 3.45 3.45 0 0 1-1-2.7 5.16 5.16 0 0 1 1.2-3.2c.76-.93 1.59-1.8 2.49-2.6.89.8 1.7 1.67 2.45 2.6a5.24 5.24 0 0 1 1.18 3.16 3.5 3.5 0 0 1-1 2.74 3.55 3.55 0 0 1-2.66 1.12Zm-2.45 16.52h4.9V19.42c0-.31-.1-.57-.3-.77-.2-.2-.46-.3-.78-.3h-2.74c-.32 0-.58.1-.78.3-.2.2-.3.46-.3.77v10.49Zm2.45-18.13c.58 0 1.07-.2 1.46-.62.39-.4.58-.9.58-1.5 0-.73-.22-1.38-.66-1.96a33.9 33.9 0 0 0-1.38-1.69 37.8 37.8 0 0 0-1.39 1.69 3.13 3.13 0 0 0-.66 1.96c0 .6.2 1.1.59 1.5.39.41.87.62 1.46.62ZM34.57 29.9c.57 0 1.05-.2 1.45-.6.4-.4.6-.88.6-1.46a2 2 0 0 0-.6-1.47c-.4-.4-.89-.6-1.45-.6-.57 0-1.05.2-1.45.6-.4.4-.6.9-.6 1.48a2 2 0 0 0 .6 1.46c.4.4.88.59 1.45.59Zm-3.67 6.57H11.32a3.9 3.9 0 0 1-2.87-1.18 3.9 3.9 0 0 1-1.18-2.87V29.9h9.8V19.42c0-.74.26-1.37.78-1.9a2.6 2.6 0 0 1 1.9-.79h2.75c.74 0 1.38.27 1.9.8.53.52.8 1.15.8 1.9V29.9h6.41a3.28 3.28 0 0 1-.7-2.08c0-1.01.36-1.88 1.07-2.59a3.53 3.53 0 0 1 2.6-1.07c1 0 1.87.35 2.58 1.07a3.52 3.52 0 0 1 1.07 2.58c0 .98-.32 1.81-.95 2.5a3.56 3.56 0 0 1-2.35 1.2v.91a3.9 3.9 0 0 1-1.18 2.87 3.89 3.89 0 0 1-2.85 1.18Z"/></svg>