<svg xmlns="http://www.w3.org/2000/svg"
     fill="none"
     viewBox="0 0 42 42">
    <path fill="#0059FF"
          fill-rule="evenodd"
          d="M32.13 18.62a2.2 2.2 0 1 1 0 4.41 2.2 2.2 0 0 1 0-4.4Zm0 1.7a.51.51 0 1 0 0 1.02.51.51 0 0 0 0-1.03Z"
          clip-rule="evenodd"/>
    <path fill="#0059FF"
          fill-rule="evenodd"
          d="M17.31 7.67a8.25 8.25 0 0 1 5.65-.33c1.13.28 2.3 1.21 3.09 1.95a18.8 18.8 0 0 1 1.25 1.29 17.7 17.7 0 0 1 8.56 5.91 21.35 21.35 0 0 1 2.9 4.78l.04.1h.02l.12.34.04.07v.04l.01.23c.02.1.01.22-.01.33v.04l-.04.07-.13.35h-.01c-.02.02-.03.06-.04.09a21.36 21.36 0 0 1-3 4.71 17.43 17.43 0 0 1-11.08 6.23c-5.34.73-9.33-1.74-11.93-4.3a20.52 20.52 0 0 1-1.45-1.6 8.3 8.3 0 0 1-2.8 2.64c-.66.4-1.32.69-1.86.86a4.2 4.2 0 0 1-.8.16c-.13 0-.28 0-.43-.02a1.2 1.2 0 0 1-.39-.14h-.01L5 31.44l-.1-.06-.02-.02a2.65 2.65 0 0 1-.45-.55 8.4 8.4 0 0 1-1.22-3.25 5.96 5.96 0 0 1 1.88-5.4 6.3 6.3 0 0 1-2.06-5.38 8.27 8.27 0 0 1 1.04-3.28c.12-.2.28-.43.46-.58.18-.14.37-.2.5-.24a3.4 3.4 0 0 1 1.22.06c.58.1 1.28.34 1.97.67 1.07.5 2.27 1.3 3.02 2.44a17.9 17.9 0 0 1 4.67-4.07c-.04-.3-.1-.7-.1-1.13-.02-.45 0-.98.13-1.46.12-.47.4-1.05 1-1.35l.37-.18Zm.53 24.92.03.01-.1-.05.07.04Zm7.55-.15c-.29.06-.58.1-.89.15.6-.09 1.19-.2 1.75-.34l-.86.19Zm-.72-20.74c-4.62-.73-8.16 1.3-10.6 3.6a19.85 19.85 0 0 0-3.44 4.36l-.17.31-.05.1a.85.85 0 0 1-1.14.37.84.84 0 0 1-.42-1.02v-.1l.07-.07.04-.08a14.92 14.92 0 0 1 .96-1.56l.18-.26c-.36-1-1.41-1.84-2.6-2.4a7.21 7.21 0 0 0-1.95-.6 3.53 3.53 0 0 0-.34.65c-.22.52-.42 1.2-.5 1.95a4.71 4.71 0 0 0 2.21 4.53l.07.05.04.04.02.02c.1.1.18.25.21.39l.01.06.01.09v.15l-.02.08-.01.06a.85.85 0 0 1-.11.22v.01a.85.85 0 0 1-.11.13l-.02.01-.09.08a4.74 4.74 0 0 0-1.82 2.2 4.53 4.53 0 0 0-.21 2.26 6.7 6.7 0 0 0 .95 2.56l.02.03a7.07 7.07 0 0 0 1.76-.76c1.13-.67 2.17-1.65 2.54-2.72l-.33-.48a19.49 19.49 0 0 1-.92-1.58l-.03-.07-.07-.07v-.1a.84.84 0 0 1 .44-1.02.85.85 0 0 1 1.13.4l.05.1.16.3a19.85 19.85 0 0 0 3.36 4.44c2.38 2.36 5.87 4.47 10.5 3.84 1.52-.21 2.89-.62 4.11-1.16a15.5 15.5 0 0 1-1.78-2.16c-1.27-1.86-2.52-4.55-2.16-7.7l.07-.57a14.14 14.14 0 0 1 3.84-7.77c-.6-.27-1.25-.5-1.93-.7l-.02-.02c-.61-.17-1.25-.32-1.91-.42Zm8.88 17.64c-.54.48-1.13.94-1.76 1.38l.62-.44c.4-.3.78-.62 1.14-.94Zm-3.6-15.52a12.48 12.48 0 0 0-3.65 7.54 9.74 9.74 0 0 0 1.88 6.56c.57.84 1.16 1.5 1.6 1.95l.37.35a16.95 16.95 0 0 0 4.3-3.67 19.68 19.68 0 0 0 2.76-4.32l.06-.14-.06-.16a19.67 19.67 0 0 0-2.66-4.37 16.87 16.87 0 0 0-4.43-3.9l-.17.16ZM10.03 27.53Zm.4-.7Zm-.41-3.14.01.02.04.08.17.32c.15.28.38.68.69 1.15l-.4-.65a17.1 17.1 0 0 1-.46-.82l-.04-.08-.01-.02a.42.42 0 0 0-.05-.08l.05.08Zm-4.84-9.5-.15.28.15-.29.12-.17-.12.17Zm-.5-.86-.03.04.13-.14-.1.1Zm18.73-2.16c.43.02.87.07 1.32.14l-.45-.07c-.3-.03-.58-.06-.87-.07Zm-.86-2.2a6.52 6.52 0 0 0-4.86.4c.03-.02-.04 0-.11.26-.07.25-.1.6-.08.97l.02.37c1.91-.84 4.14-1.3 6.68-1.04a8.76 8.76 0 0 0-.53-.39c-.41-.28-.8-.48-1.12-.56Zm-5.56-.7-.02.02.14-.08-.12.06Z"
          clip-rule="evenodd"/>
</svg>
