<svg xmlns="http://www.w3.org/2000/svg" fill="none" viewBox="0 0 42 42"><path fill="#0059FF" d="M7.17 37.4c-1.2 0-2.22-.4-3.05-1.24a4.14 4.14 0 0 1-1.25-3.04c0-1.2.41-2.22 1.24-3.05a4.13 4.13 0 0 1 3.05-1.25c1.2 0 2.21.42 3.05 1.25a4.13 4.13 0 0 1 1.25 3.04c0 1.2-.42 2.22-1.25 3.05a4.14 4.14 0 0 1-3.04 1.25Zm0-1.6c.73 0 1.36-.27 1.88-.8.53-.52.79-1.15.79-1.89 0-.73-.26-1.36-.79-1.89a2.58 2.58 0 0 0-1.89-.78 2.6 2.6 0 0 0-1.89.78 2.58 2.58 0 0 0-.79 1.9c0 .73.27 1.36.8 1.89.52.52 1.15.78 1.88.78Zm6.37 1.58a6.04 6.04 0 0 0 .8-1.61h4.44V22.72c0-1.22-.43-2.26-1.29-3.11a4.24 4.24 0 0 0-3.11-1.29H6.2v7.18a11 11 0 0 0-1.62.39V16.7H9.8V9.88a6.8 6.8 0 0 1 2.05-5 6.8 6.8 0 0 1 5-2.04A7 7 0 0 1 20.77 4a6.63 6.63 0 0 1 2.57 3.12l12.1 28.65h3.72v1.61H28.87v-1.61h4.85L21.87 7.79a5.63 5.63 0 0 0-2-2.44 5.2 5.2 0 0 0-3-.9c-1.52 0-2.8.53-3.86 1.59a5.23 5.23 0 0 0-1.58 3.84v6.83h2.95a5.8 5.8 0 0 1 4.25 1.76 5.8 5.8 0 0 1 1.76 4.26v14.65h-6.85Z"/></svg>