<svg xmlns="http://www.w3.org/2000/svg" fill="none" viewBox="0 0 42 42"><path fill="#0059FF" d="M16.94 23.44h1.61v-6.5h-1.61v6.5Zm-6.53-1.86a7.4 7.4 0 0 1-2.9-2.54A6.4 6.4 0 0 1 6.4 15.4a6.1 6.1 0 0 1 1.9-4.52 6.32 6.32 0 0 1 5.54-1.77c.32.06.65.12.97.2l.35.1.17-.28a7.57 7.57 0 0 1 2.4-2.6 5.85 5.85 0 0 1 6.6 0 8.08 8.08 0 0 1 2.4 2.6l.16.27.32-.09c.31-.08.63-.14.95-.2a6.3 6.3 0 0 1 5.56 1.78 6.1 6.1 0 0 1 1.9 4.53 6.4 6.4 0 0 1-1.1 3.65 7.22 7.22 0 0 1-2.9 2.51v8.4h-21.2v-8.4Zm13.07 1.86h1.62v-6.5h-1.62v6.5Zm-11.46 4.92H30v-7.84l1.37-.67c.83-.4 1.48-.98 1.97-1.77.48-.78.72-1.64.72-2.6 0-1.35-.5-2.5-1.46-3.44a4.86 4.86 0 0 0-4.34-1.33 5.3 5.3 0 0 0-.8.2l-1.3.37-.83-1.37a6.46 6.46 0 0 0-1.83-1.99 4.2 4.2 0 0 0-2.5-.78 4.2 4.2 0 0 0-2.47.78 6.5 6.5 0 0 0-1.83 1.99l-.8 1.37-1.38-.4a4.74 4.74 0 0 0-1.59-.24c-1.37 0-2.53.47-3.5 1.4a4.9 4.9 0 0 0 1.22 7.81l1.36.66v7.85Zm-1.61 1.61h1.61v4.9H30v-4.9h1.62v6.51h-21.2v-6.5Z"/></svg>